ISO-10303-21;
HEADER;
FILE_DESCRIPTION (( 'STEP AP203' ),
    '1' );
FILE_NAME ('ÉãÏñÍ·_Ö§¼Ü_µ××ù.STEP',
    '2026-05-19T19:07:07',
    ( '' ),
    ( '' ),
    'SwSTEP 2.0',
    'SolidWorks 2024',
    '' );
FILE_SCHEMA (( 'CONFIG_CONTROL_DESIGN' ));
ENDSEC;

DATA;
#1 = ORIENTED_EDGE ( 'NONE', *, *, #575, .T. ) ;
#2 = FACE_OUTER_BOUND ( 'NONE', #92, .T. ) ;
#3 = FACE_BOUND ( 'NONE', #1117, .T. ) ;
#4 = ORIENTED_EDGE ( 'NONE', *, *, #1006, .T. ) ;
#5 = EDGE_LOOP ( 'NONE', ( #460, #408 ) ) ;
#6 = CARTESIAN_POINT ( 'NONE',  ( 10.99999999999999645, 0.000000000000000000, -5.000000000000007105 ) ) ;
#7 = CIRCLE ( 'NONE', #29, 2.999999999999999112 ) ;
#8 = EDGE_CURVE ( 'NONE', #687, #396, #1011, .T. ) ;
#9 = CIRCLE ( 'NONE', #570, 1.149999999999999911 ) ;
#10 = CARTESIAN_POINT ( 'NONE',  ( 22.99999999999998934, 3.000000000000000000, -8.000000000000003553 ) ) ;
#11 = DIRECTION ( 'NONE',  ( 0.000000000000000000, -1.000000000000000000, 0.000000000000000000 ) ) ;
#12 = LOCAL_TIME ( 3, 7, 7.000000000000000000, #1160 ) ;
#13 = VERTEX_POINT ( 'NONE', #1050 ) ;
#14 = CARTESIAN_POINT ( 'NONE',  ( 10.99999999999999645, -0.001000000000000132727, -5.000000000000007105 ) ) ;
#15 = ADVANCED_FACE ( 'NONE', ( #714 ), #862, .F. ) ;
#16 = CARTESIAN_POINT ( 'NONE',  ( -5.421010862427522170E-16, 3.000000000000000000, -2.900000000000003464 ) ) ;
#17 = DIRECTION ( 'NONE',  ( -0.000000000000000000, 0.000000000000000000, 1.000000000000000000 ) ) ;
#18 = ORIENTED_EDGE ( 'NONE', *, *, #463, .F. ) ;
#19 = DIRECTION ( 'NONE',  ( 0.000000000000000000, 1.000000000000000000, 0.000000000000000000 ) ) ;
#20 = PLANE ( 'NONE',  #566 ) ;
#21 = DIRECTION ( 'NONE',  ( 0.000000000000000000, 0.000000000000000000, 1.000000000000000000 ) ) ;
#22 = VERTEX_POINT ( 'NONE', #236 ) ;
#23 = DIRECTION ( 'NONE',  ( 0.000000000000000000, 1.000000000000000000, 0.000000000000000000 ) ) ;
#24 = VECTOR ( 'NONE', #355, 1000.000000000000000 ) ;
#25 = CARTESIAN_POINT ( 'NONE',  ( -22.99999999999999645, 3.000000000000000000, 23.99999999999999645 ) ) ;
#26 = AXIS2_PLACEMENT_3D ( 'NONE', #1040, #568, #318 ) ;
#27 = CARTESIAN_POINT ( 'NONE',  ( 10.99999999999999645, 3.000000000000000000, -3.850000000000007194 ) ) ;
#28 = VECTOR ( 'NONE', #157, 1000.000000000000000 ) ;
#29 = AXIS2_PLACEMENT_3D ( 'NONE', #1041, #689, #34 ) ;
#30 = ADVANCED_FACE ( 'NONE', ( #621 ), #107, .F. ) ;
#31 = VERTEX_POINT ( 'NONE', #470 ) ;
#32 = DIRECTION ( 'NONE',  ( 1.000000000000000000, 0.000000000000000000, -0.000000000000000000 ) ) ;
#33 = ORIENTED_EDGE ( 'NONE', *, *, #216, .T. ) ;
#34 = DIRECTION ( 'NONE',  ( 0.000000000000000000, 0.000000000000000000, 1.000000000000000000 ) ) ;
#35 = CARTESIAN_POINT ( 'NONE',  ( 14.99999999999998934, -0.001000000000000132727, -7.703719777548943412E-31 ) ) ;
#36 = ADVANCED_FACE ( 'NONE', ( #195 ), #482, .F. ) ;
#37 = VERTEX_POINT ( 'NONE', #845 ) ;
#38 = CARTESIAN_POINT ( 'NONE',  ( -11.00000000000000000, 3.000000000000000000, -5.000000000000002665 ) ) ;
#39 = LINE ( 'NONE', #138, #630 ) ;
#40 = CARTESIAN_POINT ( 'NONE',  ( 14.99999999999998934, -0.001000000000000132727, -4.100000000000000533 ) ) ;
#41 = VERTEX_POINT ( 'NONE', #1097 ) ;
#42 = LINE ( 'NONE', #229, #425 ) ;
#43 = EDGE_CURVE ( 'NONE', #533, #1152, #281, .T. ) ;
#44 = CARTESIAN_POINT ( 'NONE',  ( 19.99999999999999289, 0.000000000000000000, -5.000000000000003553 ) ) ;
#45 = LINE ( 'NONE', #785, #461 ) ;
#46 = CIRCLE ( 'NONE', #140, 1.149999999999999911 ) ;
#47 = ORIENTED_EDGE ( 'NONE', *, *, #582, .T. ) ;
#48 = DIRECTION ( 'NONE',  ( -0.000000000000000000, -1.000000000000000000, 0.000000000000000000 ) ) ;
#49 = CC_DESIGN_SECURITY_CLASSIFICATION ( #576, ( #404 ) ) ;
#50 = VERTEX_POINT ( 'NONE', #639 ) ;
#51 = CARTESIAN_POINT ( 'NONE',  ( 10.99999999999999645, 0.000000000000000000, -5.000000000000007105 ) ) ;
#52 = EDGE_CURVE ( 'NONE', #276, #711, #1142, .T. ) ;
#53 = CARTESIAN_POINT ( 'NONE',  ( 22.99999999999998934, 0.000000000000000000, -5.000000000000004441 ) ) ;
#54 = ORIENTED_EDGE ( 'NONE', *, *, #551, .F. ) ;
#55 = CARTESIAN_POINT ( 'NONE',  ( 18.99999999999999289, 0.000000000000000000, 19.59999999999999432 ) ) ;
#56 = CARTESIAN_POINT ( 'NONE',  ( 14.99999999999998934, 3.000000000000000000, -7.703719777548943412E-31 ) ) ;
#57 = CARTESIAN_POINT ( 'NONE',  ( 10.99999999999999112, 3.000000000000000000, 6.680818862654938961 ) ) ;
#58 = ADVANCED_FACE ( 'NONE', ( #294 ), #654, .T. ) ;
#59 = VERTEX_POINT ( 'NONE', #837 ) ;
#60 = PERSON_AND_ORGANIZATION ( #769, #820 ) ;
#61 = ORIENTED_EDGE ( 'NONE', *, *, #623, .F. ) ;
#62 = CARTESIAN_POINT ( 'NONE',  ( -11.00000000000000000, -0.001000000000000132727, -5.000000000000002665 ) ) ;
#63 = DIRECTION ( 'NONE',  ( 2.891205793294678326E-16, -0.000000000000000000, 1.000000000000000000 ) ) ;
#64 = AXIS2_PLACEMENT_3D ( 'NONE', #723, #275, #543 ) ;
#65 = AXIS2_PLACEMENT_3D ( 'NONE', #736, #656, #537 ) ;
#66 = EDGE_CURVE ( 'NONE', #890, #755, #1068, .T. ) ;
#67 = CIRCLE ( 'NONE', #728, 2.999999999999999112 ) ;
#68 = AXIS2_PLACEMENT_3D ( 'NONE', #151, #592, #959 ) ;
#69 = ORIENTED_EDGE ( 'NONE', *, *, #52, .T. ) ;
#70 = DIRECTION ( 'NONE',  ( -0.000000000000000000, 1.000000000000000000, -0.000000000000000000 ) ) ;
#71 = CARTESIAN_POINT ( 'NONE',  ( -23.00000000000000355, 3.000000000000000000, -5.000000000000002665 ) ) ;
#72 = VERTEX_POINT ( 'NONE', #27 ) ;
#73 = CARTESIAN_POINT ( 'NONE',  ( 18.99999999999999289, -0.001000000000000132727, 16.39999999999999503 ) ) ;
#74 = DIRECTION ( 'NONE',  ( -0.000000000000000000, 1.000000000000000000, 0.000000000000000000 ) ) ;
#75 = PERSON_AND_ORGANIZATION ( #769, #820 ) ;
#76 = ORIENTED_EDGE ( 'NONE', *, *, #1082, .F. ) ;
#77 = DIRECTION ( 'NONE',  ( -0.000000000000000000, 1.000000000000000000, -0.000000000000000000 ) ) ;
#78 = EDGE_CURVE ( 'NONE', #751, #856, #556, .T. ) ;
#79 = FACE_OUTER_BOUND ( 'NONE', #94, .T. ) ;
#80 = VERTEX_POINT ( 'NONE', #1012 ) ;
#81 = AXIS2_PLACEMENT_3D ( 'NONE', #835, #632, #818 ) ;
#82 = ORIENTED_EDGE ( 'NONE', *, *, #934, .T. ) ;
#83 = AXIS2_PLACEMENT_3D ( 'NONE', #625, #995, #179 ) ;
#84 = CARTESIAN_POINT ( 'NONE',  ( -5.421010862427522170E-16, 0.000000000000000000, -5.000000000000003553 ) ) ;
#85 = AXIS2_PLACEMENT_3D ( 'NONE', #676, #416, #776 ) ;
#86 = FACE_BOUND ( 'NONE', #5, .T. ) ;
#87 = EDGE_CURVE ( 'NONE', #37, #393, #9, .T. ) ;
#88 = EDGE_LOOP ( 'NONE', ( #627, #804, #583, #704 ) ) ;
#89 = EDGE_LOOP ( 'NONE', ( #1119, #336, #588, #847 ) ) ;
#90 = DIRECTION ( 'NONE',  ( -2.168404344971008868E-16, -0.000000000000000000, -1.000000000000000000 ) ) ;
#91 = FACE_BOUND ( 'NONE', #681, .T. ) ;
#92 = EDGE_LOOP ( 'NONE', ( #541, #126, #693, #817 ) ) ;
#93 = ADVANCED_FACE ( 'NONE', ( #749 ), #380, .T. ) ;
#94 = EDGE_LOOP ( 'NONE', ( #237, #451, #834, #950 ) ) ;
#95 = DIRECTION ( 'NONE',  ( 0.000000000000000000, 1.000000000000000000, 0.000000000000000000 ) ) ;
#96 = FACE_OUTER_BOUND ( 'NONE', #778, .T. ) ;
#97 = DIRECTION ( 'NONE',  ( 0.000000000000000000, -1.000000000000000000, 0.000000000000000000 ) ) ;
#98 = EDGE_CURVE ( 'NONE', #59, #781, #744, .T. ) ;
#99 = VERTEX_POINT ( 'NONE', #459 ) ;
#100 = DIRECTION ( 'NONE',  ( 0.000000000000000000, 0.000000000000000000, 1.000000000000000000 ) ) ;
#101 = DIRECTION ( 'NONE',  ( 0.000000000000000000, 0.000000000000000000, -1.000000000000000000 ) ) ;
#102 = AXIS2_PLACEMENT_3D ( 'NONE', #1047, #401, #759 ) ;
#103 = CARTESIAN_POINT ( 'NONE',  ( -15.00000000000000000, 3.000000000000000000, 0.000000000000000000 ) ) ;
#104 = EDGE_LOOP ( 'NONE', ( #1043, #258, #1088, #514 ) ) ;
#105 = DIRECTION ( 'NONE',  ( -0.000000000000000000, 1.000000000000000000, -0.000000000000000000 ) ) ;
#106 = DIRECTION ( 'NONE',  ( -1.000000000000000000, -0.000000000000000000, -0.000000000000000000 ) ) ;
#107 = PLANE ( 'NONE',  #1103 ) ;
#108 = ORIENTED_EDGE ( 'NONE', *, *, #750, .T. ) ;
#109 = CARTESIAN_POINT ( 'NONE',  ( 18.99999999999999289, 3.000000000000000000, 17.99999999999999645 ) ) ;
#110 = CARTESIAN_POINT ( 'NONE',  ( -11.00000000000001066, 0.000000000000000000, 9.680818862654938073 ) ) ;
#111 = ADVANCED_FACE ( 'NONE', ( #926 ), #112, .F. ) ;
#112 = CYLINDRICAL_SURFACE ( 'NONE', #936, 4.100000000000000533 ) ;
#113 = VERTEX_POINT ( 'NONE', #395 ) ;
#114 = FACE_OUTER_BOUND ( 'NONE', #867, .T. ) ;
#115 = EDGE_LOOP ( 'NONE', ( #1007, #1143, #694, #650 ) ) ;
#116 = CIRCLE ( 'NONE', #428, 2.999999999999999112 ) ;
#117 = DIRECTION ( 'NONE',  ( 0.000000000000000000, 0.000000000000000000, 1.000000000000000000 ) ) ;
#118 = VECTOR ( 'NONE', #848, 1000.000000000000000 ) ;
#119 = CARTESIAN_POINT ( 'NONE',  ( 14.99999999999998934, 0.000000000000000000, -7.703719777548943412E-31 ) ) ;
#120 = AXIS2_PLACEMENT_3D ( 'NONE', #888, #702, #522 ) ;
#121 = EDGE_CURVE ( 'NONE', #447, #622, #365, .T. ) ;
#122 = VECTOR ( 'NONE', #682, 1000.000000000000000 ) ;
#123 = APPROVAL_PERSON_ORGANIZATION ( #795, #701, #149 ) ;
#124 = VERTEX_POINT ( 'NONE', #932 ) ;
#125 = PLANE ( 'NONE',  #329 ) ;
#126 = ORIENTED_EDGE ( 'NONE', *, *, #1129, .F. ) ;
#127 = DIRECTION ( 'NONE',  ( 0.000000000000000000, 0.000000000000000000, 1.000000000000000000 ) ) ;
#128 = LINE ( 'NONE', #861, #1085 ) ;
#129 = EDGE_CURVE ( 'NONE', #601, #99, #648, .T. ) ;
#130 = ORIENTED_EDGE ( 'NONE', *, *, #295, .T. ) ;
#131 = EDGE_LOOP ( 'NONE', ( #332, #812, #635, #383 ) ) ;
#132 = CARTESIAN_POINT ( 'NONE',  ( -11.00000000000001066, 3.000000000000000000, 15.68081886265493985 ) ) ;
#133 = FACE_OUTER_BOUND ( 'NONE', #399, .T. ) ;
#134 = ORIENTED_EDGE ( 'NONE', *, *, #1023, .T. ) ;
#135 = CARTESIAN_POINT ( 'NONE',  ( 22.99999999999999645, 3.000000000000000000, 20.99999999999999645 ) ) ;
#136 = ADVANCED_FACE ( 'NONE', ( #303 ), #665, .T. ) ;
#137 = EDGE_LOOP ( 'NONE', ( #54, #524, #1099, #810 ) ) ;
#138 = CARTESIAN_POINT ( 'NONE',  ( 14.99999999999998934, -0.001000000000000132727, 4.100000000000000533 ) ) ;
#139 = DIRECTION ( 'NONE',  ( -0.000000000000000000, 1.000000000000000000, -0.000000000000000000 ) ) ;
#140 = AXIS2_PLACEMENT_3D ( 'NONE', #6, #1083, #825 ) ;
#141 = AXIS2_PLACEMENT_3D ( 'NONE', #250, #615, #246 ) ;
#142 = AXIS2_PLACEMENT_3D ( 'NONE', #226, #211, #572 ) ;
#143 = ORIENTED_EDGE ( 'NONE', *, *, #412, .T. ) ;
#144 = EDGE_CURVE ( 'NONE', #1126, #636, #1093, .T. ) ;
#145 = VERTEX_POINT ( 'NONE', #1138 ) ;
#146 = CARTESIAN_POINT ( 'NONE',  ( -14.00000000000001066, 3.000000000000000000, 6.680818862654938961 ) ) ;
#147 = CYLINDRICAL_SURFACE ( 'NONE', #501, 1.600000000000000755 ) ;
#148 = EDGE_LOOP ( 'NONE', ( #311, #261, #969, #1045, #905, #545, #243, #415 ) ) ;
#149 = APPROVAL_ROLE ( '' ) ;
#150 = ORIENTED_EDGE ( 'NONE', *, *, #323, .F. ) ;
#151 = CARTESIAN_POINT ( 'NONE',  ( 18.99999999999999289, 3.000000000000000000, 17.99999999999999645 ) ) ;
#152 = DIRECTION ( 'NONE',  ( 0.000000000000000000, 0.000000000000000000, 1.000000000000000000 ) ) ;
#153 = EDGE_CURVE ( 'NONE', #22, #396, #128, .T. ) ;
#154 = DIRECTION ( 'NONE',  ( 0.000000000000000000, 0.000000000000000000, 1.000000000000000000 ) ) ;
#155 = EDGE_LOOP ( 'NONE', ( #350, #287, #1148, #419 ) ) ;
#156 = FACE_BOUND ( 'NONE', #181, .T. ) ;
#157 = DIRECTION ( 'NONE',  ( -2.168404344971008868E-16, -0.000000000000000000, -1.000000000000000000 ) ) ;
#158 = AXIS2_PLACEMENT_3D ( 'NONE', #284, #361, #1096 ) ;
#159 = APPROVAL_DATE_TIME ( #247, #701 ) ;
#160 = ORIENTED_EDGE ( 'NONE', *, *, #686, .F. ) ;
#161 = FACE_OUTER_BOUND ( 'NONE', #137, .T. ) ;
#162 = FACE_OUTER_BOUND ( 'NONE', #300, .T. ) ;
#163 = DIRECTION ( 'NONE',  ( 0.000000000000000000, 0.000000000000000000, 1.000000000000000000 ) ) ;
#164 = EDGE_CURVE ( 'NONE', #1124, #340, #424, .T. ) ;
#165 = ORIENTED_EDGE ( 'NONE', *, *, #695, .F. ) ;
#166 = CARTESIAN_POINT ( 'NONE',  ( -14.00000000000001066, 3.000000000000000000, 6.680818862654938961 ) ) ;
#167 = CARTESIAN_POINT ( 'NONE',  ( -2.849252584218080706E-16, -0.001000000000000132727, -7.100000000000004086 ) ) ;
#168 = COORDINATED_UNIVERSAL_TIME_OFFSET ( 8, 0, .AHEAD. ) ;
#169 = ORIENTED_EDGE ( 'NONE', *, *, #994, .F. ) ;
#170 = EDGE_CURVE ( 'NONE', #270, #217, #213, .T. ) ;
#171 = CARTESIAN_POINT ( 'NONE',  ( -22.99999999999998934, 3.000000000000000000, 20.99999999999999645 ) ) ;
#172 = CARTESIAN_POINT ( 'NONE',  ( 10.99999999999999112, 0.000000000000000000, 6.680818862654938961 ) ) ;
#173 = ORIENTED_EDGE ( 'NONE', *, *, #564, .T. ) ;
#174 = VECTOR ( 'NONE', #1109, 1000.000000000000000 ) ;
#175 = AXIS2_PLACEMENT_3D ( 'NONE', #1016, #637, #731 ) ;
#176 = ORIENTED_EDGE ( 'NONE', *, *, #436, .F. ) ;
#177 = FACE_OUTER_BOUND ( 'NONE', #910, .T. ) ;
#178 = CIRCLE ( 'NONE', #68, 1.600000000000000755 ) ;
#179 = DIRECTION ( 'NONE',  ( 0.000000000000000000, 0.000000000000000000, 1.000000000000000000 ) ) ;
#180 = EDGE_CURVE ( 'NONE', #781, #59, #1033, .T. ) ;
#181 = EDGE_LOOP ( 'NONE', ( #362, #961 ) ) ;
#182 = ORIENTED_EDGE ( 'NONE', *, *, #1014, .F. ) ;
#183 = CARTESIAN_POINT ( 'NONE',  ( 18.99999999999999289, -0.001000000000000132727, 17.99999999999999645 ) ) ;
#184 = CARTESIAN_POINT ( 'NONE',  ( -11.00000000000000000, 0.000000000000000000, -6.150000000000003020 ) ) ;
#185 = DIRECTION ( 'NONE',  ( 0.000000000000000000, 0.000000000000000000, 1.000000000000000000 ) ) ;
#186 = EDGE_CURVE ( 'NONE', #636, #856, #215, .T. ) ;
#187 = ORIENTED_EDGE ( 'NONE', *, *, #87, .F. ) ;
#188 = CARTESIAN_POINT ( 'NONE',  ( 22.99999999999998934, 3.000000000000000000, -8.000000000000003553 ) ) ;
#189 = CARTESIAN_POINT ( 'NONE',  ( -15.00000000000000000, -0.001000000000000132727, 0.000000000000000000 ) ) ;
#190 = CARTESIAN_POINT ( 'NONE',  ( -20.00000000000000355, 3.000000000000000000, -5.000000000000003553 ) ) ;
#191 = ORIENTED_EDGE ( 'NONE', *, *, #832, .T. ) ;
#192 = FACE_OUTER_BOUND ( 'NONE', #450, .T. ) ;
#193 = AXIS2_PLACEMENT_3D ( 'NONE', #675, #397, #494 ) ;
#194 = CARTESIAN_POINT ( 'NONE',  ( -14.00000000000000888, -4.235164736271501695E-19, 15.68081886265493985 ) ) ;
#195 = FACE_OUTER_BOUND ( 'NONE', #1059, .T. ) ;
#196 = ORIENTED_EDGE ( 'NONE', *, *, #1020, .F. ) ;
#197 = DIRECTION ( 'NONE',  ( -0.000000000000000000, 1.000000000000000000, -0.000000000000000000 ) ) ;
#198 = EDGE_CURVE ( 'NONE', #80, #145, #45, .T. ) ;
#199 = DIRECTION ( 'NONE',  ( 2.168404344971008868E-16, 0.000000000000000000, 1.000000000000000000 ) ) ;
#200 = DIRECTION ( 'NONE',  ( 0.000000000000000000, 0.000000000000000000, -1.000000000000000000 ) ) ;
#201 = ADVANCED_BREP_SHAPE_REPRESENTATION ( '\X2\644450cf5934\X0\_\X2\652f67b6\X0\_\X2\5e955ea7\X0\', ( #207, #669 ), #569 ) ;
#202 = ORIENTED_EDGE ( 'NONE', *, *, #8, .F. ) ;
#203 = EDGE_CURVE ( 'NONE', #396, #864, #406, .T. ) ;
#204 = ORIENTED_EDGE ( 'NONE', *, *, #334, .T. ) ;
#205 = DIRECTION ( 'NONE',  ( -0.000000000000000000, 1.000000000000000000, -0.000000000000000000 ) ) ;
#206 = DIRECTION ( 'NONE',  ( -0.000000000000000000, -1.000000000000000000, -0.000000000000000000 ) ) ;
#207 = MANIFOLD_SOLID_BREP ( 'Ô²½Ç3', #611 ) ;
#208 = ORIENTED_EDGE ( 'NONE', *, *, #1153, .T. ) ;
#209 = CARTESIAN_POINT ( 'NONE',  ( 18.99999999999999289, 3.000000000000000000, 16.39999999999999503 ) ) ;
#210 = ORIENTED_EDGE ( 'NONE', *, *, #973, .F. ) ;
#211 = DIRECTION ( 'NONE',  ( -0.000000000000000000, -1.000000000000000000, -0.000000000000000000 ) ) ;
#212 = VECTOR ( 'NONE', #1003, 1000.000000000000000 ) ;
#213 = CIRCLE ( 'NONE', #331, 1.600000000000000755 ) ;
#214 = DIRECTION ( 'NONE',  ( -0.000000000000000000, 1.000000000000000000, -0.000000000000000000 ) ) ;
#215 = CIRCLE ( 'NONE', #978, 2.999999999999999112 ) ;
#216 = EDGE_CURVE ( 'NONE', #99, #985, #1165, .T. ) ;
#217 = VERTEX_POINT ( 'NONE', #1121 ) ;
#218 = DIRECTION ( 'NONE',  ( 0.000000000000000000, 0.000000000000000000, 1.000000000000000000 ) ) ;
#219 = ORIENTED_EDGE ( 'NONE', *, *, #896, .T. ) ;
#220 = LINE ( 'NONE', #146, #746 ) ;
#221 = DIRECTION ( 'NONE',  ( 1.000000000000000000, -0.000000000000000000, 0.000000000000000000 ) ) ;
#222 = ADVANCED_FACE ( 'NONE', ( #677 ), #147, .F. ) ;
#223 = VERTEX_POINT ( 'NONE', #1042 ) ;
#224 = DIRECTION ( 'NONE',  ( 0.000000000000000000, 0.000000000000000000, 1.000000000000000000 ) ) ;
#225 = ORIENTED_EDGE ( 'NONE', *, *, #943, .F. ) ;
#226 = CARTESIAN_POINT ( 'NONE',  ( -11.00000000000000000, 0.000000000000000000, -5.000000000000002665 ) ) ;
#227 = DIRECTION ( 'NONE',  ( 0.000000000000000000, 0.000000000000000000, -1.000000000000000000 ) ) ;
#228 = ORIENTED_EDGE ( 'NONE', *, *, #715, .T. ) ;
#229 = CARTESIAN_POINT ( 'NONE',  ( -14.00000000000000888, 0.000000000000000000, 18.68081886265493807 ) ) ;
#230 = ORIENTED_EDGE ( 'NONE', *, *, #1171, .F. ) ;
#231 = DIRECTION ( 'NONE',  ( 0.000000000000000000, 0.000000000000000000, 1.000000000000000000 ) ) ;
#232 = AXIS2_PLACEMENT_3D ( 'NONE', #653, #469, #919 ) ;
#233 = CARTESIAN_POINT ( 'NONE',  ( 18.99999999999999289, -0.001000000000000132727, 19.59999999999999432 ) ) ;
#234 = VECTOR ( 'NONE', #90, 1000.000000000000000 ) ;
#235 = AXIS2_PLACEMENT_3D ( 'NONE', #56, #849, #400 ) ;
#236 = CARTESIAN_POINT ( 'NONE',  ( -11.00000000000001066, 0.000000000000000000, 6.680818862654938961 ) ) ;
#237 = ORIENTED_EDGE ( 'NONE', *, *, #896, .F. ) ;
#238 = EDGE_CURVE ( 'NONE', #113, #998, #612, .T. ) ;
#239 = DIRECTION ( 'NONE',  ( 0.000000000000000000, 1.000000000000000000, 0.000000000000000000 ) ) ;
#240 = DIRECTION ( 'NONE',  ( -0.000000000000000000, 1.000000000000000000, -0.000000000000000000 ) ) ;
#241 = ORIENTED_EDGE ( 'NONE', *, *, #709, .T. ) ;
#242 = COORDINATED_UNIVERSAL_TIME_OFFSET ( 8, 0, .AHEAD. ) ;
#243 = ORIENTED_EDGE ( 'NONE', *, *, #418, .F. ) ;
#244 = LINE ( 'NONE', #721, #591 ) ;
#245 = ADVANCED_FACE ( 'NONE', ( #1038 ), #492, .F. ) ;
#246 = DIRECTION ( 'NONE',  ( 0.000000000000000000, 0.000000000000000000, 1.000000000000000000 ) ) ;
#247 = DATE_AND_TIME ( #420, #12 ) ;
#248 = ORIENTED_EDGE ( 'NONE', *, *, #623, .T. ) ;
#249 = CARTESIAN_POINT ( 'NONE',  ( -15.00000000000000000, 3.000000000000000000, -4.100000000000000533 ) ) ;
#250 = CARTESIAN_POINT ( 'NONE',  ( -15.00000000000000000, -0.001000000000000132727, 0.000000000000000000 ) ) ;
#251 = CC_DESIGN_APPROVAL ( #1058, ( #972 ) ) ;
#252 = EDGE_CURVE ( 'NONE', #124, #885, #763, .T. ) ;
#253 = ORIENTED_EDGE ( 'NONE', *, *, #846, .F. ) ;
#254 = FACE_BOUND ( 'NONE', #1034, .T. ) ;
#255 = LINE ( 'NONE', #1079, #708 ) ;
#256 = ADVANCED_FACE ( 'NONE', ( #133 ), #855, .F. ) ;
#257 = DATE_TIME_ROLE ( 'creation_date' ) ;
#258 = ORIENTED_EDGE ( 'NONE', *, *, #144, .F. ) ;
#259 = CARTESIAN_POINT ( 'NONE',  ( 20.00000000000000000, 0.000000000000000000, 23.99999999999999645 ) ) ;
#260 = DIRECTION ( 'NONE',  ( 0.000000000000000000, -1.000000000000000000, 0.000000000000000000 ) ) ;
#261 = ORIENTED_EDGE ( 'NONE', *, *, #886, .T. ) ;
#262 = CC_DESIGN_DATE_AND_TIME_ASSIGNMENT ( #962, #257, ( #972 ) ) ;
#263 = EDGE_LOOP ( 'NONE', ( #402, #667, #898, #1053 ) ) ;
#264 = CARTESIAN_POINT ( 'NONE',  ( -19.99999999999998934, 0.000000000000000000, 20.99999999999999645 ) ) ;
#265 = DIRECTION ( 'NONE',  ( -0.000000000000000000, -1.000000000000000000, -0.000000000000000000 ) ) ;
#266 = VERTEX_POINT ( 'NONE', #53 ) ;
#267 = VECTOR ( 'NONE', #106, 1000.000000000000000 ) ;
#268 = CIRCLE ( 'NONE', #647, 2.999999999999999112 ) ;
#269 = AXIS2_PLACEMENT_3D ( 'NONE', #660, #206, #565 ) ;
#270 = VERTEX_POINT ( 'NONE', #960 ) ;
#271 = AXIS2_PLACEMENT_3D ( 'NONE', #322, #315, #411 ) ;
#272 = FACE_OUTER_BOUND ( 'NONE', #155, .T. ) ;
#273 = CIRCLE ( 'NONE', #780, 1.149999999999999911 ) ;
#274 = ADVANCED_FACE ( 'NONE', ( #507 ), #866, .F. ) ;
#275 = DIRECTION ( 'NONE',  ( -0.000000000000000000, -1.000000000000000000, -0.000000000000000000 ) ) ;
#276 = VERTEX_POINT ( 'NONE', #511 ) ;
#277 = ORIENTED_EDGE ( 'NONE', *, *, #170, .F. ) ;
#278 = DIRECTION ( 'NONE',  ( 0.000000000000000000, 0.000000000000000000, 1.000000000000000000 ) ) ;
#279 = DIRECTION ( 'NONE',  ( -0.000000000000000000, -1.000000000000000000, -0.000000000000000000 ) ) ;
#280 = CC_DESIGN_PERSON_AND_ORGANIZATION_ASSIGNMENT ( #343, #884, ( #576 ) ) ;
#281 = LINE ( 'NONE', #908, #330 ) ;
#282 = VERTEX_POINT ( 'NONE', #942 ) ;
#283 = LINE ( 'NONE', #542, #212 ) ;
#284 = CARTESIAN_POINT ( 'NONE',  ( 10.99999999999999645, -0.001000000000000132727, -5.000000000000007105 ) ) ;
#285 = DIRECTION ( 'NONE',  ( 0.000000000000000000, 1.000000000000000000, 0.000000000000000000 ) ) ;
#286 = EDGE_CURVE ( 'NONE', #687, #344, #871, .T. ) ;
#287 = ORIENTED_EDGE ( 'NONE', *, *, #802, .F. ) ;
#288 = DIRECTION ( 'NONE',  ( 0.000000000000000000, 0.000000000000000000, 1.000000000000000000 ) ) ;
#289 = AXIS2_PLACEMENT_3D ( 'NONE', #740, #917, #360 ) ;
#290 = VECTOR ( 'NONE', #548, 1000.000000000000000 ) ;
#291 = CIRCLE ( 'NONE', #1105, 4.100000000000000533 ) ;
#292 = CARTESIAN_POINT ( 'NONE',  ( 19.99999999999999645, 3.000000000000000000, 20.99999999999999645 ) ) ;
#293 = VECTOR ( 'NONE', #70, 1000.000000000000000 ) ;
#294 = FACE_OUTER_BOUND ( 'NONE', #929, .T. ) ;
#295 = EDGE_CURVE ( 'NONE', #270, #13, #1150, .T. ) ;
#296 = VERTEX_POINT ( 'NONE', #713 ) ;
#297 = FACE_OUTER_BOUND ( 'NONE', #719, .T. ) ;
#298 = LINE ( 'NONE', #1024, #477 ) ;
#299 = CARTESIAN_POINT ( 'NONE',  ( -11.00000000000000000, 3.000000000000000000, -5.000000000000002665 ) ) ;
#300 = EDGE_LOOP ( 'NONE', ( #788, #823, #454, #304 ) ) ;
#301 = DIRECTION ( 'NONE',  ( 0.000000000000000000, 0.000000000000000000, -1.000000000000000000 ) ) ;
#302 = CARTESIAN_POINT ( 'NONE',  ( -19.99999999999998934, 0.000000000000000000, 23.99999999999999645 ) ) ;
#303 = FACE_OUTER_BOUND ( 'NONE', #115, .T. ) ;
#304 = ORIENTED_EDGE ( 'NONE', *, *, #934, .F. ) ;
#305 = LINE ( 'NONE', #479, #688 ) ;
#306 = VERTEX_POINT ( 'NONE', #538 ) ;
#307 = AXIS2_PLACEMENT_3D ( 'NONE', #1021, #23, #457 ) ;
#308 = CARTESIAN_POINT ( 'NONE',  ( 19.99999999999999289, 3.000000000000000000, -8.000000000000003553 ) ) ;
#309 = ADVANCED_FACE ( 'NONE', ( #1065, #91, #800, #718, #86, #1075, #531, #3, #707 ), #517, .T. ) ;
#310 = CARTESIAN_POINT ( 'NONE',  ( -18.99999999999999645, -0.001000000000000132727, 17.99999999999999645 ) ) ;
#311 = ORIENTED_EDGE ( 'NONE', *, *, #78, .F. ) ;
#312 = CYLINDRICAL_SURFACE ( 'NONE', #1141, 2.999999999999999112 ) ;
#313 = ORIENTED_EDGE ( 'NONE', *, *, #252, .T. ) ;
#314 = DIRECTION ( 'NONE',  ( 0.000000000000000000, 0.000000000000000000, 1.000000000000000000 ) ) ;
#315 = DIRECTION ( 'NONE',  ( 0.000000000000000000, 1.000000000000000000, 0.000000000000000000 ) ) ;
#316 = EDGE_CURVE ( 'NONE', #344, #124, #794, .T. ) ;
#317 = EDGE_LOOP ( 'NONE', ( #1076, #684 ) ) ;
#318 = DIRECTION ( 'NONE',  ( 0.000000000000000000, 0.000000000000000000, -1.000000000000000000 ) ) ;
#319 = PRODUCT_DEFINITION_SHAPE ( 'NONE', 'NONE',  #972 ) ;
#320 = ORIENTED_EDGE ( 'NONE', *, *, #539, .T. ) ;
#321 = CARTESIAN_POINT ( 'NONE',  ( 22.99999999999999645, 0.000000000000000000, 20.99999999999999645 ) ) ;
#322 = CARTESIAN_POINT ( 'NONE',  ( -15.00000000000000000, 3.000000000000000000, 0.000000000000000000 ) ) ;
#323 = EDGE_CURVE ( 'NONE', #1063, #890, #605, .T. ) ;
#324 = EDGE_LOOP ( 'NONE', ( #735, #725, #1114, #739 ) ) ;
#325 = EDGE_LOOP ( 'NONE', ( #976, #1077, #567, #916 ) ) ;
#326 = DIRECTION ( 'NONE',  ( -0.000000000000000000, -1.000000000000000000, -0.000000000000000000 ) ) ;
#327 = CIRCLE ( 'NONE', #685, 3.000000000000000000 ) ;
#328 = CARTESIAN_POINT ( 'NONE',  ( 10.99999999999999112, -0.001000000000000132727, 9.680818862654938073 ) ) ;
#329 = AXIS2_PLACEMENT_3D ( 'NONE', #680, #224, #32 ) ;
#330 = VECTOR ( 'NONE', #742, 1000.000000000000000 ) ;
#331 = AXIS2_PLACEMENT_3D ( 'NONE', #672, #850, #1055 ) ;
#332 = ORIENTED_EDGE ( 'NONE', *, *, #66, .F. ) ;
#333 = MECHANICAL_CONTEXT ( 'NONE', #641, 'mechanical' ) ;
#334 = EDGE_CURVE ( 'NONE', #711, #751, #442, .T. ) ;
#335 = APPROVAL_PERSON_ORGANIZATION ( #873, #646, #607 ) ;
#336 = ORIENTED_EDGE ( 'NONE', *, *, #316, .T. ) ;
#337 = DIRECTION ( 'NONE',  ( 0.000000000000000000, 0.000000000000000000, 1.000000000000000000 ) ) ;
#338 = CARTESIAN_POINT ( 'NONE',  ( -18.99999999999999645, -0.001000000000000132727, 19.59999999999999432 ) ) ;
#339 = CALENDAR_DATE ( 2026, 20, 5 ) ;
#340 = VERTEX_POINT ( 'NONE', #352 ) ;
#341 = DIRECTION ( 'NONE',  ( 0.000000000000000000, 0.000000000000000000, 1.000000000000000000 ) ) ;
#342 = CYLINDRICAL_SURFACE ( 'NONE', #955, 2.999999999999999112 ) ;
#343 = PERSON_AND_ORGANIZATION ( #769, #820 ) ;
#344 = VERTEX_POINT ( 'NONE', #1169 ) ;
#345 = CARTESIAN_POINT ( 'NONE',  ( -23.00000000000000355, 0.000000000000000000, -8.000000000000003553 ) ) ;
#346 = CYLINDRICAL_SURFACE ( 'NONE', #141, 4.100000000000000533 ) ;
#347 = EDGE_CURVE ( 'NONE', #755, #509, #1070, .T. ) ;
#348 = AXIS2_PLACEMENT_3D ( 'NONE', #1018, #97, #200 ) ;
#349 = AXIS2_PLACEMENT_3D ( 'NONE', #328, #777, #227 ) ;
#350 = ORIENTED_EDGE ( 'NONE', *, *, #52, .F. ) ;
#351 = CARTESIAN_POINT ( 'NONE',  ( 10.99999999999999645, 3.000000000000000000, -5.000000000000007105 ) ) ;
#352 = CARTESIAN_POINT ( 'NONE',  ( 18.99999999999999289, 3.000000000000000000, 19.59999999999999432 ) ) ;
#353 = CARTESIAN_POINT ( 'NONE',  ( 10.99999999999999112, 0.000000000000000000, 9.680818862654938073 ) ) ;
#354 = VERTEX_POINT ( 'NONE', #1159 ) ;
#355 = DIRECTION ( 'NONE',  ( -0.000000000000000000, 1.000000000000000000, -0.000000000000000000 ) ) ;
#356 = CARTESIAN_POINT ( 'NONE',  ( 14.99999999999998934, 0.000000000000000000, -7.703719777548943412E-31 ) ) ;
#357 = ORIENTED_EDGE ( 'NONE', *, *, #904, .T. ) ;
#358 = EDGE_CURVE ( 'NONE', #354, #687, #255, .T. ) ;
#359 = ORIENTED_EDGE ( 'NONE', *, *, #773, .T. ) ;
#360 = DIRECTION ( 'NONE',  ( 0.000000000000000000, 0.000000000000000000, 1.000000000000000000 ) ) ;
#361 = DIRECTION ( 'NONE',  ( -0.000000000000000000, 1.000000000000000000, -0.000000000000000000 ) ) ;
#362 = ORIENTED_EDGE ( 'NONE', *, *, #575, .F. ) ;
#363 = CIRCLE ( 'NONE', #692, 1.149999999999999911 ) ;
#364 = AXIS2_PLACEMENT_3D ( 'NONE', #62, #783, #337 ) ;
#365 = CIRCLE ( 'NONE', #269, 1.149999999999999911 ) ;
#366 = EDGE_LOOP ( 'NONE', ( #989, #829 ) ) ;
#367 = PRODUCT_RELATED_PRODUCT_CATEGORY ( 'detail', '', ( #488 ) ) ;
#368 = CYLINDRICAL_SURFACE ( 'NONE', #894, 1.600000000000000755 ) ;
#369 = CARTESIAN_POINT ( 'NONE',  ( 10.99999999999999645, -0.001000000000000132727, -6.150000000000007461 ) ) ;
#370 = CC_DESIGN_APPROVAL ( #701, ( #576 ) ) ;
#371 = DIRECTION ( 'NONE',  ( 0.000000000000000000, 0.000000000000000000, 1.000000000000000000 ) ) ;
#372 = ORIENTED_EDGE ( 'NONE', *, *, #519, .T. ) ;
#373 = CYLINDRICAL_SURFACE ( 'NONE', #65, 2.100000000000000089 ) ;
#374 = FACE_OUTER_BOUND ( 'NONE', #875, .T. ) ;
#375 = ADVANCED_FACE ( 'NONE', ( #162 ), #987, .F. ) ;
#376 = CARTESIAN_POINT ( 'NONE',  ( -14.00000000000001066, -0.001000000000000132727, 6.680818862654938961 ) ) ;
#377 = ORIENTED_EDGE ( 'NONE', *, *, #463, .T. ) ;
#378 = FACE_OUTER_BOUND ( 'NONE', #263, .T. ) ;
#379 = CARTESIAN_POINT ( 'NONE',  ( -14.00000000000001066, 0.000000000000000000, 9.680818862654938073 ) ) ;
#380 = CYLINDRICAL_SURFACE ( 'NONE', #348, 2.999999999999999112 ) ;
#381 = ADVANCED_FACE ( 'NONE', ( #79 ), #346, .F. ) ;
#382 = CIRCLE ( 'NONE', #803, 1.600000000000000755 ) ;
#383 = ORIENTED_EDGE ( 'NONE', *, *, #347, .F. ) ;
#384 = CYLINDRICAL_SURFACE ( 'NONE', #444, 2.999999999999999112 ) ;
#385 = CIRCLE ( 'NONE', #975, 1.600000000000000755 ) ;
#386 = AXIS2_PLACEMENT_3D ( 'NONE', #413, #774, #1135 ) ;
#387 = VECTOR ( 'NONE', #790, 1000.000000000000000 ) ;
#388 = LINE ( 'NONE', #369, #937 ) ;
#389 = CARTESIAN_POINT ( 'NONE',  ( -22.99999999999999645, 0.000000000000000000, 23.99999999999999645 ) ) ;
#390 = EDGE_CURVE ( 'NONE', #998, #1089, #984, .T. ) ;
#391 = ORIENTED_EDGE ( 'NONE', *, *, #286, .F. ) ;
#392 =( LENGTH_UNIT ( ) NAMED_UNIT ( * ) SI_UNIT ( .MILLI., .METRE. ) );
#393 = VERTEX_POINT ( 'NONE', #526 ) ;
#394 = CARTESIAN_POINT ( 'NONE',  ( -11.00000000000001066, 0.000000000000000000, 6.680818862654938961 ) ) ;
#395 = CARTESIAN_POINT ( 'NONE',  ( -5.421010862427522170E-16, 0.000000000000000000, -2.900000000000003464 ) ) ;
#396 = VERTEX_POINT ( 'NONE', #172 ) ;
#397 = DIRECTION ( 'NONE',  ( 0.000000000000000000, 1.000000000000000000, 0.000000000000000000 ) ) ;
#398 = ADVANCED_FACE ( 'NONE', ( #895 ), #342, .F. ) ;
#399 = EDGE_LOOP ( 'NONE', ( #202, #1111, #490, #504 ) ) ;
#400 = DIRECTION ( 'NONE',  ( 0.000000000000000000, 0.000000000000000000, 1.000000000000000000 ) ) ;
#401 = DIRECTION ( 'NONE',  ( -0.000000000000000000, -1.000000000000000000, -0.000000000000000000 ) ) ;
#402 = ORIENTED_EDGE ( 'NONE', *, *, #663, .T. ) ;
#403 = EDGE_CURVE ( 'NONE', #99, #601, #291, .T. ) ;
#404 = PRODUCT_DEFINITION_FORMATION_WITH_SPECIFIED_SOURCE ( 'ä»', '', #488, .NOT_KNOWN. ) ;
#405 = CARTESIAN_POINT ( 'NONE',  ( 13.99999999999998934, 0.000000000000000000, 9.680818862654938073 ) ) ;
#406 = LINE ( 'NONE', #57, #571 ) ;
#407 = AXIS2_PLACEMENT_3D ( 'NONE', #600, #966, #152 ) ;
#408 = ORIENTED_EDGE ( 'NONE', *, *, #1091, .F. ) ;
#409 = DIRECTION ( 'NONE',  ( 1.000000000000000000, 0.000000000000000000, -4.336808689942017736E-16 ) ) ;
#410 = CARTESIAN_POINT ( 'NONE',  ( -11.00000000000000000, 0.000000000000000000, -3.850000000000002753 ) ) ;
#411 = DIRECTION ( 'NONE',  ( 0.000000000000000000, 0.000000000000000000, 1.000000000000000000 ) ) ;
#412 = EDGE_CURVE ( 'NONE', #1124, #223, #593, .T. ) ;
#413 = CARTESIAN_POINT ( 'NONE',  ( -11.00000000000000000, -0.001000000000000132727, -5.000000000000002665 ) ) ;
#414 = CARTESIAN_POINT ( 'NONE',  ( -14.00000000000001066, 3.000000000000000000, 9.680818862654938073 ) ) ;
#415 = ORIENTED_EDGE ( 'NONE', *, *, #186, .T. ) ;
#416 = DIRECTION ( 'NONE',  ( 0.000000000000000000, 1.000000000000000000, 0.000000000000000000 ) ) ;
#417 = DIRECTION ( 'NONE',  ( -0.000000000000000000, 1.000000000000000000, -0.000000000000000000 ) ) ;
#418 = EDGE_CURVE ( 'NONE', #636, #266, #902, .T. ) ;
#419 = ORIENTED_EDGE ( 'NONE', *, *, #334, .F. ) ;
#420 = CALENDAR_DATE ( 2026, 20, 5 ) ;
#421 = EDGE_LOOP ( 'NONE', ( #745, #791, #1130, #196 ) ) ;
#422 = DIRECTION ( 'NONE',  ( 0.000000000000000000, -1.000000000000000000, 0.000000000000000000 ) ) ;
#423 = CIRCLE ( 'NONE', #933, 4.100000000000000533 ) ;
#424 = LINE ( 'NONE', #233, #727 ) ;
#425 = VECTOR ( 'NONE', #503, 1000.000000000000000 ) ;
#426 = AXIS2_PLACEMENT_3D ( 'NONE', #821, #11, #734 ) ;
#427 = VECTOR ( 'NONE', #260, 1000.000000000000000 ) ;
#428 = AXIS2_PLACEMENT_3D ( 'NONE', #132, #326, #127 ) ;
#429 = APPROVAL_DATE_TIME ( #710, #1058 ) ;
#430 = ADVANCED_FACE ( 'NONE', ( #697 ), #1061, .F. ) ;
#431 = ORIENTED_EDGE ( 'NONE', *, *, #1153, .F. ) ;
#432 = DIRECTION ( 'NONE',  ( 0.000000000000000000, 0.000000000000000000, 1.000000000000000000 ) ) ;
#433 = DIRECTION ( 'NONE',  ( 0.000000000000000000, -0.000000000000000000, 1.000000000000000000 ) ) ;
#434 = APPROVAL_STATUS ( 'not_yet_approved' ) ;
#435 = ORIENTED_EDGE ( 'NONE', *, *, #412, .F. ) ;
#436 = EDGE_CURVE ( 'NONE', #466, #31, #388, .T. ) ;
#437 = LINE ( 'NONE', #345, #956 ) ;
#438 = CARTESIAN_POINT ( 'NONE',  ( -23.00000000000000355, 3.000000000000000000, -8.000000000000003553 ) ) ;
#439 = COORDINATED_UNIVERSAL_TIME_OFFSET ( 8, 0, .AHEAD. ) ;
#440 = EDGE_LOOP ( 'NONE', ( #679, #33, #945, #61 ) ) ;
#441 = CARTESIAN_POINT ( 'NONE',  ( -11.00000000000001066, 0.000000000000000000, 15.68081886265493985 ) ) ;
#442 = LINE ( 'NONE', #453, #534 ) ;
#443 = EDGE_LOOP ( 'NONE', ( #208, #69, #18, #716, #859, #508, #988, #1039 ) ) ;
#444 = AXIS2_PLACEMENT_3D ( 'NONE', #1090, #95, #278 ) ;
#445 = PERSON_AND_ORGANIZATION_ROLE ( 'creator' ) ;
#446 = VECTOR ( 'NONE', #525, 1000.000000000000000 ) ;
#447 = VERTEX_POINT ( 'NONE', #184 ) ;
#448 = DIRECTION ( 'NONE',  ( -0.000000000000000000, -1.000000000000000000, -0.000000000000000000 ) ) ;
#449 = DIRECTION ( 'NONE',  ( 0.000000000000000000, -1.000000000000000000, 0.000000000000000000 ) ) ;
#450 = EDGE_LOOP ( 'NONE', ( #169, #590, #130, #359 ) ) ;
#451 = ORIENTED_EDGE ( 'NONE', *, *, #816, .T. ) ;
#452 = CARTESIAN_POINT ( 'NONE',  ( -2.849252584218080706E-16, 0.000000000000000000, -7.100000000000004086 ) ) ;
#453 = CARTESIAN_POINT ( 'NONE',  ( -19.99999999999998934, 0.000000000000000000, 23.99999999999999645 ) ) ;
#454 = ORIENTED_EDGE ( 'NONE', *, *, #943, .T. ) ;
#455 = EDGE_CURVE ( 'NONE', #50, #1126, #67, .T. ) ;
#456 = ORIENTED_EDGE ( 'NONE', *, *, #418, .T. ) ;
#457 = DIRECTION ( 'NONE',  ( 0.000000000000000000, 0.000000000000000000, 1.000000000000000000 ) ) ;
#458 = LINE ( 'NONE', #308, #729 ) ;
#459 = CARTESIAN_POINT ( 'NONE',  ( 14.99999999999998934, 0.000000000000000000, -4.100000000000000533 ) ) ;
#460 = ORIENTED_EDGE ( 'NONE', *, *, #773, .F. ) ;
#461 = VECTOR ( 'NONE', #766, 1000.000000000000000 ) ;
#462 = CYLINDRICAL_SURFACE ( 'NONE', #1049, 1.149999999999999911 ) ;
#463 = EDGE_CURVE ( 'NONE', #50, #711, #733, .T. ) ;
#464 = DIRECTION ( 'NONE',  ( -2.891205793294678326E-16, 0.000000000000000000, -1.000000000000000000 ) ) ;
#465 = DIRECTION ( 'NONE',  ( -0.000000000000000000, 1.000000000000000000, -0.000000000000000000 ) ) ;
#466 = VERTEX_POINT ( 'NONE', #473 ) ;
#467 = CARTESIAN_POINT ( 'NONE',  ( -18.99999999999999645, -0.001000000000000132727, 16.39999999999999503 ) ) ;
#468 = EDGE_CURVE ( 'NONE', #282, #561, #633, .T. ) ;
#469 = DIRECTION ( 'NONE',  ( -0.000000000000000000, -1.000000000000000000, -0.000000000000000000 ) ) ;
#470 = CARTESIAN_POINT ( 'NONE',  ( 10.99999999999999645, 3.000000000000000000, -6.150000000000007461 ) ) ;
#471 = ORIENTED_EDGE ( 'NONE', *, *, #164, .T. ) ;
#472 = DIRECTION ( 'NONE',  ( -0.000000000000000000, 1.000000000000000000, -0.000000000000000000 ) ) ;
#473 = CARTESIAN_POINT ( 'NONE',  ( 10.99999999999999645, 0.000000000000000000, -6.150000000000007461 ) ) ;
#474 = ADVANCED_FACE ( 'NONE', ( #638 ), #819, .F. ) ;
#475 = DIRECTION ( 'NONE',  ( -0.000000000000000000, 0.000000000000000000, 1.000000000000000000 ) ) ;
#476 = ADVANCED_FACE ( 'NONE', ( #96 ), #741, .F. ) ;
#477 = VECTOR ( 'NONE', #844, 1000.000000000000000 ) ;
#478 = ORIENTED_EDGE ( 'NONE', *, *, #634, .T. ) ;
#479 = CARTESIAN_POINT ( 'NONE',  ( 10.99999999999999289, -4.235164736271501695E-19, 18.68081886265493807 ) ) ;
#480 = CARTESIAN_POINT ( 'NONE',  ( -14.00000000000000888, 0.000000000000000000, 15.68081886265493985 ) ) ;
#481 = VECTOR ( 'NONE', #586, 1000.000000000000000 ) ;
#482 = PLANE ( 'NONE',  #993 ) ;
#483 = ADVANCED_FACE ( 'NONE', ( #912 ), #20, .F. ) ;
#484 = VERTEX_POINT ( 'NONE', #16 ) ;
#485 = ORIENTED_EDGE ( 'NONE', *, *, #634, .F. ) ;
#486 = LINE ( 'NONE', #394, #481 ) ;
#487 = CARTESIAN_POINT ( 'NONE',  ( 13.99999999999998934, 0.000000000000000000, 6.680818862654938961 ) ) ;
#488 = PRODUCT ( '\X2\644450cf5934\X0\_\X2\652f67b6\X0\_\X2\5e955ea7\X0\', '\X2\644450cf5934\X0\_\X2\652f67b6\X0\_\X2\5e955ea7\X0\', '', ( #333 ) ) ;
#489 = ORIENTED_EDGE ( 'NONE', *, *, #757, .F. ) ;
#490 = ORIENTED_EDGE ( 'NONE', *, *, #512, .F. ) ;
#491 = CARTESIAN_POINT ( 'NONE',  ( -14.00000000000000888, 3.000000000000000000, 18.68081886265493807 ) ) ;
#492 = CYLINDRICAL_SURFACE ( 'NONE', #784, 4.100000000000000533 ) ;
#493 = ORIENTED_EDGE ( 'NONE', *, *, #715, .F. ) ;
#494 = DIRECTION ( 'NONE',  ( 0.000000000000000000, 0.000000000000000000, 1.000000000000000000 ) ) ;
#495 = ORIENTED_EDGE ( 'NONE', *, *, #640, .T. ) ;
#496 = CIRCLE ( 'NONE', #549, 1.149999999999999911 ) ;
#497 = ADVANCED_FACE ( 'NONE', ( #374 ), #658, .F. ) ;
#498 = DIRECTION ( 'NONE',  ( -0.000000000000000000, 1.000000000000000000, -0.000000000000000000 ) ) ;
#499 = AXIS2_PLACEMENT_3D ( 'NONE', #952, #1030, #500 ) ;
#500 = DIRECTION ( 'NONE',  ( 0.000000000000000000, 0.000000000000000000, 1.000000000000000000 ) ) ;
#501 = AXIS2_PLACEMENT_3D ( 'NONE', #310, #417, #683 ) ;
#502 = DIRECTION ( 'NONE',  ( 0.000000000000000000, 1.000000000000000000, 0.000000000000000000 ) ) ;
#503 = DIRECTION ( 'NONE',  ( -1.000000000000000000, 0.000000000000000000, -0.000000000000000000 ) ) ;
#504 = ORIENTED_EDGE ( 'NONE', *, *, #203, .F. ) ;
#505 = CARTESIAN_POINT ( 'NONE',  ( 18.99999999999999289, 0.000000000000000000, 17.99999999999999645 ) ) ;
#506 = EDGE_CURVE ( 'NONE', #31, #72, #273, .T. ) ;
#507 = FACE_OUTER_BOUND ( 'NONE', #720, .T. ) ;
#508 = ORIENTED_EDGE ( 'NONE', *, *, #722, .T. ) ;
#509 = VERTEX_POINT ( 'NONE', #555 ) ;
#510 = CARTESIAN_POINT ( 'NONE',  ( -11.00000000000000000, -0.001000000000000132727, -6.150000000000003020 ) ) ;
#511 = CARTESIAN_POINT ( 'NONE',  ( -22.99999999999998934, 3.000000000000000000, 20.99999999999999645 ) ) ;
#512 = EDGE_CURVE ( 'NONE', #864, #354, #939, .T. ) ;
#513 = PERSON_AND_ORGANIZATION ( #769, #820 ) ;
#514 = ORIENTED_EDGE ( 'NONE', *, *, #678, .F. ) ;
#515 = PLANE ( 'NONE',  #897 ) ;
#516 = AXIS2_PLACEMENT_3D ( 'NONE', #505, #764, #1115 ) ;
#517 = PLANE ( 'NONE',  #649 ) ;
#518 = AXIS2_PLACEMENT_3D ( 'NONE', #662, #409, #762 ) ;
#519 = EDGE_CURVE ( 'NONE', #41, #985, #423, .T. ) ;
#520 = EDGE_LOOP ( 'NONE', ( #642, #853 ) ) ;
#521 = DIRECTION ( 'NONE',  ( 0.000000000000000000, -0.000000000000000000, 1.000000000000000000 ) ) ;
#522 = DIRECTION ( 'NONE',  ( 0.000000000000000000, 0.000000000000000000, 1.000000000000000000 ) ) ;
#523 = PERSON_AND_ORGANIZATION_ROLE ( 'design_owner' ) ;
#524 = ORIENTED_EDGE ( 'NONE', *, *, #673, .F. ) ;
#525 = DIRECTION ( 'NONE',  ( 1.445602896647339163E-16, 0.000000000000000000, 1.000000000000000000 ) ) ;
#526 = CARTESIAN_POINT ( 'NONE',  ( -11.00000000000000000, 3.000000000000000000, -3.850000000000002753 ) ) ;
#527 = ORIENTED_EDGE ( 'NONE', *, *, #78, .T. ) ;
#528 = APPROVAL_ROLE ( '' ) ;
#529 = ORIENTED_EDGE ( 'NONE', *, *, #203, .T. ) ;
#530 = CARTESIAN_POINT ( 'NONE',  ( 0.000000000000000000, 0.000000000000000000, 0.000000000000000000 ) ) ;
#531 = FACE_BOUND ( 'NONE', #366, .T. ) ;
#532 = CIRCLE ( 'NONE', #64, 4.100000000000000533 ) ;
#533 = VERTEX_POINT ( 'NONE', #379 ) ;
#534 = VECTOR ( 'NONE', #979, 1000.000000000000000 ) ;
#535 = AXIS2_PLACEMENT_3D ( 'NONE', #441, #797, #1163 ) ;
#536 = ORIENTED_EDGE ( 'NONE', *, *, #164, .F. ) ;
#537 = DIRECTION ( 'NONE',  ( 0.000000000000000000, 0.000000000000000000, 1.000000000000000000 ) ) ;
#538 = CARTESIAN_POINT ( 'NONE',  ( -22.99999999999998934, 0.000000000000000000, 20.99999999999999645 ) ) ;
#539 = EDGE_CURVE ( 'NONE', #266, #579, #1017, .T. ) ;
#540 = ORIENTED_EDGE ( 'NONE', *, *, #802, .T. ) ;
#541 = ORIENTED_EDGE ( 'NONE', *, *, #657, .F. ) ;
#542 = CARTESIAN_POINT ( 'NONE',  ( -20.00000000000000355, 3.000000000000000000, -8.000000000000003553 ) ) ;
#543 = DIRECTION ( 'NONE',  ( 0.000000000000000000, 0.000000000000000000, 1.000000000000000000 ) ) ;
#544 = CARTESIAN_POINT ( 'NONE',  ( -14.00000000000000888, -0.001000000000000132727, 18.68081886265493807 ) ) ;
#545 = ORIENTED_EDGE ( 'NONE', *, *, #617, .T. ) ;
#546 = LINE ( 'NONE', #911, #726 ) ;
#547 = DIRECTION ( 'NONE',  ( 0.000000000000000000, 0.000000000000000000, 1.000000000000000000 ) ) ;
#548 = DIRECTION ( 'NONE',  ( 1.000000000000000000, 0.000000000000000000, 0.000000000000000000 ) ) ;
#549 = AXIS2_PLACEMENT_3D ( 'NONE', #351, #970, #986 ) ;
#550 = AXIS2_PLACEMENT_3D ( 'NONE', #190, #285, #1025 ) ;
#551 = EDGE_CURVE ( 'NONE', #22, #533, #626, .T. ) ;
#552 = EDGE_LOOP ( 'NONE', ( #927, #608 ) ) ;
#553 = VECTOR ( 'NONE', #214, 1000.000000000000000 ) ;
#554 = CARTESIAN_POINT ( 'NONE',  ( -5.421010862427522170E-16, -0.001000000000000132727, -2.900000000000003464 ) ) ;
#555 = CARTESIAN_POINT ( 'NONE',  ( -23.00000000000000355, 0.000000000000000000, -5.000000000000002665 ) ) ;
#556 = LINE ( 'NONE', #389, #290 ) ;
#557 = ORIENTED_EDGE ( 'NONE', *, *, #87, .T. ) ;
#558 = CARTESIAN_POINT ( 'NONE',  ( 14.99999999999998934, 3.000000000000000000, -4.100000000000000533 ) ) ;
#559 = DIRECTION ( 'NONE',  ( 0.000000000000000000, 0.000000000000000000, 1.000000000000000000 ) ) ;
#560 = CARTESIAN_POINT ( 'NONE',  ( -19.99999999999998934, 3.000000000000000000, 20.99999999999999645 ) ) ;
#561 = VERTEX_POINT ( 'NONE', #480 ) ;
#562 = ORIENTED_EDGE ( 'NONE', *, *, #811, .T. ) ;
#563 = CARTESIAN_POINT ( 'NONE',  ( 13.99999999999998934, -0.001000000000000132727, 6.680818862654938961 ) ) ;
#564 = EDGE_CURVE ( 'NONE', #1022, #72, #298, .T. ) ;
#565 = DIRECTION ( 'NONE',  ( 0.000000000000000000, 0.000000000000000000, 1.000000000000000000 ) ) ;
#566 = AXIS2_PLACEMENT_3D ( 'NONE', #563, #1101, #464 ) ;
#567 = ORIENTED_EDGE ( 'NONE', *, *, #1082, .T. ) ;
#568 = DIRECTION ( 'NONE',  ( 0.000000000000000000, -1.000000000000000000, 0.000000000000000000 ) ) ;
#569 =( GEOMETRIC_REPRESENTATION_CONTEXT ( 3 ) GLOBAL_UNCERTAINTY_ASSIGNED_CONTEXT ( ( #659 ) ) GLOBAL_UNIT_ASSIGNED_CONTEXT ( ( #392, #954, #578 ) ) REPRESENTATION_CONTEXT ( 'NONE', 'WORKASPACE' ) );
#570 = AXIS2_PLACEMENT_3D ( 'NONE', #299, #921, #21 ) ;
#571 = VECTOR ( 'NONE', #1133, 1000.000000000000000 ) ;
#572 = DIRECTION ( 'NONE',  ( 0.000000000000000000, 0.000000000000000000, 1.000000000000000000 ) ) ;
#573 = CIRCLE ( 'NONE', #235, 4.100000000000000533 ) ;
#574 = CARTESIAN_POINT ( 'NONE',  ( 22.99999999999999645, 0.000000000000000000, 20.99999999999999645 ) ) ;
#575 = EDGE_CURVE ( 'NONE', #953, #756, #532, .T. ) ;
#576 = SECURITY_CLASSIFICATION ( '', '', #779 ) ;
#577 = ORIENTED_EDGE ( 'NONE', *, *, #872, .T. ) ;
#578 =( NAMED_UNIT ( * ) SI_UNIT ( $, .STERADIAN. ) SOLID_ANGLE_UNIT ( ) );
#579 = VERTEX_POINT ( 'NONE', #907 ) ;
#580 = DIRECTION ( 'NONE',  ( -0.000000000000000000, -1.000000000000000000, -0.000000000000000000 ) ) ;
#581 = CARTESIAN_POINT ( 'NONE',  ( 14.99999999999998934, -0.001000000000000132727, -7.703719777548943412E-31 ) ) ;
#582 = EDGE_CURVE ( 'NONE', #1063, #80, #458, .T. ) ;
#583 = ORIENTED_EDGE ( 'NONE', *, *, #1091, .T. ) ;
#584 = DIRECTION ( 'NONE',  ( 0.000000000000000000, 1.000000000000000000, 0.000000000000000000 ) ) ;
#585 = ORIENTED_EDGE ( 'NONE', *, *, #858, .T. ) ;
#586 = DIRECTION ( 'NONE',  ( 0.000000000000000000, -1.000000000000000000, -0.000000000000000000 ) ) ;
#587 = DIRECTION ( 'NONE',  ( -0.000000000000000000, -1.000000000000000000, -0.000000000000000000 ) ) ;
#588 = ORIENTED_EDGE ( 'NONE', *, *, #1134, .T. ) ;
#589 = EDGE_CURVE ( 'NONE', #296, #282, #116, .T. ) ;
#590 = ORIENTED_EDGE ( 'NONE', *, *, #973, .T. ) ;
#591 = VECTOR ( 'NONE', #1008, 1000.000000000000000 ) ;
#592 = DIRECTION ( 'NONE',  ( 0.000000000000000000, 1.000000000000000000, 0.000000000000000000 ) ) ;
#593 = CIRCLE ( 'NONE', #83, 1.600000000000000755 ) ;
#594 = DIRECTION ( 'NONE',  ( 0.000000000000000000, 0.000000000000000000, 1.000000000000000000 ) ) ;
#595 = CIRCLE ( 'NONE', #1031, 2.100000000000000089 ) ;
#596 = ORIENTED_EDGE ( 'NONE', *, *, #663, .F. ) ;
#597 = CALENDAR_DATE ( 2026, 20, 5 ) ;
#598 = ORIENTED_EDGE ( 'NONE', *, *, #589, .T. ) ;
#599 = CARTESIAN_POINT ( 'NONE',  ( -19.99999999999998934, 3.000000000000000000, 23.99999999999999645 ) ) ;
#600 = CARTESIAN_POINT ( 'NONE',  ( 18.99999999999999289, -0.001000000000000132727, 17.99999999999999645 ) ) ;
#601 = VERTEX_POINT ( 'NONE', #758 ) ;
#602 = PERSON_AND_ORGANIZATION ( #769, #820 ) ;
#603 = ORIENTED_EDGE ( 'NONE', *, *, #904, .F. ) ;
#604 = CARTESIAN_POINT ( 'NONE',  ( -15.00000000000000000, -0.001000000000000132727, 4.100000000000000533 ) ) ;
#605 = LINE ( 'NONE', #438, #387 ) ;
#606 = EDGE_CURVE ( 'NONE', #296, #885, #1028, .T. ) ;
#607 = APPROVAL_ROLE ( '' ) ;
#608 = ORIENTED_EDGE ( 'NONE', *, *, #506, .F. ) ;
#609 = FACE_BOUND ( 'NONE', #770, .T. ) ;
#610 = CARTESIAN_POINT ( 'NONE',  ( -11.00000000000001066, -0.001000000000000132727, 15.68081886265493985 ) ) ;
#611 = CLOSED_SHELL ( 'NONE', ( #893, #1029, #375, #222, #958, #474, #245, #497, #1140, #1098, #309, #765, #111, #381, #58, #274, #924, #1051, #476, #15, #483, #30, #36, #430, #980, #93, #136, #1113, #1066, #256, #398, #793 ) ) ;
#612 = CIRCLE ( 'NONE', #102, 2.100000000000000089 ) ;
#613 = EDGE_LOOP ( 'NONE', ( #277, #210 ) ) ;
#614 = CYLINDRICAL_SURFACE ( 'NONE', #839, 3.000000000000000000 ) ;
#615 = DIRECTION ( 'NONE',  ( -0.000000000000000000, 1.000000000000000000, -0.000000000000000000 ) ) ;
#616 = DATE_TIME_ROLE ( 'classification_date' ) ;
#617 = EDGE_CURVE ( 'NONE', #80, #266, #327, .T. ) ;
#618 = EDGE_LOOP ( 'NONE', ( #1107, #529, #478, #944 ) ) ;
#619 = FACE_BOUND ( 'NONE', #613, .T. ) ;
#620 = DIRECTION ( 'NONE',  ( 0.000000000000000000, -1.000000000000000000, -0.000000000000000000 ) ) ;
#621 = FACE_OUTER_BOUND ( 'NONE', #324, .T. ) ;
#622 = VERTEX_POINT ( 'NONE', #410 ) ;
#623 = EDGE_CURVE ( 'NONE', #601, #41, #39, .T. ) ;
#624 = DIRECTION ( 'NONE',  ( -0.000000000000000000, -1.000000000000000000, -0.000000000000000000 ) ) ;
#625 = CARTESIAN_POINT ( 'NONE',  ( 18.99999999999999289, 0.000000000000000000, 17.99999999999999645 ) ) ;
#626 = CIRCLE ( 'NONE', #842, 2.999999999999999112 ) ;
#627 = ORIENTED_EDGE ( 'NONE', *, *, #170, .T. ) ;
#628 = CIRCLE ( 'NONE', #289, 1.600000000000000755 ) ;
#629 = AXIS2_PLACEMENT_3D ( 'NONE', #738, #475, #1005 ) ;
#630 = VECTOR ( 'NONE', #498, 1000.000000000000000 ) ;
#631 = ORIENTED_EDGE ( 'NONE', *, *, #153, .F. ) ;
#632 = DIRECTION ( 'NONE',  ( -0.000000000000000000, -1.000000000000000000, -0.000000000000000000 ) ) ;
#633 = LINE ( 'NONE', #194, #874 ) ;
#634 = EDGE_CURVE ( 'NONE', #864, #869, #220, .T. ) ;
#635 = ORIENTED_EDGE ( 'NONE', *, *, #965, .F. ) ;
#636 = VERTEX_POINT ( 'NONE', #321 ) ;
#637 = DIRECTION ( 'NONE',  ( -0.000000000000000000, 1.000000000000000000, -0.000000000000000000 ) ) ;
#638 = FACE_OUTER_BOUND ( 'NONE', #997, .T. ) ;
#639 = CARTESIAN_POINT ( 'NONE',  ( 20.00000000000000000, 3.000000000000000000, 23.99999999999999645 ) ) ;
#640 = EDGE_CURVE ( 'NONE', #561, #533, #964, .T. ) ;
#641 = APPLICATION_CONTEXT ( 'configuration controlled 3d designs of mechanical parts and assemblies' ) ;
#642 = ORIENTED_EDGE ( 'NONE', *, *, #129, .F. ) ;
#643 = LINE ( 'NONE', #467, #743 ) ;
#644 = CARTESIAN_POINT ( 'NONE',  ( 10.99999999999999645, 3.000000000000000000, -5.000000000000007105 ) ) ;
#645 = DIRECTION ( 'NONE',  ( 1.000000000000000000, 0.000000000000000000, 0.000000000000000000 ) ) ;
#646 = APPROVAL ( #434, 'æœª' ) ;
#647 = AXIS2_PLACEMENT_3D ( 'NONE', #264, #624, #1060 ) ;
#648 = CIRCLE ( 'NONE', #1032, 4.100000000000000533 ) ;
#649 = AXIS2_PLACEMENT_3D ( 'NONE', #879, #883, #433 ) ;
#650 = ORIENTED_EDGE ( 'NONE', *, *, #582, .F. ) ;
#651 = VECTOR ( 'NONE', #1127, 1000.000000000000000 ) ;
#652 = DIRECTION ( 'NONE',  ( 0.000000000000000000, 0.000000000000000000, 1.000000000000000000 ) ) ;
#653 = CARTESIAN_POINT ( 'NONE',  ( 10.99999999999999112, 3.000000000000000000, 9.680818862654938073 ) ) ;
#654 = PLANE ( 'NONE',  #629 ) ;
#655 = EDGE_LOOP ( 'NONE', ( #596, #603 ) ) ;
#656 = DIRECTION ( 'NONE',  ( -0.000000000000000000, 1.000000000000000000, -0.000000000000000000 ) ) ;
#657 = EDGE_CURVE ( 'NONE', #767, #344, #786, .T. ) ;
#658 = PLANE ( 'NONE',  #1147 ) ;
#659 = UNCERTAINTY_MEASURE_WITH_UNIT (LENGTH_MEASURE( 1.000000000000000082E-05 ), #392, 'distance_accuracy_value', 'NONE');
#660 = CARTESIAN_POINT ( 'NONE',  ( -11.00000000000000000, 0.000000000000000000, -5.000000000000002665 ) ) ;
#661 = ORIENTED_EDGE ( 'NONE', *, *, #121, .F. ) ;
#662 = CARTESIAN_POINT ( 'NONE',  ( -23.00000000000000355, 3.000000000000000000, -8.000000000000003553 ) ) ;
#663 = EDGE_CURVE ( 'NONE', #1022, #466, #363, .T. ) ;
#664 = CARTESIAN_POINT ( 'NONE',  ( -23.00000000000000355, 3.000000000000000000, -5.000000000000002665 ) ) ;
#665 = CYLINDRICAL_SURFACE ( 'NONE', #426, 3.000000000000000000 ) ;
#666 = CIRCLE ( 'NONE', #142, 1.149999999999999911 ) ;
#667 = ORIENTED_EDGE ( 'NONE', *, *, #436, .T. ) ;
#668 = CARTESIAN_POINT ( 'NONE',  ( -11.00000000000000000, -0.001000000000000132727, -3.850000000000002753 ) ) ;
#669 = AXIS2_PLACEMENT_3D ( 'NONE', #928, #163, #1144 ) ;
#670 = ORIENTED_EDGE ( 'NONE', *, *, #43, .T. ) ;
#671 = DIRECTION ( 'NONE',  ( -0.000000000000000000, 1.000000000000000000, -0.000000000000000000 ) ) ;
#672 = CARTESIAN_POINT ( 'NONE',  ( -18.99999999999999645, 0.000000000000000000, 17.99999999999999645 ) ) ;
#673 = EDGE_CURVE ( 'NONE', #869, #22, #486, .T. ) ;
#674 = ORIENTED_EDGE ( 'NONE', *, *, #1134, .F. ) ;
#675 = CARTESIAN_POINT ( 'NONE',  ( -18.99999999999999645, 3.000000000000000000, 17.99999999999999645 ) ) ;
#676 = CARTESIAN_POINT ( 'NONE',  ( 19.99999999999999289, 3.000000000000000000, -5.000000000000003553 ) ) ;
#677 = FACE_OUTER_BOUND ( 'NONE', #88, .T. ) ;
#678 = EDGE_CURVE ( 'NONE', #856, #50, #854, .T. ) ;
#679 = ORIENTED_EDGE ( 'NONE', *, *, #129, .T. ) ;
#680 = CARTESIAN_POINT ( 'NONE',  ( -23.00000000000000355, 3.000000000000000000, -8.000000000000003553 ) ) ;
#681 = EDGE_LOOP ( 'NONE', ( #903, #187 ) ) ;
#682 = DIRECTION ( 'NONE',  ( -1.445602896647339163E-16, 0.000000000000000000, -1.000000000000000000 ) ) ;
#683 = DIRECTION ( 'NONE',  ( 0.000000000000000000, 0.000000000000000000, 1.000000000000000000 ) ) ;
#684 = ORIENTED_EDGE ( 'NONE', *, *, #872, .F. ) ;
#685 = AXIS2_PLACEMENT_3D ( 'NONE', #44, #1132, #951 ) ;
#686 = EDGE_CURVE ( 'NONE', #985, #41, #573, .T. ) ;
#687 = VERTEX_POINT ( 'NONE', #405 ) ;
#688 = VECTOR ( 'NONE', #48, 1000.000000000000000 ) ;
#689 = DIRECTION ( 'NONE',  ( -0.000000000000000000, -1.000000000000000000, -0.000000000000000000 ) ) ;
#690 = AXIS2_PLACEMENT_3D ( 'NONE', #1092, #101, #1086 ) ;
#691 = DIRECTION ( 'NONE',  ( -0.000000000000000000, -1.000000000000000000, -0.000000000000000000 ) ) ;
#692 = AXIS2_PLACEMENT_3D ( 'NONE', #51, #580, #1046 ) ;
#693 = ORIENTED_EDGE ( 'NONE', *, *, #252, .F. ) ;
#694 = ORIENTED_EDGE ( 'NONE', *, *, #617, .F. ) ;
#695 = EDGE_CURVE ( 'NONE', #484, #1089, #595, .T. ) ;
#696 = FACE_OUTER_BOUND ( 'NONE', #148, .T. ) ;
#697 = FACE_OUTER_BOUND ( 'NONE', #618, .T. ) ;
#698 = DATE_AND_TIME ( #339, #918 ) ;
#699 = ORIENTED_EDGE ( 'NONE', *, *, #606, .F. ) ;
#700 = FACE_BOUND ( 'NONE', #655, .T. ) ;
#701 = APPROVAL ( #1062, 'æœª' ) ;
#702 = DIRECTION ( 'NONE',  ( -0.000000000000000000, 1.000000000000000000, -0.000000000000000000 ) ) ;
#703 = APPLICATION_CONTEXT ( 'configuration controlled 3d designs of mechanical parts and assemblies' ) ;
#704 = ORIENTED_EDGE ( 'NONE', *, *, #295, .F. ) ;
#705 = DIRECTION ( 'NONE',  ( 4.336808689942017736E-16, 0.000000000000000000, 1.000000000000000000 ) ) ;
#706 = CIRCLE ( 'NONE', #992, 1.149999999999999911 ) ;
#707 = FACE_OUTER_BOUND ( 'NONE', #443, .T. ) ;
#708 = VECTOR ( 'NONE', #620, 1000.000000000000000 ) ;
#709 = EDGE_CURVE ( 'NONE', #340, #1080, #178, .T. ) ;
#710 = DATE_AND_TIME ( #1057, #760 ) ;
#711 = VERTEX_POINT ( 'NONE', #599 ) ;
#712 = CARTESIAN_POINT ( 'NONE',  ( 10.99999999999999112, 3.000000000000000000, 6.680818862654938961 ) ) ;
#713 = CARTESIAN_POINT ( 'NONE',  ( -11.00000000000001066, 3.000000000000000000, 18.68081886265493807 ) ) ;
#714 = FACE_OUTER_BOUND ( 'NONE', #325, .T. ) ;
#715 = EDGE_CURVE ( 'NONE', #223, #1124, #1139, .T. ) ;
#716 = ORIENTED_EDGE ( 'NONE', *, *, #455, .T. ) ;
#717 = CARTESIAN_POINT ( 'NONE',  ( 10.99999999999999289, 0.000000000000000000, 18.68081886265493807 ) ) ;
#718 = FACE_BOUND ( 'NONE', #730, .T. ) ;
#719 = EDGE_LOOP ( 'NONE', ( #1170, #577, #82, #881 ) ) ;
#720 = EDGE_LOOP ( 'NONE', ( #1001, #228, #471, #241 ) ) ;
#721 = CARTESIAN_POINT ( 'NONE',  ( -15.00000000000000000, -0.001000000000000132727, -4.100000000000000533 ) ) ;
#722 = EDGE_CURVE ( 'NONE', #579, #1063, #892, .T. ) ;
#723 = CARTESIAN_POINT ( 'NONE',  ( -15.00000000000000000, 0.000000000000000000, 0.000000000000000000 ) ) ;
#724 = VECTOR ( 'NONE', #671, 1000.000000000000000 ) ;
#725 = ORIENTED_EDGE ( 'NONE', *, *, #1129, .T. ) ;
#726 = VECTOR ( 'NONE', #830, 1000.000000000000000 ) ;
#727 = VECTOR ( 'NONE', #1128, 1000.000000000000000 ) ;
#728 = AXIS2_PLACEMENT_3D ( 'NONE', #292, #827, #836 ) ;
#729 = VECTOR ( 'NONE', #1054, 1000.000000000000000 ) ;
#730 = EDGE_LOOP ( 'NONE', ( #165, #225 ) ) ;
#731 = DIRECTION ( 'NONE',  ( 0.000000000000000000, 0.000000000000000000, 1.000000000000000000 ) ) ;
#732 = EDGE_CURVE ( 'NONE', #447, #37, #1137, .T. ) ;
#733 = LINE ( 'NONE', #25, #267 ) ;
#734 = DIRECTION ( 'NONE',  ( 0.000000000000000000, 0.000000000000000000, -1.000000000000000000 ) ) ;
#735 = ORIENTED_EDGE ( 'NONE', *, *, #606, .T. ) ;
#736 = CARTESIAN_POINT ( 'NONE',  ( -5.421010862427522170E-16, -0.001000000000000132727, -5.000000000000003553 ) ) ;
#737 = DIRECTION ( 'NONE',  ( -1.000000000000000000, 0.000000000000000000, 2.168404344971008868E-16 ) ) ;
#738 = CARTESIAN_POINT ( 'NONE',  ( 0.000000000000000000, 0.000000000000000000, 23.99999999999999645 ) ) ;
#739 = ORIENTED_EDGE ( 'NONE', *, *, #1020, .T. ) ;
#740 = CARTESIAN_POINT ( 'NONE',  ( -18.99999999999999645, 0.000000000000000000, 17.99999999999999645 ) ) ;
#741 = CYLINDRICAL_SURFACE ( 'NONE', #158, 1.149999999999999911 ) ;
#742 = DIRECTION ( 'NONE',  ( 0.000000000000000000, 1.000000000000000000, 0.000000000000000000 ) ) ;
#743 = VECTOR ( 'NONE', #105, 1000.000000000000000 ) ;
#744 = CIRCLE ( 'NONE', #1013, 4.100000000000000533 ) ;
#745 = ORIENTED_EDGE ( 'NONE', *, *, #852, .F. ) ;
#746 = VECTOR ( 'NONE', #865, 1000.000000000000000 ) ;
#747 = CARTESIAN_POINT ( 'NONE',  ( 10.99999999999999645, 0.000000000000000000, -3.850000000000007194 ) ) ;
#748 = DIRECTION ( 'NONE',  ( 0.000000000000000000, 1.000000000000000000, -0.000000000000000000 ) ) ;
#749 = FACE_OUTER_BOUND ( 'NONE', #104, .T. ) ;
#750 = EDGE_CURVE ( 'NONE', #1152, #869, #7, .T. ) ;
#751 = VERTEX_POINT ( 'NONE', #302 ) ;
#752 = ORIENTED_EDGE ( 'NONE', *, *, #551, .T. ) ;
#753 = DIRECTION ( 'NONE',  ( 1.000000000000000000, 0.000000000000000000, 0.000000000000000000 ) ) ;
#754 = DIRECTION ( 'NONE',  ( -0.000000000000000000, -1.000000000000000000, -0.000000000000000000 ) ) ;
#755 = VERTEX_POINT ( 'NONE', #664 ) ;
#756 = VERTEX_POINT ( 'NONE', #941 ) ;
#757 = EDGE_CURVE ( 'NONE', #622, #447, #666, .T. ) ;
#758 = CARTESIAN_POINT ( 'NONE',  ( 14.99999999999998934, 0.000000000000000000, 4.100000000000000533 ) ) ;
#759 = DIRECTION ( 'NONE',  ( 0.000000000000000000, 0.000000000000000000, 1.000000000000000000 ) ) ;
#760 = LOCAL_TIME ( 3, 7, 7.000000000000000000, #168 ) ;
#761 = ORIENTED_EDGE ( 'NONE', *, *, #838, .F. ) ;
#762 = DIRECTION ( 'NONE',  ( -4.336808689942017736E-16, 0.000000000000000000, -1.000000000000000000 ) ) ;
#763 = CIRCLE ( 'NONE', #499, 2.999999999999999112 ) ;
#764 = DIRECTION ( 'NONE',  ( -0.000000000000000000, -1.000000000000000000, -0.000000000000000000 ) ) ;
#765 = ADVANCED_FACE ( 'NONE', ( #1168, #609, #700, #1074, #619, #254, #156, #1064, #696 ), #515, .F. ) ;
#766 = DIRECTION ( 'NONE',  ( -1.000000000000000000, -0.000000000000000000, -0.000000000000000000 ) ) ;
#767 = VERTEX_POINT ( 'NONE', #717 ) ;
#768 = FACE_OUTER_BOUND ( 'NONE', #900, .T. ) ;
#769 = PERSON ( 'æœª', 'æœª', 'æœª', ('æœª'), ('æœª'), ('æœª') ) ;
#770 = EDGE_LOOP ( 'NONE', ( #489, #661 ) ) ;
#771 = CARTESIAN_POINT ( 'NONE',  ( -5.421010862427522170E-16, 3.000000000000000000, -5.000000000000003553 ) ) ;
#772 = CARTESIAN_POINT ( 'NONE',  ( 19.99999999999999645, 0.000000000000000000, 20.99999999999999645 ) ) ;
#773 = EDGE_CURVE ( 'NONE', #13, #1157, #382, .T. ) ;
#774 = DIRECTION ( 'NONE',  ( -0.000000000000000000, 1.000000000000000000, -0.000000000000000000 ) ) ;
#775 = CARTESIAN_POINT ( 'NONE',  ( -2.849252584218080706E-16, 3.000000000000000000, -7.100000000000004086 ) ) ;
#776 = DIRECTION ( 'NONE',  ( 0.000000000000000000, 0.000000000000000000, 1.000000000000000000 ) ) ;
#777 = DIRECTION ( 'NONE',  ( 0.000000000000000000, -1.000000000000000000, 0.000000000000000000 ) ) ;
#778 = EDGE_LOOP ( 'NONE', ( #176, #357, #173, #585 ) ) ;
#779 = SECURITY_CLASSIFICATION_LEVEL ( 'unclassified' ) ;
#780 = AXIS2_PLACEMENT_3D ( 'NONE', #644, #748, #1009 ) ;
#781 = VERTEX_POINT ( 'NONE', #249 ) ;
#782 = VECTOR ( 'NONE', #1100, 1000.000000000000000 ) ;
#783 = DIRECTION ( 'NONE',  ( -0.000000000000000000, 1.000000000000000000, -0.000000000000000000 ) ) ;
#784 = AXIS2_PLACEMENT_3D ( 'NONE', #581, #139, #594 ) ;
#785 = CARTESIAN_POINT ( 'NONE',  ( -23.00000000000000355, 0.000000000000000000, -8.000000000000003553 ) ) ;
#786 = CIRCLE ( 'NONE', #1087, 2.999999999999999112 ) ;
#787 = PERSON_AND_ORGANIZATION_ROLE ( 'creator' ) ;
#788 = ORIENTED_EDGE ( 'NONE', *, *, #238, .T. ) ;
#789 = CARTESIAN_POINT ( 'NONE',  ( -18.99999999999999645, 3.000000000000000000, 17.99999999999999645 ) ) ;
#790 = DIRECTION ( 'NONE',  ( -1.000000000000000000, -0.000000000000000000, -0.000000000000000000 ) ) ;
#791 = ORIENTED_EDGE ( 'NONE', *, *, #468, .F. ) ;
#792 = DIRECTION ( 'NONE',  ( 0.000000000000000000, 0.000000000000000000, -1.000000000000000000 ) ) ;
#793 = ADVANCED_FACE ( 'NONE', ( #161 ), #614, .F. ) ;
#794 = LINE ( 'NONE', #1164, #1145 ) ;
#795 = PERSON_AND_ORGANIZATION ( #769, #820 ) ;
#796 = ORIENTED_EDGE ( 'NONE', *, *, #1023, .F. ) ;
#797 = DIRECTION ( 'NONE',  ( 0.000000000000000000, 1.000000000000000000, 0.000000000000000000 ) ) ;
#798 = CIRCLE ( 'NONE', #81, 3.000000000000000000 ) ;
#799 = VECTOR ( 'NONE', #587, 1000.000000000000000 ) ;
#800 = FACE_BOUND ( 'NONE', #552, .T. ) ;
#801 = VECTOR ( 'NONE', #1155, 1000.000000000000000 ) ;
#802 = EDGE_CURVE ( 'NONE', #306, #276, #882, .T. ) ;
#803 = AXIS2_PLACEMENT_3D ( 'NONE', #789, #1154, #341 ) ;
#804 = ORIENTED_EDGE ( 'NONE', *, *, #994, .T. ) ;
#805 = APPLICATION_PROTOCOL_DEFINITION ( 'international standard', 'config_control_design', 1994, #641 ) ;
#806 = ORIENTED_EDGE ( 'NONE', *, *, #468, .T. ) ;
#807 = DIRECTION ( 'NONE',  ( 0.000000000000000000, 0.000000000000000000, 1.000000000000000000 ) ) ;
#808 = DIRECTION ( 'NONE',  ( 0.000000000000000000, 0.000000000000000000, -1.000000000000000000 ) ) ;
#809 = CC_DESIGN_PERSON_AND_ORGANIZATION_ASSIGNMENT ( #75, #445, ( #972 ) ) ;
#810 = ORIENTED_EDGE ( 'NONE', *, *, #43, .F. ) ;
#811 = EDGE_CURVE ( 'NONE', #223, #1080, #983, .T. ) ;
#812 = ORIENTED_EDGE ( 'NONE', *, *, #1006, .F. ) ;
#813 = CARTESIAN_POINT ( 'NONE',  ( 19.99999999999999289, 3.000000000000000000, -8.000000000000003553 ) ) ;
#814 = CARTESIAN_POINT ( 'NONE',  ( 22.99999999999998934, 0.000000000000000000, -8.000000000000003553 ) ) ;
#815 = ORIENTED_EDGE ( 'NONE', *, *, #403, .T. ) ;
#816 = EDGE_CURVE ( 'NONE', #756, #953, #1048, .T. ) ;
#817 = ORIENTED_EDGE ( 'NONE', *, *, #316, .F. ) ;
#818 = DIRECTION ( 'NONE',  ( 1.156482317317871331E-15, 0.000000000000000000, 1.000000000000000000 ) ) ;
#819 = CYLINDRICAL_SURFACE ( 'NONE', #1084, 4.100000000000000533 ) ;
#820 = ORGANIZATION ( 'æœª', 'æœª', '' ) ;
#821 = CARTESIAN_POINT ( 'NONE',  ( 19.99999999999999289, 3.000000000000000000, -5.000000000000003553 ) ) ;
#822 = AXIS2_PLACEMENT_3D ( 'NONE', #560, #833, #185 ) ;
#823 = ORIENTED_EDGE ( 'NONE', *, *, #390, .T. ) ;
#824 = CC_DESIGN_DATE_AND_TIME_ASSIGNMENT ( #698, #616, ( #576 ) ) ;
#825 = DIRECTION ( 'NONE',  ( 0.000000000000000000, 0.000000000000000000, 1.000000000000000000 ) ) ;
#826 = LOCAL_TIME ( 3, 7, 7.000000000000000000, #242 ) ;
#827 = DIRECTION ( 'NONE',  ( 0.000000000000000000, 1.000000000000000000, 0.000000000000000000 ) ) ;
#828 = DIRECTION ( 'NONE',  ( 0.000000000000000000, 0.000000000000000000, 1.000000000000000000 ) ) ;
#829 = ORIENTED_EDGE ( 'NONE', *, *, #180, .F. ) ;
#830 = DIRECTION ( 'NONE',  ( 0.000000000000000000, 1.000000000000000000, -0.000000000000000000 ) ) ;
#831 = DIRECTION ( 'NONE',  ( 0.000000000000000000, 1.000000000000000000, 0.000000000000000000 ) ) ;
#832 = EDGE_CURVE ( 'NONE', #509, #306, #437, .T. ) ;
#833 = DIRECTION ( 'NONE',  ( 0.000000000000000000, 1.000000000000000000, 0.000000000000000000 ) ) ;
#834 = ORIENTED_EDGE ( 'NONE', *, *, #846, .T. ) ;
#835 = CARTESIAN_POINT ( 'NONE',  ( -20.00000000000000355, 0.000000000000000000, -5.000000000000003553 ) ) ;
#836 = DIRECTION ( 'NONE',  ( 0.000000000000000000, 0.000000000000000000, 1.000000000000000000 ) ) ;
#837 = CARTESIAN_POINT ( 'NONE',  ( -15.00000000000000000, 3.000000000000000000, 4.100000000000000533 ) ) ;
#838 = EDGE_CURVE ( 'NONE', #1152, #282, #1069, .T. ) ;
#839 = AXIS2_PLACEMENT_3D ( 'NONE', #977, #422, #792 ) ;
#840 = VECTOR ( 'NONE', #1125, 1000.000000000000000 ) ;
#841 = EDGE_LOOP ( 'NONE', ( #143, #562, #134, #536 ) ) ;
#842 = AXIS2_PLACEMENT_3D ( 'NONE', #110, #930, #117 ) ;
#843 = CARTESIAN_POINT ( 'NONE',  ( -23.00000000000000355, 3.000000000000000000, -8.000000000000003553 ) ) ;
#844 = DIRECTION ( 'NONE',  ( -0.000000000000000000, 1.000000000000000000, -0.000000000000000000 ) ) ;
#845 = CARTESIAN_POINT ( 'NONE',  ( -11.00000000000000000, 3.000000000000000000, -6.150000000000003020 ) ) ;
#846 = EDGE_CURVE ( 'NONE', #953, #59, #887, .T. ) ;
#847 = ORIENTED_EDGE ( 'NONE', *, *, #358, .T. ) ;
#848 = DIRECTION ( 'NONE',  ( 4.336808689942017736E-16, 0.000000000000000000, 1.000000000000000000 ) ) ;
#849 = DIRECTION ( 'NONE',  ( 0.000000000000000000, 1.000000000000000000, 0.000000000000000000 ) ) ;
#850 = DIRECTION ( 'NONE',  ( -0.000000000000000000, -1.000000000000000000, -0.000000000000000000 ) ) ;
#851 = EDGE_LOOP ( 'NONE', ( #674, #313, #699, #598, #761, #108, #485, #922 ) ) ;
#852 = EDGE_CURVE ( 'NONE', #561, #1056, #1052, .T. ) ;
#853 = ORIENTED_EDGE ( 'NONE', *, *, #403, .F. ) ;
#854 = LINE ( 'NONE', #1037, #651 ) ;
#855 = CYLINDRICAL_SURFACE ( 'NONE', #349, 3.000000000000000000 ) ;
#856 = VERTEX_POINT ( 'NONE', #259 ) ;
#857 = PLANE ( 'NONE',  #518 ) ;
#858 = EDGE_CURVE ( 'NONE', #72, #31, #496, .T. ) ;
#859 = ORIENTED_EDGE ( 'NONE', *, *, #1014, .T. ) ;
#860 = CARTESIAN_POINT ( 'NONE',  ( 10.99999999999999289, 0.000000000000000000, 15.68081886265493985 ) ) ;
#861 = CARTESIAN_POINT ( 'NONE',  ( -14.00000000000001066, 0.000000000000000000, 6.680818862654938961 ) ) ;
#862 = CYLINDRICAL_SURFACE ( 'NONE', #386, 1.149999999999999911 ) ;
#863 = FACE_OUTER_BOUND ( 'NONE', #131, .T. ) ;
#864 = VERTEX_POINT ( 'NONE', #712 ) ;
#865 = DIRECTION ( 'NONE',  ( -1.000000000000000000, -0.000000000000000000, -0.000000000000000000 ) ) ;
#866 = CYLINDRICAL_SURFACE ( 'NONE', #407, 1.600000000000000755 ) ;
#867 = EDGE_LOOP ( 'NONE', ( #191, #540, #431, #957 ) ) ;
#868 = CALENDAR_DATE ( 2026, 20, 5 ) ;
#869 = VERTEX_POINT ( 'NONE', #891 ) ;
#870 = CYLINDRICAL_SURFACE ( 'NONE', #364, 1.149999999999999911 ) ;
#871 = LINE ( 'NONE', #487, #915 ) ;
#872 = EDGE_CURVE ( 'NONE', #998, #113, #1102, .T. ) ;
#873 = PERSON_AND_ORGANIZATION ( #769, #820 ) ;
#874 = VECTOR ( 'NONE', #279, 1000.000000000000000 ) ;
#875 = EDGE_LOOP ( 'NONE', ( #182, #1015, #456, #320 ) ) ;
#876 = CIRCLE ( 'NONE', #193, 1.600000000000000755 ) ;
#877 = AXIS2_PLACEMENT_3D ( 'NONE', #353, #502, #154 ) ;
#878 = DIRECTION ( 'NONE',  ( -0.000000000000000000, -1.000000000000000000, -0.000000000000000000 ) ) ;
#879 = CARTESIAN_POINT ( 'NONE',  ( 0.000000000000000000, 3.000000000000000000, 0.000000000000000000 ) ) ;
#880 = APPROVAL_STATUS ( 'not_yet_approved' ) ;
#881 = ORIENTED_EDGE ( 'NONE', *, *, #695, .T. ) ;
#882 = LINE ( 'NONE', #171, #293 ) ;
#883 = DIRECTION ( 'NONE',  ( 0.000000000000000000, 1.000000000000000000, 0.000000000000000000 ) ) ;
#884 = PERSON_AND_ORGANIZATION_ROLE ( 'classification_officer' ) ;
#885 = VERTEX_POINT ( 'NONE', #1078 ) ;
#886 = EDGE_CURVE ( 'NONE', #751, #306, #268, .T. ) ;
#887 = LINE ( 'NONE', #604, #1106 ) ;
#888 = CARTESIAN_POINT ( 'NONE',  ( -5.421010862427522170E-16, -0.001000000000000132727, -5.000000000000003553 ) ) ;
#889 = EDGE_LOOP ( 'NONE', ( #1067, #796 ) ) ;
#890 = VERTEX_POINT ( 'NONE', #990 ) ;
#891 = CARTESIAN_POINT ( 'NONE',  ( -11.00000000000001066, 3.000000000000000000, 6.680818862654938961 ) ) ;
#892 = CIRCLE ( 'NONE', #85, 3.000000000000000000 ) ;
#893 = ADVANCED_FACE ( 'NONE', ( #177 ), #870, .F. ) ;
#894 = AXIS2_PLACEMENT_3D ( 'NONE', #183, #197, #288 ) ;
#895 = FACE_OUTER_BOUND ( 'NONE', #421, .T. ) ;
#896 = EDGE_CURVE ( 'NONE', #756, #781, #244, .T. ) ;
#897 = AXIS2_PLACEMENT_3D ( 'NONE', #530, #1149, #521 ) ;
#898 = ORIENTED_EDGE ( 'NONE', *, *, #506, .T. ) ;
#899 = CC_DESIGN_APPROVAL ( #646, ( #404 ) ) ;
#900 = EDGE_LOOP ( 'NONE', ( #150, #47, #1002, #4 ) ) ;
#901 = CARTESIAN_POINT ( 'NONE',  ( -11.00000000000001066, 0.000000000000000000, 18.68081886265493807 ) ) ;
#902 = LINE ( 'NONE', #814, #28 ) ;
#903 = ORIENTED_EDGE ( 'NONE', *, *, #1146, .F. ) ;
#904 = EDGE_CURVE ( 'NONE', #466, #1022, #46, .T. ) ;
#905 = ORIENTED_EDGE ( 'NONE', *, *, #198, .F. ) ;
#906 = CARTESIAN_POINT ( 'NONE',  ( -15.00000000000000000, 0.000000000000000000, 4.100000000000000533 ) ) ;
#907 = CARTESIAN_POINT ( 'NONE',  ( 22.99999999999998934, 3.000000000000000000, -5.000000000000004441 ) ) ;
#908 = CARTESIAN_POINT ( 'NONE',  ( -14.00000000000001066, 3.000000000000000000, 9.680818862654938073 ) ) ;
#909 = CC_DESIGN_PERSON_AND_ORGANIZATION_ASSIGNMENT ( #60, #1166, ( #404 ) ) ;
#910 = EDGE_LOOP ( 'NONE', ( #1094, #967, #557, #76 ) ) ;
#911 = CARTESIAN_POINT ( 'NONE',  ( -11.00000000000001066, 3.000000000000000000, 18.68081886265493807 ) ) ;
#912 = FACE_OUTER_BOUND ( 'NONE', #89, .T. ) ;
#913 = LOCAL_TIME ( 3, 7, 7.000000000000000000, #439 ) ;
#914 = DIRECTION ( 'NONE',  ( -1.000000000000000000, 0.000000000000000000, 1.445602896647339163E-16 ) ) ;
#915 = VECTOR ( 'NONE', #63, 1000.000000000000000 ) ;
#916 = ORIENTED_EDGE ( 'NONE', *, *, #1146, .T. ) ;
#917 = DIRECTION ( 'NONE',  ( -0.000000000000000000, -1.000000000000000000, -0.000000000000000000 ) ) ;
#918 = LOCAL_TIME ( 3, 7, 7.000000000000000000, #1151 ) ;
#919 = DIRECTION ( 'NONE',  ( 0.000000000000000000, 0.000000000000000000, 1.000000000000000000 ) ) ;
#920 = DESIGN_CONTEXT ( 'detailed design', #703, 'design' ) ;
#921 = DIRECTION ( 'NONE',  ( 0.000000000000000000, 1.000000000000000000, 0.000000000000000000 ) ) ;
#922 = ORIENTED_EDGE ( 'NONE', *, *, #512, .T. ) ;
#923 = LINE ( 'NONE', #554, #782 ) ;
#924 = ADVANCED_FACE ( 'NONE', ( #192 ), #1108, .F. ) ;
#925 = CARTESIAN_POINT ( 'NONE',  ( 22.99999999999998934, 3.000000000000000000, -5.000000000000004441 ) ) ;
#926 = FACE_OUTER_BOUND ( 'NONE', #1026, .T. ) ;
#927 = ORIENTED_EDGE ( 'NONE', *, *, #858, .F. ) ;
#928 = CARTESIAN_POINT ( 'NONE',  ( 0.000000000000000000, 0.000000000000000000, 0.000000000000000000 ) ) ;
#929 = EDGE_LOOP ( 'NONE', ( #377, #204, #527, #1036 ) ) ;
#930 = DIRECTION ( 'NONE',  ( 0.000000000000000000, 1.000000000000000000, 0.000000000000000000 ) ) ;
#931 = CC_DESIGN_PERSON_AND_ORGANIZATION_ASSIGNMENT ( #513, #787, ( #404 ) ) ;
#932 = CARTESIAN_POINT ( 'NONE',  ( 13.99999999999999112, 3.000000000000000000, 15.68081886265493985 ) ) ;
#933 = AXIS2_PLACEMENT_3D ( 'NONE', #1000, #831, #559 ) ;
#934 = EDGE_CURVE ( 'NONE', #113, #484, #923, .T. ) ;
#935 = VECTOR ( 'NONE', #1118, 1000.000000000000000 ) ;
#936 = AXIS2_PLACEMENT_3D ( 'NONE', #35, #465, #828 ) ;
#937 = VECTOR ( 'NONE', #1004, 1000.000000000000000 ) ;
#938 = ORIENTED_EDGE ( 'NONE', *, *, #657, .T. ) ;
#939 = CIRCLE ( 'NONE', #232, 2.999999999999999112 ) ;
#940 = LINE ( 'NONE', #1136, #840 ) ;
#941 = CARTESIAN_POINT ( 'NONE',  ( -15.00000000000000000, 0.000000000000000000, -4.100000000000000533 ) ) ;
#942 = CARTESIAN_POINT ( 'NONE',  ( -14.00000000000000888, 3.000000000000000000, 15.68081886265493985 ) ) ;
#943 = EDGE_CURVE ( 'NONE', #1089, #484, #1010, .T. ) ;
#944 = ORIENTED_EDGE ( 'NONE', *, *, #673, .T. ) ;
#945 = ORIENTED_EDGE ( 'NONE', *, *, #686, .T. ) ;
#946 = DIRECTION ( 'NONE',  ( 0.000000000000000000, 1.000000000000000000, 0.000000000000000000 ) ) ;
#947 = DIRECTION ( 'NONE',  ( -3.469446951953615372E-15, 0.000000000000000000, 1.000000000000000000 ) ) ;
#948 = ORIENTED_EDGE ( 'NONE', *, *, #8, .T. ) ;
#949 = CARTESIAN_POINT ( 'NONE',  ( -18.99999999999999645, 3.000000000000000000, 16.39999999999999503 ) ) ;
#950 = ORIENTED_EDGE ( 'NONE', *, *, #98, .T. ) ;
#951 = DIRECTION ( 'NONE',  ( -1.156482317317871331E-15, 0.000000000000000000, 1.000000000000000000 ) ) ;
#952 = CARTESIAN_POINT ( 'NONE',  ( 10.99999999999999289, 3.000000000000000000, 15.68081886265493985 ) ) ;
#953 = VERTEX_POINT ( 'NONE', #906 ) ;
#954 =( NAMED_UNIT ( * ) PLANE_ANGLE_UNIT ( ) SI_UNIT ( $, .RADIAN. ) );
#955 = AXIS2_PLACEMENT_3D ( 'NONE', #610, #449, #808 ) ;
#956 = VECTOR ( 'NONE', #705, 1000.000000000000000 ) ;
#957 = ORIENTED_EDGE ( 'NONE', *, *, #347, .T. ) ;
#958 = ADVANCED_FACE ( 'NONE', ( #1095 ), #368, .F. ) ;
#959 = DIRECTION ( 'NONE',  ( 0.000000000000000000, 0.000000000000000000, 1.000000000000000000 ) ) ;
#960 = CARTESIAN_POINT ( 'NONE',  ( -18.99999999999999645, 0.000000000000000000, 19.59999999999999432 ) ) ;
#961 = ORIENTED_EDGE ( 'NONE', *, *, #816, .F. ) ;
#962 = DATE_AND_TIME ( #597, #913 ) ;
#963 = ORIENTED_EDGE ( 'NONE', *, *, #216, .F. ) ;
#964 = LINE ( 'NONE', #1120, #122 ) ;
#965 = EDGE_CURVE ( 'NONE', #509, #145, #798, .T. ) ;
#966 = DIRECTION ( 'NONE',  ( -0.000000000000000000, 1.000000000000000000, -0.000000000000000000 ) ) ;
#967 = ORIENTED_EDGE ( 'NONE', *, *, #732, .T. ) ;
#968 = DATE_AND_TIME ( #868, #826 ) ;
#969 = ORIENTED_EDGE ( 'NONE', *, *, #832, .F. ) ;
#970 = DIRECTION ( 'NONE',  ( 0.000000000000000000, 1.000000000000000000, -0.000000000000000000 ) ) ;
#971 = DIRECTION ( 'NONE',  ( 0.000000000000000000, 0.000000000000000000, 1.000000000000000000 ) ) ;
#972 = PRODUCT_DEFINITION ( 'æœ', '', #404, #920 ) ;
#973 = EDGE_CURVE ( 'NONE', #217, #270, #628, .T. ) ;
#974 = SHAPE_DEFINITION_REPRESENTATION ( #319, #201 ) ;
#975 = AXIS2_PLACEMENT_3D ( 'NONE', #109, #19, #100 ) ;
#976 = ORIENTED_EDGE ( 'NONE', *, *, #732, .F. ) ;
#977 = CARTESIAN_POINT ( 'NONE',  ( -11.00000000000001066, -0.001000000000000132727, 9.680818862654938073 ) ) ;
#978 = AXIS2_PLACEMENT_3D ( 'NONE', #772, #691, #947 ) ;
#979 = DIRECTION ( 'NONE',  ( 0.000000000000000000, -1.000000000000000000, 0.000000000000000000 ) ) ;
#980 = ADVANCED_FACE ( 'NONE', ( #272 ), #384, .T. ) ;
#981 = PERSON_AND_ORGANIZATION ( #769, #820 ) ;
#982 = ORIENTED_EDGE ( 'NONE', *, *, #519, .F. ) ;
#983 = LINE ( 'NONE', #73, #24 ) ;
#984 = LINE ( 'NONE', #167, #801 ) ;
#985 = VERTEX_POINT ( 'NONE', #558 ) ;
#986 = DIRECTION ( 'NONE',  ( 0.000000000000000000, 0.000000000000000000, -1.000000000000000000 ) ) ;
#987 = CYLINDRICAL_SURFACE ( 'NONE', #120, 2.100000000000000089 ) ;
#988 = ORIENTED_EDGE ( 'NONE', *, *, #323, .T. ) ;
#989 = ORIENTED_EDGE ( 'NONE', *, *, #98, .F. ) ;
#990 = CARTESIAN_POINT ( 'NONE',  ( -20.00000000000000355, 3.000000000000000000, -8.000000000000003553 ) ) ;
#991 = AXIS2_PLACEMENT_3D ( 'NONE', #1158, #878, #432 ) ;
#992 = AXIS2_PLACEMENT_3D ( 'NONE', #38, #584, #218 ) ;
#993 = AXIS2_PLACEMENT_3D ( 'NONE', #376, #914, #1104 ) ;
#994 = EDGE_CURVE ( 'NONE', #217, #1157, #643, .T. ) ;
#995 = DIRECTION ( 'NONE',  ( -0.000000000000000000, -1.000000000000000000, -0.000000000000000000 ) ) ;
#996 = VECTOR ( 'NONE', #753, 1000.000000000000000 ) ;
#997 = EDGE_LOOP ( 'NONE', ( #1, #219, #1081, #253 ) ) ;
#998 = VERTEX_POINT ( 'NONE', #452 ) ;
#999 = LINE ( 'NONE', #188, #234 ) ;
#1000 = CARTESIAN_POINT ( 'NONE',  ( 14.99999999999998934, 3.000000000000000000, -7.703719777548943412E-31 ) ) ;
#1001 = ORIENTED_EDGE ( 'NONE', *, *, #811, .F. ) ;
#1002 = ORIENTED_EDGE ( 'NONE', *, *, #198, .T. ) ;
#1003 = DIRECTION ( 'NONE',  ( -0.000000000000000000, 1.000000000000000000, -0.000000000000000000 ) ) ;
#1004 = DIRECTION ( 'NONE',  ( -0.000000000000000000, 1.000000000000000000, -0.000000000000000000 ) ) ;
#1005 = DIRECTION ( 'NONE',  ( 1.000000000000000000, 0.000000000000000000, 0.000000000000000000 ) ) ;
#1006 = EDGE_CURVE ( 'NONE', #145, #890, #283, .T. ) ;
#1007 = ORIENTED_EDGE ( 'NONE', *, *, #722, .F. ) ;
#1008 = DIRECTION ( 'NONE',  ( -0.000000000000000000, 1.000000000000000000, -0.000000000000000000 ) ) ;
#1009 = DIRECTION ( 'NONE',  ( 0.000000000000000000, 0.000000000000000000, -1.000000000000000000 ) ) ;
#1010 = CIRCLE ( 'NONE', #307, 2.100000000000000089 ) ;
#1011 = CIRCLE ( 'NONE', #877, 2.999999999999999112 ) ;
#1012 = CARTESIAN_POINT ( 'NONE',  ( 19.99999999999999289, 0.000000000000000000, -8.000000000000003553 ) ) ;
#1013 = AXIS2_PLACEMENT_3D ( 'NONE', #103, #1110, #371 ) ;
#1014 = EDGE_CURVE ( 'NONE', #1126, #579, #999, .T. ) ;
#1015 = ORIENTED_EDGE ( 'NONE', *, *, #144, .T. ) ;
#1016 = CARTESIAN_POINT ( 'NONE',  ( -18.99999999999999645, -0.001000000000000132727, 17.99999999999999645 ) ) ;
#1017 = LINE ( 'NONE', #925, #174 ) ;
#1018 = CARTESIAN_POINT ( 'NONE',  ( 19.99999999999999645, 0.000000000000000000, 20.99999999999999645 ) ) ;
#1019 = ORIENTED_EDGE ( 'NONE', *, *, #640, .F. ) ;
#1020 = EDGE_CURVE ( 'NONE', #1056, #296, #546, .T. ) ;
#1021 = CARTESIAN_POINT ( 'NONE',  ( -5.421010862427522170E-16, 3.000000000000000000, -5.000000000000003553 ) ) ;
#1022 = VERTEX_POINT ( 'NONE', #747 ) ;
#1023 = EDGE_CURVE ( 'NONE', #1080, #340, #385, .T. ) ;
#1024 = CARTESIAN_POINT ( 'NONE',  ( 10.99999999999999645, -0.001000000000000132727, -3.850000000000007194 ) ) ;
#1025 = DIRECTION ( 'NONE',  ( 0.000000000000000000, 0.000000000000000000, 1.000000000000000000 ) ) ;
#1026 = EDGE_LOOP ( 'NONE', ( #963, #815, #248, #372 ) ) ;
#1027 = CYLINDRICAL_SURFACE ( 'NONE', #26, 3.000000000000000000 ) ;
#1028 = LINE ( 'NONE', #491, #996 ) ;
#1029 = ADVANCED_FACE ( 'NONE', ( #378 ), #462, .F. ) ;
#1030 = DIRECTION ( 'NONE',  ( -0.000000000000000000, -1.000000000000000000, -0.000000000000000000 ) ) ;
#1031 = AXIS2_PLACEMENT_3D ( 'NONE', #771, #239, #231 ) ;
#1032 = AXIS2_PLACEMENT_3D ( 'NONE', #119, #754, #1116 ) ;
#1033 = CIRCLE ( 'NONE', #271, 4.100000000000000533 ) ;
#1034 = EDGE_LOOP ( 'NONE', ( #435, #493 ) ) ;
#1035 = LINE ( 'NONE', #668, #935 ) ;
#1036 = ORIENTED_EDGE ( 'NONE', *, *, #678, .T. ) ;
#1037 = CARTESIAN_POINT ( 'NONE',  ( 19.99999999999999645, 3.000000000000000000, 23.99999999999999645 ) ) ;
#1038 = FACE_OUTER_BOUND ( 'NONE', #440, .T. ) ;
#1039 = ORIENTED_EDGE ( 'NONE', *, *, #66, .T. ) ;
#1040 = CARTESIAN_POINT ( 'NONE',  ( -20.00000000000000355, 3.000000000000000000, -5.000000000000003553 ) ) ;
#1041 = CARTESIAN_POINT ( 'NONE',  ( -11.00000000000001066, 3.000000000000000000, 9.680818862654938073 ) ) ;
#1042 = CARTESIAN_POINT ( 'NONE',  ( 18.99999999999999289, 0.000000000000000000, 16.39999999999999503 ) ) ;
#1043 = ORIENTED_EDGE ( 'NONE', *, *, #186, .F. ) ;
#1044 = LINE ( 'NONE', #843, #118 ) ;
#1045 = ORIENTED_EDGE ( 'NONE', *, *, #965, .T. ) ;
#1046 = DIRECTION ( 'NONE',  ( 0.000000000000000000, 0.000000000000000000, 1.000000000000000000 ) ) ;
#1047 = CARTESIAN_POINT ( 'NONE',  ( -5.421010862427522170E-16, 0.000000000000000000, -5.000000000000003553 ) ) ;
#1048 = CIRCLE ( 'NONE', #991, 4.100000000000000533 ) ;
#1049 = AXIS2_PLACEMENT_3D ( 'NONE', #14, #472, #652 ) ;
#1050 = CARTESIAN_POINT ( 'NONE',  ( -18.99999999999999645, 3.000000000000000000, 19.59999999999999432 ) ) ;
#1051 = ADVANCED_FACE ( 'NONE', ( #297 ), #373, .F. ) ;
#1052 = CIRCLE ( 'NONE', #535, 2.999999999999999112 ) ;
#1053 = ORIENTED_EDGE ( 'NONE', *, *, #564, .F. ) ;
#1054 = DIRECTION ( 'NONE',  ( 0.000000000000000000, -1.000000000000000000, 0.000000000000000000 ) ) ;
#1055 = DIRECTION ( 'NONE',  ( 0.000000000000000000, 0.000000000000000000, 1.000000000000000000 ) ) ;
#1056 = VERTEX_POINT ( 'NONE', #901 ) ;
#1057 = CALENDAR_DATE ( 2026, 20, 5 ) ;
#1058 = APPROVAL ( #880, 'æœª' ) ;
#1059 = EDGE_LOOP ( 'NONE', ( #1167, #806, #495, #670 ) ) ;
#1060 = DIRECTION ( 'NONE',  ( 0.000000000000000000, 0.000000000000000000, 1.000000000000000000 ) ) ;
#1061 = PLANE ( 'NONE',  #690 ) ;
#1062 = APPROVAL_STATUS ( 'not_yet_approved' ) ;
#1063 = VERTEX_POINT ( 'NONE', #813 ) ;
#1064 = FACE_BOUND ( 'NONE', #520, .T. ) ;
#1065 = FACE_BOUND ( 'NONE', #851, .T. ) ;
#1066 = ADVANCED_FACE ( 'NONE', ( #2 ), #312, .F. ) ;
#1067 = ORIENTED_EDGE ( 'NONE', *, *, #709, .F. ) ;
#1068 = CIRCLE ( 'NONE', #550, 3.000000000000000000 ) ;
#1069 = LINE ( 'NONE', #166, #446 ) ;
#1070 = LINE ( 'NONE', #71, #427 ) ;
#1071 = CC_DESIGN_PERSON_AND_ORGANIZATION_ASSIGNMENT ( #602, #523, ( #488 ) ) ;
#1072 = APPROVAL_DATE_TIME ( #968, #646 ) ;
#1073 = EDGE_LOOP ( 'NONE', ( #230, #938, #391, #948, #631, #752, #1019, #1162 ) ) ;
#1074 = FACE_BOUND ( 'NONE', #317, .T. ) ;
#1075 = FACE_BOUND ( 'NONE', #889, .T. ) ;
#1076 = ORIENTED_EDGE ( 'NONE', *, *, #238, .F. ) ;
#1077 = ORIENTED_EDGE ( 'NONE', *, *, #121, .T. ) ;
#1078 = CARTESIAN_POINT ( 'NONE',  ( 10.99999999999999289, 3.000000000000000000, 18.68081886265493807 ) ) ;
#1079 = CARTESIAN_POINT ( 'NONE',  ( 13.99999999999998934, 0.000000000000000000, 9.680818862654938073 ) ) ;
#1080 = VERTEX_POINT ( 'NONE', #209 ) ;
#1081 = ORIENTED_EDGE ( 'NONE', *, *, #180, .T. ) ;
#1082 = EDGE_CURVE ( 'NONE', #622, #393, #1035, .T. ) ;
#1083 = DIRECTION ( 'NONE',  ( -0.000000000000000000, -1.000000000000000000, -0.000000000000000000 ) ) ;
#1084 = AXIS2_PLACEMENT_3D ( 'NONE', #189, #205, #547 ) ;
#1085 = VECTOR ( 'NONE', #221, 1000.000000000000000 ) ;
#1086 = DIRECTION ( 'NONE',  ( -1.000000000000000000, 0.000000000000000000, -0.000000000000000000 ) ) ;
#1087 = AXIS2_PLACEMENT_3D ( 'NONE', #860, #946, #314 ) ;
#1088 = ORIENTED_EDGE ( 'NONE', *, *, #455, .F. ) ;
#1089 = VERTEX_POINT ( 'NONE', #775 ) ;
#1090 = CARTESIAN_POINT ( 'NONE',  ( -19.99999999999998934, 0.000000000000000000, 20.99999999999999645 ) ) ;
#1091 = EDGE_CURVE ( 'NONE', #1157, #13, #876, .T. ) ;
#1092 = CARTESIAN_POINT ( 'NONE',  ( -14.00000000000001066, -0.001000000000000132727, 6.680818862654938961 ) ) ;
#1093 = LINE ( 'NONE', #574, #799 ) ;
#1094 = ORIENTED_EDGE ( 'NONE', *, *, #757, .T. ) ;
#1095 = FACE_OUTER_BOUND ( 'NONE', #841, .T. ) ;
#1096 = DIRECTION ( 'NONE',  ( 0.000000000000000000, 0.000000000000000000, 1.000000000000000000 ) ) ;
#1097 = CARTESIAN_POINT ( 'NONE',  ( 14.99999999999998934, 3.000000000000000000, 4.100000000000000533 ) ) ;
#1098 = ADVANCED_FACE ( 'NONE', ( #114 ), #857, .F. ) ;
#1099 = ORIENTED_EDGE ( 'NONE', *, *, #750, .F. ) ;
#1100 = DIRECTION ( 'NONE',  ( -0.000000000000000000, 1.000000000000000000, -0.000000000000000000 ) ) ;
#1101 = DIRECTION ( 'NONE',  ( 1.000000000000000000, 0.000000000000000000, -2.891205793294678326E-16 ) ) ;
#1102 = CIRCLE ( 'NONE', #1161, 2.100000000000000089 ) ;
#1103 = AXIS2_PLACEMENT_3D ( 'NONE', #544, #17, #645 ) ;
#1104 = DIRECTION ( 'NONE',  ( 1.445602896647339163E-16, 0.000000000000000000, 1.000000000000000000 ) ) ;
#1105 = AXIS2_PLACEMENT_3D ( 'NONE', #356, #265, #971 ) ;
#1106 = VECTOR ( 'NONE', #77, 1000.000000000000000 ) ;
#1107 = ORIENTED_EDGE ( 'NONE', *, *, #153, .T. ) ;
#1108 = CYLINDRICAL_SURFACE ( 'NONE', #175, 1.600000000000000755 ) ;
#1109 = DIRECTION ( 'NONE',  ( -0.000000000000000000, 1.000000000000000000, -0.000000000000000000 ) ) ;
#1110 = DIRECTION ( 'NONE',  ( 0.000000000000000000, 1.000000000000000000, 0.000000000000000000 ) ) ;
#1111 = ORIENTED_EDGE ( 'NONE', *, *, #358, .F. ) ;
#1112 = CARTESIAN_POINT ( 'NONE',  ( 10.99999999999999289, -0.001000000000000132727, 15.68081886265493985 ) ) ;
#1113 = ADVANCED_FACE ( 'NONE', ( #863 ), #1027, .T. ) ;
#1114 = ORIENTED_EDGE ( 'NONE', *, *, #1171, .T. ) ;
#1115 = DIRECTION ( 'NONE',  ( 0.000000000000000000, 0.000000000000000000, 1.000000000000000000 ) ) ;
#1116 = DIRECTION ( 'NONE',  ( 0.000000000000000000, 0.000000000000000000, 1.000000000000000000 ) ) ;
#1117 = EDGE_LOOP ( 'NONE', ( #982, #160 ) ) ;
#1118 = DIRECTION ( 'NONE',  ( -0.000000000000000000, 1.000000000000000000, -0.000000000000000000 ) ) ;
#1119 = ORIENTED_EDGE ( 'NONE', *, *, #286, .T. ) ;
#1120 = CARTESIAN_POINT ( 'NONE',  ( -14.00000000000001066, 0.000000000000000000, 6.680818862654938961 ) ) ;
#1121 = CARTESIAN_POINT ( 'NONE',  ( -18.99999999999999645, 0.000000000000000000, 16.39999999999999503 ) ) ;
#1122 = APPROVAL_PERSON_ORGANIZATION ( #981, #1058, #528 ) ;
#1123 = VECTOR ( 'NONE', #240, 1000.000000000000000 ) ;
#1124 = VERTEX_POINT ( 'NONE', #55 ) ;
#1125 = DIRECTION ( 'NONE',  ( -2.891205793294678326E-16, -0.000000000000000000, -1.000000000000000000 ) ) ;
#1126 = VERTEX_POINT ( 'NONE', #135 ) ;
#1127 = DIRECTION ( 'NONE',  ( 0.000000000000000000, 1.000000000000000000, -0.000000000000000000 ) ) ;
#1128 = DIRECTION ( 'NONE',  ( -0.000000000000000000, 1.000000000000000000, -0.000000000000000000 ) ) ;
#1129 = EDGE_CURVE ( 'NONE', #885, #767, #305, .T. ) ;
#1130 = ORIENTED_EDGE ( 'NONE', *, *, #589, .F. ) ;
#1131 = DIRECTION ( 'NONE',  ( 0.000000000000000000, -1.000000000000000000, 0.000000000000000000 ) ) ;
#1132 = DIRECTION ( 'NONE',  ( -0.000000000000000000, -1.000000000000000000, -0.000000000000000000 ) ) ;
#1133 = DIRECTION ( 'NONE',  ( -0.000000000000000000, 1.000000000000000000, 0.000000000000000000 ) ) ;
#1134 = EDGE_CURVE ( 'NONE', #124, #354, #940, .T. ) ;
#1135 = DIRECTION ( 'NONE',  ( 0.000000000000000000, 0.000000000000000000, 1.000000000000000000 ) ) ;
#1136 = CARTESIAN_POINT ( 'NONE',  ( 13.99999999999998934, 3.000000000000000000, 6.680818862654938961 ) ) ;
#1137 = LINE ( 'NONE', #510, #724 ) ;
#1138 = CARTESIAN_POINT ( 'NONE',  ( -20.00000000000000355, 0.000000000000000000, -8.000000000000003553 ) ) ;
#1139 = CIRCLE ( 'NONE', #516, 1.600000000000000755 ) ;
#1140 = ADVANCED_FACE ( 'NONE', ( #768 ), #125, .F. ) ;
#1141 = AXIS2_PLACEMENT_3D ( 'NONE', #1112, #1131, #301 ) ;
#1142 = CIRCLE ( 'NONE', #822, 2.999999999999999112 ) ;
#1143 = ORIENTED_EDGE ( 'NONE', *, *, #539, .F. ) ;
#1144 = DIRECTION ( 'NONE',  ( 1.000000000000000000, 0.000000000000000000, 0.000000000000000000 ) ) ;
#1145 = VECTOR ( 'NONE', #74, 1000.000000000000000 ) ;
#1146 = EDGE_CURVE ( 'NONE', #393, #37, #706, .T. ) ;
#1147 = AXIS2_PLACEMENT_3D ( 'NONE', #10, #737, #199 ) ;
#1148 = ORIENTED_EDGE ( 'NONE', *, *, #886, .F. ) ;
#1149 = DIRECTION ( 'NONE',  ( 0.000000000000000000, 1.000000000000000000, 0.000000000000000000 ) ) ;
#1150 = LINE ( 'NONE', #338, #553 ) ;
#1151 = COORDINATED_UNIVERSAL_TIME_OFFSET ( 8, 0, .AHEAD. ) ;
#1152 = VERTEX_POINT ( 'NONE', #414 ) ;
#1153 = EDGE_CURVE ( 'NONE', #755, #276, #1044, .T. ) ;
#1154 = DIRECTION ( 'NONE',  ( 0.000000000000000000, 1.000000000000000000, 0.000000000000000000 ) ) ;
#1155 = DIRECTION ( 'NONE',  ( -0.000000000000000000, 1.000000000000000000, -0.000000000000000000 ) ) ;
#1156 = APPLICATION_PROTOCOL_DEFINITION ( 'international standard', 'config_control_design', 1994, #703 ) ;
#1157 = VERTEX_POINT ( 'NONE', #949 ) ;
#1158 = CARTESIAN_POINT ( 'NONE',  ( -15.00000000000000000, 0.000000000000000000, 0.000000000000000000 ) ) ;
#1159 = CARTESIAN_POINT ( 'NONE',  ( 13.99999999999998934, 3.000000000000000000, 9.680818862654938073 ) ) ;
#1160 = COORDINATED_UNIVERSAL_TIME_OFFSET ( 8, 0, .AHEAD. ) ;
#1161 = AXIS2_PLACEMENT_3D ( 'NONE', #84, #448, #807 ) ;
#1162 = ORIENTED_EDGE ( 'NONE', *, *, #852, .T. ) ;
#1163 = DIRECTION ( 'NONE',  ( 0.000000000000000000, 0.000000000000000000, 1.000000000000000000 ) ) ;
#1164 = CARTESIAN_POINT ( 'NONE',  ( 13.99999999999999112, 3.000000000000000000, 15.68081886265493985 ) ) ;
#1165 = LINE ( 'NONE', #40, #1123 ) ;
#1166 = PERSON_AND_ORGANIZATION_ROLE ( 'design_supplier' ) ;
#1167 = ORIENTED_EDGE ( 'NONE', *, *, #838, .T. ) ;
#1168 = FACE_BOUND ( 'NONE', #1073, .T. ) ;
#1169 = CARTESIAN_POINT ( 'NONE',  ( 13.99999999999999112, 0.000000000000000000, 15.68081886265493985 ) ) ;
#1170 = ORIENTED_EDGE ( 'NONE', *, *, #390, .F. ) ;
#1171 = EDGE_CURVE ( 'NONE', #767, #1056, #42, .T. ) ;
ENDSEC;
END-ISO-10303-21;
