ISO-10303-21;
HEADER;
FILE_DESCRIPTION (( 'STEP AP203' ),
    '1' );
FILE_NAME ('µç»úÇý¶¯_Îí»¯_Ö§¼Ü.STEP',
    '2026-05-19T19:07:42',
    ( '' ),
    ( '' ),
    'SwSTEP 2.0',
    'SolidWorks 2024',
    '' );
FILE_SCHEMA (( 'CONFIG_CONTROL_DESIGN' ));
ENDSEC;

DATA;
#1 = DIRECTION ( 'NONE',  ( -1.000000000000000000, 0.000000000000000000, 1.239088197126290570E-16 ) ) ;
#2 = FACE_OUTER_BOUND ( 'NONE', #17, .T. ) ;
#3 = ORIENTED_EDGE ( 'NONE', *, *, #707, .F. ) ;
#4 = CYLINDRICAL_SURFACE ( 'NONE', #109, 10.00000000000000000 ) ;
#5 = PLANE ( 'NONE',  #654 ) ;
#6 = CARTESIAN_POINT ( 'NONE',  ( 4.099999999999996092, -22.00000000000000000, 35.00100000000000477 ) ) ;
#7 = VERTEX_POINT ( 'NONE', #244 ) ;
#8 = CYLINDRICAL_SURFACE ( 'NONE', #541, 1.600000000000000755 ) ;
#9 = DIRECTION ( 'NONE',  ( -0.000000000000000000, 1.000000000000000000, -0.000000000000000000 ) ) ;
#10 = EDGE_CURVE ( 'NONE', #870, #803, #94, .T. ) ;
#11 = DIRECTION ( 'NONE',  ( -0.000000000000000000, -1.000000000000000000, -0.000000000000000000 ) ) ;
#12 = CIRCLE ( 'NONE', #30, 1.600000000000001643 ) ;
#13 = ORIENTED_EDGE ( 'NONE', *, *, #838, .T. ) ;
#14 = CARTESIAN_POINT ( 'NONE',  ( 12.00000000000000178, 3.000000000000000000, 35.00000000000000000 ) ) ;
#15 = DESIGN_CONTEXT ( 'detailed design', #836, 'design' ) ;
#16 = EDGE_LOOP ( 'NONE', ( #830, #683, #95, #718 ) ) ;
#17 = EDGE_LOOP ( 'NONE', ( #560, #540, #579, #938 ) ) ;
#18 = DIRECTION ( 'NONE',  ( 0.000000000000000000, 0.000000000000000000, 1.000000000000000000 ) ) ;
#19 = CARTESIAN_POINT ( 'NONE',  ( 10.00000000000000000, 0.000000000000000000, 31.60000000000000142 ) ) ;
#20 = EDGE_CURVE ( 'NONE', #831, #53, #622, .T. ) ;
#21 = VERTEX_POINT ( 'NONE', #81 ) ;
#22 = AXIS2_PLACEMENT_3D ( 'NONE', #342, #960, #729 ) ;
#23 = ADVANCED_FACE ( 'NONE', ( #85 ), #169, .F. ) ;
#24 = CARTESIAN_POINT ( 'NONE',  ( -3.469446951953614189E-15, -22.00000000000000000, 35.00100000000000477 ) ) ;
#25 = AXIS2_PLACEMENT_3D ( 'NONE', #247, #864, #790 ) ;
#26 = VERTEX_POINT ( 'NONE', #865 ) ;
#27 = ORIENTED_EDGE ( 'NONE', *, *, #473, .T. ) ;
#28 = EDGE_CURVE ( 'NONE', #640, #264, #703, .T. ) ;
#29 = CARTESIAN_POINT ( 'NONE',  ( -11.99999999999999822, 3.000000000000000000, 32.00000000000000000 ) ) ;
#30 = AXIS2_PLACEMENT_3D ( 'NONE', #206, #520, #824 ) ;
#31 = EDGE_CURVE ( 'NONE', #860, #142, #698, .T. ) ;
#32 = DIRECTION ( 'NONE',  ( 1.000000000000000000, -0.000000000000000000, -0.000000000000000000 ) ) ;
#33 = LINE ( 'NONE', #506, #669 ) ;
#34 = EDGE_LOOP ( 'NONE', ( #661, #399, #961, #626 ) ) ;
#35 = CARTESIAN_POINT ( 'NONE',  ( -4.100000000000003197, -22.00000000000000000, 35.00100000000000477 ) ) ;
#36 = CARTESIAN_POINT ( 'NONE',  ( -3.469446951953614189E-15, -22.00000000000000000, 35.00100000000000477 ) ) ;
#37 = DIRECTION ( 'NONE',  ( -1.239088197126290570E-16, -0.000000000000000000, -1.000000000000000000 ) ) ;
#38 = ORIENTED_EDGE ( 'NONE', *, *, #727, .F. ) ;
#39 = EDGE_CURVE ( 'NONE', #405, #107, #637, .T. ) ;
#40 = DATE_AND_TIME ( #210, #334 ) ;
#41 = DIRECTION ( 'NONE',  ( 0.000000000000000000, 0.000000000000000000, 1.000000000000000000 ) ) ;
#42 = AXIS2_PLACEMENT_3D ( 'NONE', #745, #52, #263 ) ;
#43 = DIRECTION ( 'NONE',  ( 0.000000000000000000, 0.000000000000000000, 1.000000000000000000 ) ) ;
#44 = ORIENTED_EDGE ( 'NONE', *, *, #711, .T. ) ;
#45 =( NAMED_UNIT ( * ) PLANE_ANGLE_UNIT ( ) SI_UNIT ( $, .RADIAN. ) );
#46 = AXIS2_PLACEMENT_3D ( 'NONE', #237, #1, #649 ) ;
#47 = DIRECTION ( 'NONE',  ( 0.000000000000000000, 1.000000000000000000, 0.000000000000000000 ) ) ;
#48 = LINE ( 'NONE', #563, #928 ) ;
#49 = ORIENTED_EDGE ( 'NONE', *, *, #581, .T. ) ;
#50 = PERSON_AND_ORGANIZATION ( #135, #446 ) ;
#51 = LINE ( 'NONE', #357, #949 ) ;
#52 = DIRECTION ( 'NONE',  ( 0.000000000000000000, 1.000000000000000000, 0.000000000000000000 ) ) ;
#53 = VERTEX_POINT ( 'NONE', #19 ) ;
#54 = CYLINDRICAL_SURFACE ( 'NONE', #556, 1.600000000000000755 ) ;
#55 = EDGE_CURVE ( 'NONE', #860, #464, #393, .T. ) ;
#56 = PLANE ( 'NONE',  #425 ) ;
#57 = AXIS2_PLACEMENT_3D ( 'NONE', #392, #552, #385 ) ;
#58 = ORIENTED_EDGE ( 'NONE', *, *, #84, .T. ) ;
#59 = DIRECTION ( 'NONE',  ( 0.000000000000000000, 1.000000000000000000, 0.000000000000000000 ) ) ;
#60 = ADVANCED_FACE ( 'NONE', ( #177 ), #279, .T. ) ;
#61 = CC_DESIGN_DATE_AND_TIME_ASSIGNMENT ( #372, #774, ( #756 ) ) ;
#62 = AXIS2_PLACEMENT_3D ( 'NONE', #265, #776, #837 ) ;
#63 = CC_DESIGN_APPROVAL ( #465, ( #484 ) ) ;
#64 = CARTESIAN_POINT ( 'NONE',  ( 10.00000000000000000, 3.000000000000000000, 31.60000000000000142 ) ) ;
#65 = ORIENTED_EDGE ( 'NONE', *, *, #786, .T. ) ;
#66 = FACE_OUTER_BOUND ( 'NONE', #666, .T. ) ;
#67 = DIRECTION ( 'NONE',  ( 0.000000000000000000, 1.000000000000000000, 0.000000000000000000 ) ) ;
#68 = ORIENTED_EDGE ( 'NONE', *, *, #555, .F. ) ;
#69 = CARTESIAN_POINT ( 'NONE',  ( 11.99999999999999822, 0.000000000000000000, -23.40000000000000213 ) ) ;
#70 = EDGE_CURVE ( 'NONE', #21, #966, #195, .T. ) ;
#71 = FACE_BOUND ( 'NONE', #143, .T. ) ;
#72 = ORIENTED_EDGE ( 'NONE', *, *, #827, .T. ) ;
#73 = AXIS2_PLACEMENT_3D ( 'NONE', #358, #487, #797 ) ;
#74 = AXIS2_PLACEMENT_3D ( 'NONE', #577, #337, #884 ) ;
#75 = LINE ( 'NONE', #565, #754 ) ;
#76 = VECTOR ( 'NONE', #261, 1000.000000000000000 ) ;
#77 = LINE ( 'NONE', #380, #157 ) ;
#78 = ORIENTED_EDGE ( 'NONE', *, *, #810, .T. ) ;
#79 = CARTESIAN_POINT ( 'NONE',  ( 12.00000000000027889, 3.000000000000000000, 0.3999999999999964695 ) ) ;
#80 = LINE ( 'NONE', #14, #330 ) ;
#81 = CARTESIAN_POINT ( 'NONE',  ( 15.00000000000000178, 3.000000000000000000, 32.00000000000000000 ) ) ;
#82 = CYLINDRICAL_SURFACE ( 'NONE', #629, 2.999999999999999112 ) ;
#83 = DIRECTION ( 'NONE',  ( -0.000000000000000000, 1.000000000000000000, -0.000000000000000000 ) ) ;
#84 = EDGE_CURVE ( 'NONE', #740, #405, #421, .T. ) ;
#85 = FACE_OUTER_BOUND ( 'NONE', #607, .T. ) ;
#86 = ORIENTED_EDGE ( 'NONE', *, *, #711, .F. ) ;
#87 = VECTOR ( 'NONE', #480, 1000.000000000000000 ) ;
#88 = FACE_OUTER_BOUND ( 'NONE', #545, .T. ) ;
#89 = CARTESIAN_POINT ( 'NONE',  ( 11.99999999999999822, 3.000000000000000000, -26.60000000000000142 ) ) ;
#90 = AXIS2_PLACEMENT_3D ( 'NONE', #283, #588, #948 ) ;
#91 = CC_DESIGN_APPROVAL ( #775, ( #526 ) ) ;
#92 = ORIENTED_EDGE ( 'NONE', *, *, #31, .T. ) ;
#93 = CARTESIAN_POINT ( 'NONE',  ( -11.99999999999999822, 0.000000000000000000, 32.00000000000000000 ) ) ;
#94 = LINE ( 'NONE', #548, #551 ) ;
#95 = ORIENTED_EDGE ( 'NONE', *, *, #488, .T. ) ;
#96 = EDGE_CURVE ( 'NONE', #119, #327, #48, .T. ) ;
#97 = DIRECTION ( 'NONE',  ( -0.000000000000000000, -1.000000000000000000, -0.000000000000000000 ) ) ;
#98 = EDGE_CURVE ( 'NONE', #803, #516, #391, .T. ) ;
#99 = ORIENTED_EDGE ( 'NONE', *, *, #310, .T. ) ;
#100 = EDGE_CURVE ( 'NONE', #381, #298, #199, .T. ) ;
#101 = ORIENTED_EDGE ( 'NONE', *, *, #681, .F. ) ;
#102 = DIRECTION ( 'NONE',  ( -1.000000000000000000, 0.000000000000000000, 0.000000000000000000 ) ) ;
#103 = AXIS2_PLACEMENT_3D ( 'NONE', #428, #353, #665 ) ;
#104 = DIRECTION ( 'NONE',  ( 0.000000000000000000, 0.000000000000000000, 1.000000000000000000 ) ) ;
#105 = AXIS2_PLACEMENT_3D ( 'NONE', #314, #544, #850 ) ;
#106 = DIRECTION ( 'NONE',  ( 1.000000000000000000, -0.000000000000000000, -1.239088197126290570E-16 ) ) ;
#107 = VERTEX_POINT ( 'NONE', #969 ) ;
#108 = CYLINDRICAL_SURFACE ( 'NONE', #62, 1.600000000000002531 ) ;
#109 = AXIS2_PLACEMENT_3D ( 'NONE', #379, #628, #925 ) ;
#110 = ADVANCED_FACE ( 'NONE', ( #583 ), #259, .T. ) ;
#111 = CIRCLE ( 'NONE', #785, 3.000000000000002665 ) ;
#112 = DIRECTION ( 'NONE',  ( 0.000000000000000000, 0.000000000000000000, -1.000000000000000000 ) ) ;
#113 = FACE_BOUND ( 'NONE', #248, .T. ) ;
#114 = ORIENTED_EDGE ( 'NONE', *, *, #100, .F. ) ;
#115 = APPROVAL_ROLE ( '' ) ;
#116 = FACE_OUTER_BOUND ( 'NONE', #956, .T. ) ;
#117 = DIRECTION ( 'NONE',  ( -0.000000000000000000, -1.000000000000000000, -0.000000000000000000 ) ) ;
#118 = ADVANCED_FACE ( 'NONE', ( #573 ), #874, .F. ) ;
#119 = VERTEX_POINT ( 'NONE', #880 ) ;
#120 = DATE_AND_TIME ( #585, #574 ) ;
#121 = FACE_OUTER_BOUND ( 'NONE', #840, .T. ) ;
#122 = VECTOR ( 'NONE', #315, 1000.000000000000000 ) ;
#123 = CIRCLE ( 'NONE', #844, 3.000000000000002665 ) ;
#124 = DIRECTION ( 'NONE',  ( 0.000000000000000000, 1.000000000000000000, 0.000000000000000000 ) ) ;
#125 = EDGE_LOOP ( 'NONE', ( #65, #287 ) ) ;
#126 = APPROVAL_ROLE ( '' ) ;
#127 = CIRCLE ( 'NONE', #289, 1.600000000000002531 ) ;
#128 = CARTESIAN_POINT ( 'NONE',  ( -11.99999999999972111, 3.000000000000000000, 0.3999999999999964695 ) ) ;
#129 = CARTESIAN_POINT ( 'NONE',  ( 0.000000000000000000, 0.000000000000000000, 0.000000000000000000 ) ) ;
#130 = EDGE_CURVE ( 'NONE', #740, #966, #873, .T. ) ;
#131 = ORIENTED_EDGE ( 'NONE', *, *, #161, .T. ) ;
#132 = DIRECTION ( 'NONE',  ( 0.000000000000000000, 0.000000000000000000, 1.000000000000000000 ) ) ;
#133 = CARTESIAN_POINT ( 'NONE',  ( 15.00000000000000178, 3.000000000000000000, 32.00000000000000000 ) ) ;
#134 = DIRECTION ( 'NONE',  ( -1.239088197126290570E-16, 0.000000000000000000, -1.000000000000000000 ) ) ;
#135 = PERSON ( 'æœª', 'æœª', 'æœª', ('æœª'), ('æœª'), ('æœª') ) ;
#136 = ORIENTED_EDGE ( 'NONE', *, *, #845, .F. ) ;
#137 = PERSON_AND_ORGANIZATION_ROLE ( 'creator' ) ;
#138 = CC_DESIGN_DATE_AND_TIME_ASSIGNMENT ( #349, #580, ( #484 ) ) ;
#139 = CARTESIAN_POINT ( 'NONE',  ( -15.00000000000000711, -22.00000000000000000, -32.00000000000000000 ) ) ;
#140 = FACE_OUTER_BOUND ( 'NONE', #173, .T. ) ;
#141 = AXIS2_PLACEMENT_3D ( 'NONE', #839, #146, #762 ) ;
#142 = VERTEX_POINT ( 'NONE', #811 ) ;
#143 = EDGE_LOOP ( 'NONE', ( #847, #905 ) ) ;
#144 = CARTESIAN_POINT ( 'NONE',  ( -11.99999999999972111, 0.000000000000000000, 1.999999999999998224 ) ) ;
#145 = VECTOR ( 'NONE', #771, 1000.000000000000000 ) ;
#146 = DIRECTION ( 'NONE',  ( 0.000000000000000000, 1.000000000000000000, 0.000000000000000000 ) ) ;
#147 = EDGE_CURVE ( 'NONE', #107, #7, #33, .T. ) ;
#148 = ORIENTED_EDGE ( 'NONE', *, *, #282, .T. ) ;
#149 = CARTESIAN_POINT ( 'NONE',  ( 10.00000000000000000, 0.000000000000000000, 28.40000000000000213 ) ) ;
#150 = CARTESIAN_POINT ( 'NONE',  ( -12.00000000000000178, 3.000000000000000000, -25.00000000000000000 ) ) ;
#151 = ORIENTED_EDGE ( 'NONE', *, *, #727, .T. ) ;
#152 = EDGE_LOOP ( 'NONE', ( #68, #564, #634, #86 ) ) ;
#153 = CARTESIAN_POINT ( 'NONE',  ( 11.99999999999999822, 3.000000000000000000, -23.40000000000000213 ) ) ;
#154 = CYLINDRICAL_SURFACE ( 'NONE', #519, 1.600000000000000755 ) ;
#155 = ADVANCED_FACE ( 'NONE', ( #955, #185, #869, #191, #113, #347, #493 ), #739, .F. ) ;
#156 = ORIENTED_EDGE ( 'NONE', *, *, #227, .F. ) ;
#157 = VECTOR ( 'NONE', #974, 1000.000000000000000 ) ;
#158 = VECTOR ( 'NONE', #9, 1000.000000000000000 ) ;
#159 = DIRECTION ( 'NONE',  ( 0.000000000000000000, 0.000000000000000000, -1.000000000000000000 ) ) ;
#160 = CARTESIAN_POINT ( 'NONE',  ( 9.999999999999944933, 3.000000000000000000, 12.20000000000000107 ) ) ;
#161 = EDGE_CURVE ( 'NONE', #946, #584, #329, .T. ) ;
#162 = ORIENTED_EDGE ( 'NONE', *, *, #604, .T. ) ;
#163 = CYLINDRICAL_SURFACE ( 'NONE', #363, 1.600000000000002531 ) ;
#164 = EDGE_CURVE ( 'NONE', #328, #142, #442, .T. ) ;
#165 = CARTESIAN_POINT ( 'NONE',  ( 12.00000000000027889, 0.000000000000000000, 0.3999999999999964695 ) ) ;
#166 = ORIENTED_EDGE ( 'NONE', *, *, #55, .F. ) ;
#167 = EDGE_LOOP ( 'NONE', ( #38, #148, #275, #387, #246, #44, #72 ) ) ;
#168 = DIRECTION ( 'NONE',  ( 1.239088197126290570E-16, 0.000000000000000000, 1.000000000000000000 ) ) ;
#169 = CYLINDRICAL_SURFACE ( 'NONE', #57, 1.600000000000001865 ) ;
#170 = EDGE_LOOP ( 'NONE', ( #214, #947, #807, #233 ) ) ;
#171 = CIRCLE ( 'NONE', #892, 1.600000000000001643 ) ;
#172 = DIRECTION ( 'NONE',  ( -1.000000000000000000, 0.000000000000000000, 0.000000000000000000 ) ) ;
#173 = EDGE_LOOP ( 'NONE', ( #27, #592, #325, #941, #499, #798 ) ) ;
#174 = VECTOR ( 'NONE', #809, 1000.000000000000000 ) ;
#175 = ORIENTED_EDGE ( 'NONE', *, *, #282, .F. ) ;
#176 = CARTESIAN_POINT ( 'NONE',  ( -4.100000000000003197, -22.00000000000000000, -32.00000000000000000 ) ) ;
#177 = FACE_OUTER_BOUND ( 'NONE', #16, .T. ) ;
#178 = VERTEX_POINT ( 'NONE', #806 ) ;
#179 = DIRECTION ( 'NONE',  ( 0.000000000000000000, -1.000000000000000000, 0.000000000000000000 ) ) ;
#180 = CYLINDRICAL_SURFACE ( 'NONE', #205, 1.600000000000001865 ) ;
#181 = DIRECTION ( 'NONE',  ( 0.000000000000000000, 0.000000000000000000, 1.000000000000000000 ) ) ;
#182 = VERTEX_POINT ( 'NONE', #724 ) ;
#183 = LINE ( 'NONE', #953, #76 ) ;
#184 = CYLINDRICAL_SURFACE ( 'NONE', #690, 4.099999999999999645 ) ;
#185 = FACE_BOUND ( 'NONE', #255, .T. ) ;
#186 = ORIENTED_EDGE ( 'NONE', *, *, #707, .T. ) ;
#187 = APPROVAL_DATE_TIME ( #120, #465 ) ;
#188 = CIRCLE ( 'NONE', #897, 1.600000000000001643 ) ;
#189 = APPROVAL_PERSON_ORGANIZATION ( #667, #465, #126 ) ;
#190 = CYLINDRICAL_SURFACE ( 'NONE', #460, 1.600000000000000755 ) ;
#191 = FACE_BOUND ( 'NONE', #400, .T. ) ;
#192 = ORIENTED_EDGE ( 'NONE', *, *, #856, .T. ) ;
#193 =( NAMED_UNIT ( * ) SI_UNIT ( $, .STERADIAN. ) SOLID_ANGLE_UNIT ( ) );
#194 = LINE ( 'NONE', #890, #895 ) ;
#195 = LINE ( 'NONE', #651, #685 ) ;
#196 = ORIENTED_EDGE ( 'NONE', *, *, #389, .F. ) ;
#197 = APPROVAL_STATUS ( 'not_yet_approved' ) ;
#198 = DIRECTION ( 'NONE',  ( 0.000000000000000000, 0.000000000000000000, 1.000000000000000000 ) ) ;
#199 = CIRCLE ( 'NONE', #602, 1.600000000000000755 ) ;
#200 = AXIS2_PLACEMENT_3D ( 'NONE', #659, #655, #641 ) ;
#201 = CARTESIAN_POINT ( 'NONE',  ( 14.99999999999999289, 0.000000000000000000, -32.00000000000000000 ) ) ;
#202 = ORIENTED_EDGE ( 'NONE', *, *, #486, .T. ) ;
#203 = EDGE_CURVE ( 'NONE', #584, #371, #802, .T. ) ;
#204 = CARTESIAN_POINT ( 'NONE',  ( -11.99999999999999822, 3.000000000000000000, 35.00000000000000000 ) ) ;
#205 = AXIS2_PLACEMENT_3D ( 'NONE', #410, #964, #566 ) ;
#206 = CARTESIAN_POINT ( 'NONE',  ( -11.99999999999972111, 3.000000000000000000, 1.999999999999998224 ) ) ;
#207 = DIRECTION ( 'NONE',  ( -0.000000000000000000, -1.000000000000000000, -0.000000000000000000 ) ) ;
#208 = EDGE_CURVE ( 'NONE', #876, #422, #171, .T. ) ;
#209 = ORIENTED_EDGE ( 'NONE', *, *, #645, .T. ) ;
#210 = CALENDAR_DATE ( 2026, 20, 5 ) ;
#211 = DIRECTION ( 'NONE',  ( 0.000000000000000000, -1.000000000000000000, 0.000000000000000000 ) ) ;
#212 = CARTESIAN_POINT ( 'NONE',  ( -15.00000000000000711, -22.00000000000000000, -35.00000000000000000 ) ) ;
#213 = EDGE_LOOP ( 'NONE', ( #518, #918, #225, #101 ) ) ;
#214 = ORIENTED_EDGE ( 'NONE', *, *, #10, .F. ) ;
#215 = CARTESIAN_POINT ( 'NONE',  ( -12.00000000000000178, 3.000000000000000000, -25.00000000000000000 ) ) ;
#216 = DIRECTION ( 'NONE',  ( -1.000000000000000000, 0.000000000000000000, 0.000000000000000000 ) ) ;
#217 = VECTOR ( 'NONE', #708, 1000.000000000000000 ) ;
#218 = VECTOR ( 'NONE', #630, 1000.000000000000000 ) ;
#219 = ORIENTED_EDGE ( 'NONE', *, *, #730, .F. ) ;
#220 = EDGE_LOOP ( 'NONE', ( #131, #335, #229, #931 ) ) ;
#221 = DIRECTION ( 'NONE',  ( 0.000000000000000000, 0.000000000000000000, 1.000000000000000000 ) ) ;
#222 = VECTOR ( 'NONE', #450, 1000.000000000000000 ) ;
#223 = CARTESIAN_POINT ( 'NONE',  ( -11.99999999999972111, 3.000000000000000000, 1.999999999999998224 ) ) ;
#224 = ORIENTED_EDGE ( 'NONE', *, *, #96, .F. ) ;
#225 = ORIENTED_EDGE ( 'NONE', *, *, #257, .F. ) ;
#226 = CARTESIAN_POINT ( 'NONE',  ( -11.99999999999999822, 3.000000000000000000, 35.00000000000000000 ) ) ;
#227 = EDGE_CURVE ( 'NONE', #280, #53, #657, .T. ) ;
#228 = CARTESIAN_POINT ( 'NONE',  ( -14.99999999999999822, 3.000000000000000000, 35.00000000000000000 ) ) ;
#229 = ORIENTED_EDGE ( 'NONE', *, *, #645, .F. ) ;
#230 = APPROVAL_DATE_TIME ( #911, #733 ) ;
#231 = FACE_OUTER_BOUND ( 'NONE', #927, .T. ) ;
#232 = CARTESIAN_POINT ( 'NONE',  ( -5.000000000000001776, -22.00000000000000000, 6.195440985631455317E-16 ) ) ;
#233 = ORIENTED_EDGE ( 'NONE', *, *, #98, .F. ) ;
#234 = PERSON_AND_ORGANIZATION_ROLE ( 'classification_officer' ) ;
#235 = VECTOR ( 'NONE', #293, 1000.000000000000000 ) ;
#236 = CIRCLE ( 'NONE', #25, 4.099999999999999645 ) ;
#237 = CARTESIAN_POINT ( 'NONE',  ( 14.99999999999999289, 3.000000000000000000, -35.00000000000000000 ) ) ;
#238 = CARTESIAN_POINT ( 'NONE',  ( 14.99999999999999289, -22.00000000000000000, -35.00000000000000000 ) ) ;
#239 = ORIENTED_EDGE ( 'NONE', *, *, #531, .T. ) ;
#240 = ADVANCED_FACE ( 'NONE', ( #443 ), #921, .F. ) ;
#241 = CC_DESIGN_PERSON_AND_ORGANIZATION_ASSIGNMENT ( #355, #234, ( #756 ) ) ;
#242 = ORIENTED_EDGE ( 'NONE', *, *, #164, .F. ) ;
#243 = DIRECTION ( 'NONE',  ( 0.000000000000000000, 0.000000000000000000, 1.000000000000000000 ) ) ;
#244 = CARTESIAN_POINT ( 'NONE',  ( 4.999999999999992006, -32.00000000000000000, -32.00000000000000000 ) ) ;
#245 = EDGE_CURVE ( 'NONE', #768, #746, #749, .T. ) ;
#246 = ORIENTED_EDGE ( 'NONE', *, *, #70, .F. ) ;
#247 = CARTESIAN_POINT ( 'NONE',  ( -3.469446951953614189E-15, -22.00000000000000000, -32.00000000000000000 ) ) ;
#248 = EDGE_LOOP ( 'NONE', ( #822, #648 ) ) ;
#249 = ORIENTED_EDGE ( 'NONE', *, *, #365, .F. ) ;
#250 = CIRCLE ( 'NONE', #74, 3.000000000000002665 ) ;
#251 = LINE ( 'NONE', #696, #766 ) ;
#252 = VECTOR ( 'NONE', #598, 1000.000000000000000 ) ;
#253 = DIRECTION ( 'NONE',  ( -1.000000000000000000, 0.000000000000000000, 0.000000000000000000 ) ) ;
#254 =( GEOMETRIC_REPRESENTATION_CONTEXT ( 3 ) GLOBAL_UNCERTAINTY_ASSIGNED_CONTEXT ( ( #469 ) ) GLOBAL_UNIT_ASSIGNED_CONTEXT ( ( #971, #45, #193 ) ) REPRESENTATION_CONTEXT ( 'NONE', 'WORKASPACE' ) );
#255 = EDGE_LOOP ( 'NONE', ( #209, #757 ) ) ;
#256 = DIRECTION ( 'NONE',  ( 0.000000000000000000, 0.000000000000000000, -1.000000000000000000 ) ) ;
#257 = EDGE_CURVE ( 'NONE', #516, #803, #570, .T. ) ;
#258 = FACE_OUTER_BOUND ( 'NONE', #220, .T. ) ;
#259 = CYLINDRICAL_SURFACE ( 'NONE', #103, 2.999999999999999112 ) ;
#260 = ORIENTED_EDGE ( 'NONE', *, *, #31, .F. ) ;
#261 = DIRECTION ( 'NONE',  ( -0.000000000000000000, -1.000000000000000000, -0.000000000000000000 ) ) ;
#262 = DIRECTION ( 'NONE',  ( -0.000000000000000000, 1.000000000000000000, -0.000000000000000000 ) ) ;
#263 = DIRECTION ( 'NONE',  ( 0.000000000000000000, 0.000000000000000000, 1.000000000000000000 ) ) ;
#264 = VERTEX_POINT ( 'NONE', #366 ) ;
#265 = CARTESIAN_POINT ( 'NONE',  ( 9.999999999999944933, 3.000000000000000000, 13.80000000000000249 ) ) ;
#266 = VECTOR ( 'NONE', #134, 1000.000000000000000 ) ;
#267 = LINE ( 'NONE', #128, #222 ) ;
#268 = DIRECTION ( 'NONE',  ( -0.000000000000000000, -1.000000000000000000, -0.000000000000000000 ) ) ;
#269 = ORIENTED_EDGE ( 'NONE', *, *, #420, .F. ) ;
#270 = DIRECTION ( 'NONE',  ( -1.000000000000000000, -0.000000000000000000, 1.239088197126290570E-16 ) ) ;
#271 = CC_DESIGN_PERSON_AND_ORGANIZATION_ASSIGNMENT ( #50, #137, ( #526 ) ) ;
#272 = AXIS2_PLACEMENT_3D ( 'NONE', #670, #441, #369 ) ;
#273 = CARTESIAN_POINT ( 'NONE',  ( 12.00000000000000178, 3.000000000000000000, 32.00000000000000000 ) ) ;
#274 = CARTESIAN_POINT ( 'NONE',  ( 14.99999999999999289, 3.000000000000000000, -35.00000000000000000 ) ) ;
#275 = ORIENTED_EDGE ( 'NONE', *, *, #84, .F. ) ;
#276 = PERSON_AND_ORGANIZATION ( #135, #446 ) ;
#277 = ADVANCED_FACE ( 'NONE', ( #676, #753, #300, #140, #71, #900, #596 ), #985, .T. ) ;
#278 = DIRECTION ( 'NONE',  ( 0.000000000000000000, 1.000000000000000000, 0.000000000000000000 ) ) ;
#279 = PLANE ( 'NONE',  #22 ) ;
#280 = VERTEX_POINT ( 'NONE', #821 ) ;
#281 = COORDINATED_UNIVERSAL_TIME_OFFSET ( 8, 0, .AHEAD. ) ;
#282 = EDGE_CURVE ( 'NONE', #632, #405, #297, .T. ) ;
#283 = CARTESIAN_POINT ( 'NONE',  ( 12.00000000000027889, 3.000000000000000000, 1.999999999999998224 ) ) ;
#284 = AXIS2_PLACEMENT_3D ( 'NONE', #324, #321, #940 ) ;
#285 = CIRCLE ( 'NONE', #105, 10.00000000000000000 ) ;
#286 = CYLINDRICAL_SURFACE ( 'NONE', #408, 1.600000000000000755 ) ;
#287 = ORIENTED_EDGE ( 'NONE', *, *, #813, .T. ) ;
#288 = PERSON_AND_ORGANIZATION ( #135, #446 ) ;
#289 = AXIS2_PLACEMENT_3D ( 'NONE', #680, #761, #988 ) ;
#290 = LOCAL_TIME ( 3, 7, 42.00000000000000000, #386 ) ;
#291 = LINE ( 'NONE', #595, #862 ) ;
#292 = ADVANCED_FACE ( 'NONE', ( #688 ), #154, .F. ) ;
#293 = DIRECTION ( 'NONE',  ( 1.000000000000000000, 0.000000000000000000, 0.000000000000000000 ) ) ;
#294 = ORIENTED_EDGE ( 'NONE', *, *, #473, .F. ) ;
#295 = CALENDAR_DATE ( 2026, 20, 5 ) ;
#296 = CARTESIAN_POINT ( 'NONE',  ( 11.99999999999999822, 3.000000000000000000, -23.40000000000000213 ) ) ;
#297 = LINE ( 'NONE', #305, #266 ) ;
#298 = VERTEX_POINT ( 'NONE', #374 ) ;
#299 = DIRECTION ( 'NONE',  ( -0.000000000000000000, -1.000000000000000000, -0.000000000000000000 ) ) ;
#300 = FACE_BOUND ( 'NONE', #354, .T. ) ;
#301 = VECTOR ( 'NONE', #32, 1000.000000000000000 ) ;
#302 = ORIENTED_EDGE ( 'NONE', *, *, #227, .T. ) ;
#303 = CARTESIAN_POINT ( 'NONE',  ( 9.999999999999944933, 0.000000000000000000, 15.40000000000000568 ) ) ;
#304 = AXIS2_PLACEMENT_3D ( 'NONE', #973, #758, #748 ) ;
#305 = CARTESIAN_POINT ( 'NONE',  ( 14.99999999999999289, -22.00000000000000000, -35.00000000000000000 ) ) ;
#306 = ORIENTED_EDGE ( 'NONE', *, *, #147, .F. ) ;
#307 = DIRECTION ( 'NONE',  ( 0.000000000000000000, 1.000000000000000000, 0.000000000000000000 ) ) ;
#308 = ADVANCED_FACE ( 'NONE', ( #448, #456 ), #56, .F. ) ;
#309 = CYLINDRICAL_SURFACE ( 'NONE', #539, 10.00000000000000000 ) ;
#310 = EDGE_CURVE ( 'NONE', #779, #831, #671, .T. ) ;
#311 = ORIENTED_EDGE ( 'NONE', *, *, #601, .T. ) ;
#312 = EDGE_CURVE ( 'NONE', #327, #731, #77, .T. ) ;
#313 = DIRECTION ( 'NONE',  ( -0.000000000000000000, -1.000000000000000000, -0.000000000000000000 ) ) ;
#314 = CARTESIAN_POINT ( 'NONE',  ( -5.000000000000006217, -22.00000000000000000, -35.00000000000000000 ) ) ;
#315 = DIRECTION ( 'NONE',  ( -0.000000000000000000, -0.000000000000000000, -1.000000000000000000 ) ) ;
#316 = AXIS2_PLACEMENT_3D ( 'NONE', #791, #470, #854 ) ;
#317 = ORIENTED_EDGE ( 'NONE', *, *, #720, .F. ) ;
#318 = DIRECTION ( 'NONE',  ( 0.000000000000000000, 0.000000000000000000, -1.000000000000000000 ) ) ;
#319 = CARTESIAN_POINT ( 'NONE',  ( 10.00000000000000000, 3.000000000000000000, 30.00000000000000355 ) ) ;
#320 = APPROVAL_PERSON_ORGANIZATION ( #608, #733, #995 ) ;
#321 = DIRECTION ( 'NONE',  ( -0.000000000000000000, -0.000000000000000000, -1.000000000000000000 ) ) ;
#322 = ORIENTED_EDGE ( 'NONE', *, *, #982, .T. ) ;
#323 = CYLINDRICAL_SURFACE ( 'NONE', #426, 3.000000000000002665 ) ;
#324 = CARTESIAN_POINT ( 'NONE',  ( 4.999999999999992006, -22.00000000000000000, -35.00000000000000000 ) ) ;
#325 = ORIENTED_EDGE ( 'NONE', *, *, #245, .T. ) ;
#326 = CARTESIAN_POINT ( 'NONE',  ( 0.000000000000000000, 0.000000000000000000, -32.00000000000000000 ) ) ;
#327 = VERTEX_POINT ( 'NONE', #212 ) ;
#328 = VERTEX_POINT ( 'NONE', #361 ) ;
#329 = CIRCLE ( 'NONE', #42, 1.600000000000001643 ) ;
#330 = VECTOR ( 'NONE', #83, 1000.000000000000000 ) ;
#331 = DIRECTION ( 'NONE',  ( 0.000000000000000000, 1.000000000000000000, 0.000000000000000000 ) ) ;
#332 = CIRCLE ( 'NONE', #979, 1.600000000000001643 ) ;
#333 = ORIENTED_EDGE ( 'NONE', *, *, #517, .T. ) ;
#334 = LOCAL_TIME ( 3, 7, 42.00000000000000000, #594 ) ;
#335 = ORIENTED_EDGE ( 'NONE', *, *, #203, .T. ) ;
#336 = FACE_OUTER_BOUND ( 'NONE', #981, .T. ) ;
#337 = DIRECTION ( 'NONE',  ( -0.000000000000000000, -1.000000000000000000, -0.000000000000000000 ) ) ;
#338 = CARTESIAN_POINT ( 'NONE',  ( -11.99999999999972111, 3.000000000000000000, 3.600000000000000089 ) ) ;
#339 = EDGE_LOOP ( 'NONE', ( #474, #852 ) ) ;
#340 = CARTESIAN_POINT ( 'NONE',  ( -11.99999999999999822, 0.000000000000000000, 35.00000000000000000 ) ) ;
#341 = DIRECTION ( 'NONE',  ( -0.000000000000000000, -0.000000000000000000, -1.000000000000000000 ) ) ;
#342 = CARTESIAN_POINT ( 'NONE',  ( 0.000000000000000000, -32.00000000000000000, 0.000000000000000000 ) ) ;
#343 = ORIENTED_EDGE ( 'NONE', *, *, #972, .T. ) ;
#344 = PERSON_AND_ORGANIZATION_ROLE ( 'design_supplier' ) ;
#345 = VECTOR ( 'NONE', #706, 1000.000000000000000 ) ;
#346 = CARTESIAN_POINT ( 'NONE',  ( -14.99999999999999822, 0.000000000000000000, 35.00000000000000000 ) ) ;
#347 = FACE_BOUND ( 'NONE', #125, .T. ) ;
#348 = ORIENTED_EDGE ( 'NONE', *, *, #601, .F. ) ;
#349 = DATE_AND_TIME ( #977, #397 ) ;
#350 = CIRCLE ( 'NONE', #90, 1.600000000000001643 ) ;
#351 = AXIS2_PLACEMENT_3D ( 'NONE', #983, #132, #877 ) ;
#352 = CYLINDRICAL_SURFACE ( 'NONE', #945, 1.600000000000000755 ) ;
#353 = DIRECTION ( 'NONE',  ( 0.000000000000000000, -1.000000000000000000, 0.000000000000000000 ) ) ;
#354 = EDGE_LOOP ( 'NONE', ( #508, #114 ) ) ;
#355 = PERSON_AND_ORGANIZATION ( #135, #446 ) ;
#356 = ADVANCED_FACE ( 'NONE', ( #522 ), #286, .F. ) ;
#357 = CARTESIAN_POINT ( 'NONE',  ( 14.99999999999999289, 0.000000000000000000, -35.00000000000000000 ) ) ;
#358 = CARTESIAN_POINT ( 'NONE',  ( -3.469446951953614189E-15, -22.00000000000000000, -35.00000000000000000 ) ) ;
#359 = ORIENTED_EDGE ( 'NONE', *, *, #972, .F. ) ;
#360 = LINE ( 'NONE', #527, #738 ) ;
#361 = CARTESIAN_POINT ( 'NONE',  ( -4.100000000000003197, -22.00000000000000000, -35.00000000000000000 ) ) ;
#362 = ORIENTED_EDGE ( 'NONE', *, *, #98, .T. ) ;
#363 = AXIS2_PLACEMENT_3D ( 'NONE', #615, #799, #467 ) ;
#364 = DIRECTION ( 'NONE',  ( 0.000000000000000000, 0.000000000000000000, 1.000000000000000000 ) ) ;
#365 = EDGE_CURVE ( 'NONE', #422, #367, #515, .T. ) ;
#366 = CARTESIAN_POINT ( 'NONE',  ( 11.99999999999999822, 0.000000000000000000, -26.60000000000000142 ) ) ;
#367 = VERTEX_POINT ( 'NONE', #759 ) ;
#368 = EDGE_CURVE ( 'NONE', #53, #831, #975, .T. ) ;
#369 = DIRECTION ( 'NONE',  ( 0.000000000000000000, 0.000000000000000000, 1.000000000000000000 ) ) ;
#370 = CARTESIAN_POINT ( 'NONE',  ( -11.99999999999972111, 0.000000000000000000, 3.600000000000000533 ) ) ;
#371 = VERTEX_POINT ( 'NONE', #370 ) ;
#372 = DATE_AND_TIME ( #295, #290 ) ;
#373 = LINE ( 'NONE', #133, #963 ) ;
#374 = CARTESIAN_POINT ( 'NONE',  ( -12.00000000000000178, 3.000000000000000000, -26.60000000000000142 ) ) ;
#375 = VECTOR ( 'NONE', #117, 1000.000000000000000 ) ;
#376 = CIRCLE ( 'NONE', #913, 3.000000000000002665 ) ;
#377 = ORIENTED_EDGE ( 'NONE', *, *, #164, .T. ) ;
#378 = AXIS2_PLACEMENT_3D ( 'NONE', #427, #492, #198 ) ;
#379 = CARTESIAN_POINT ( 'NONE',  ( 4.999999999999996447, -22.00000000000000000, -6.195440985631448415E-16 ) ) ;
#380 = CARTESIAN_POINT ( 'NONE',  ( -15.00000000000000711, -22.00000000000000000, -32.00000000000000000 ) ) ;
#381 = VERTEX_POINT ( 'NONE', #682 ) ;
#382 = EDGE_CURVE ( 'NONE', #7, #632, #859, .T. ) ;
#383 = DIRECTION ( 'NONE',  ( -1.000000000000000000, 0.000000000000000000, -0.000000000000000000 ) ) ;
#384 = CARTESIAN_POINT ( 'NONE',  ( 15.00000000000000178, 0.000000000000000000, 32.00000000000000000 ) ) ;
#385 = DIRECTION ( 'NONE',  ( 0.000000000000000000, 0.000000000000000000, -1.000000000000000000 ) ) ;
#386 = COORDINATED_UNIVERSAL_TIME_OFFSET ( 8, 0, .AHEAD. ) ;
#387 = ORIENTED_EDGE ( 'NONE', *, *, #130, .T. ) ;
#388 = DIRECTION ( 'NONE',  ( 0.000000000000000000, 0.000000000000000000, -1.000000000000000000 ) ) ;
#389 = EDGE_CURVE ( 'NONE', #7, #673, #390, .T. ) ;
#390 = LINE ( 'NONE', #693, #781 ) ;
#391 = CIRCLE ( 'NONE', #912, 1.600000000000002531 ) ;
#392 = CARTESIAN_POINT ( 'NONE',  ( 12.00000000000027889, 3.000000000000000000, 1.999999999999998224 ) ) ;
#393 = CIRCLE ( 'NONE', #538, 4.099999999999999645 ) ;
#394 = VERTEX_POINT ( 'NONE', #858 ) ;
#395 = AXIS2_PLACEMENT_3D ( 'NONE', #562, #505, #868 ) ;
#396 = CARTESIAN_POINT ( 'NONE',  ( -15.00000000000000711, 3.000000000000000000, -35.00000000000000000 ) ) ;
#397 = LOCAL_TIME ( 3, 7, 42.00000000000000000, #424 ) ;
#398 = ADVANCED_FACE ( 'NONE', ( #557 ), #5, .F. ) ;
#399 = ORIENTED_EDGE ( 'NONE', *, *, #709, .T. ) ;
#400 = EDGE_LOOP ( 'NONE', ( #311, #49 ) ) ;
#401 = CARTESIAN_POINT ( 'NONE',  ( -15.00000000000000711, 3.000000000000000000, -35.00000000000000000 ) ) ;
#402 = ORIENTED_EDGE ( 'NONE', *, *, #581, .F. ) ;
#403 = ORIENTED_EDGE ( 'NONE', *, *, #161, .F. ) ;
#404 = LINE ( 'NONE', #346, #174 ) ;
#405 = VERTEX_POINT ( 'NONE', #238 ) ;
#406 = ORIENTED_EDGE ( 'NONE', *, *, #623, .F. ) ;
#407 = CARTESIAN_POINT ( 'NONE',  ( 14.99999999999999289, 3.000000000000000000, -32.00000000000000000 ) ) ;
#408 = AXIS2_PLACEMENT_3D ( 'NONE', #590, #833, #980 ) ;
#409 = CIRCLE ( 'NONE', #687, 1.600000000000001643 ) ;
#410 = CARTESIAN_POINT ( 'NONE',  ( -11.99999999999972111, 3.000000000000000000, 1.999999999999998224 ) ) ;
#411 = DIRECTION ( 'NONE',  ( 0.000000000000000000, 0.000000000000000000, 1.000000000000000000 ) ) ;
#412 = LOCAL_TIME ( 3, 7, 42.00000000000000000, #906 ) ;
#413 = ORIENTED_EDGE ( 'NONE', *, *, #937, .T. ) ;
#414 = DIRECTION ( 'NONE',  ( -0.000000000000000000, -0.000000000000000000, -1.000000000000000000 ) ) ;
#415 = CC_DESIGN_PERSON_AND_ORGANIZATION_ASSIGNMENT ( #440, #344, ( #526 ) ) ;
#416 = CARTESIAN_POINT ( 'NONE',  ( 14.99999999999999289, -22.00000000000000000, -32.00000000000000000 ) ) ;
#417 = CARTESIAN_POINT ( 'NONE',  ( 12.00000000000027889, 3.000000000000000000, 1.999999999999998224 ) ) ;
#418 = VERTEX_POINT ( 'NONE', #777 ) ;
#419 = CARTESIAN_POINT ( 'NONE',  ( -11.99999999999972111, 0.000000000000000000, 0.3999999999999964695 ) ) ;
#420 = EDGE_CURVE ( 'NONE', #966, #778, #477, .T. ) ;
#421 = LINE ( 'NONE', #274, #959 ) ;
#422 = VERTEX_POINT ( 'NONE', #944 ) ;
#423 = EDGE_CURVE ( 'NONE', #394, #746, #80, .T. ) ;
#424 = COORDINATED_UNIVERSAL_TIME_OFFSET ( 8, 0, .AHEAD. ) ;
#425 = AXIS2_PLACEMENT_3D ( 'NONE', #599, #909, #216 ) ;
#426 = AXIS2_PLACEMENT_3D ( 'NONE', #326, #463, #930 ) ;
#427 = CARTESIAN_POINT ( 'NONE',  ( 11.99999999999999822, 3.000000000000000000, -25.00000000000000000 ) ) ;
#428 = CARTESIAN_POINT ( 'NONE',  ( 12.00000000000000178, 3.000000000000000000, 32.00000000000000000 ) ) ;
#429 = ORIENTED_EDGE ( 'NONE', *, *, #889, .T. ) ;
#430 = MECHANICAL_CONTEXT ( 'NONE', #529, 'mechanical' ) ;
#431 = AXIS2_PLACEMENT_3D ( 'NONE', #914, #752, #221 ) ;
#432 = CARTESIAN_POINT ( 'NONE',  ( 14.99999999999999289, 0.000000000000000000, -32.00000000000000000 ) ) ;
#433 = DIRECTION ( 'NONE',  ( 0.000000000000000000, -0.000000000000000000, 1.000000000000000000 ) ) ;
#434 = EDGE_CURVE ( 'NONE', #731, #530, #939, .T. ) ;
#435 = ORIENTED_EDGE ( 'NONE', *, *, #720, .T. ) ;
#436 = DIRECTION ( 'NONE',  ( 0.000000000000000000, -1.000000000000000000, 0.000000000000000000 ) ) ;
#437 = DIRECTION ( 'NONE',  ( -0.000000000000000000, -1.000000000000000000, -0.000000000000000000 ) ) ;
#438 = DIRECTION ( 'NONE',  ( 0.000000000000000000, 0.000000000000000000, -1.000000000000000000 ) ) ;
#439 = VERTEX_POINT ( 'NONE', #384 ) ;
#440 = PERSON_AND_ORGANIZATION ( #135, #446 ) ;
#441 = DIRECTION ( 'NONE',  ( 0.000000000000000000, 1.000000000000000000, 0.000000000000000000 ) ) ;
#442 = CIRCLE ( 'NONE', #73, 4.099999999999999645 ) ;
#443 = FACE_OUTER_BOUND ( 'NONE', #725, .T. ) ;
#444 = ORIENTED_EDGE ( 'NONE', *, *, #845, .T. ) ;
#445 = AXIS2_PLACEMENT_3D ( 'NONE', #765, #388, #102 ) ;
#446 = ORGANIZATION ( 'æœª', 'æœª', '' ) ;
#447 = CARTESIAN_POINT ( 'NONE',  ( -15.00000000000000711, 3.000000000000000000, -32.00000000000000000 ) ) ;
#448 = FACE_BOUND ( 'NONE', #458, .T. ) ;
#449 = VERTEX_POINT ( 'NONE', #701 ) ;
#450 = DIRECTION ( 'NONE',  ( -0.000000000000000000, -1.000000000000000000, -0.000000000000000000 ) ) ;
#451 = EDGE_CURVE ( 'NONE', #464, #860, #236, .T. ) ;
#452 = DIRECTION ( 'NONE',  ( -0.000000000000000000, -1.000000000000000000, -0.000000000000000000 ) ) ;
#453 = ORIENTED_EDGE ( 'NONE', *, *, #813, .F. ) ;
#454 = EDGE_CURVE ( 'NONE', #530, #182, #251, .T. ) ;
#455 = FACE_OUTER_BOUND ( 'NONE', #167, .T. ) ;
#456 = FACE_OUTER_BOUND ( 'NONE', #631, .T. ) ;
#457 = CIRCLE ( 'NONE', #784, 1.600000000000000755 ) ;
#458 = EDGE_LOOP ( 'NONE', ( #471, #166 ) ) ;
#459 = EDGE_CURVE ( 'NONE', #731, #673, #736, .T. ) ;
#460 = AXIS2_PLACEMENT_3D ( 'NONE', #485, #732, #112 ) ;
#461 = CARTESIAN_POINT ( 'NONE',  ( 4.099999999999996092, -22.00000000000000000, -32.00000000000000000 ) ) ;
#462 = CC_DESIGN_SECURITY_CLASSIFICATION ( #756, ( #526 ) ) ;
#463 = DIRECTION ( 'NONE',  ( 1.000000000000000000, 0.000000000000000000, 0.000000000000000000 ) ) ;
#464 = VERTEX_POINT ( 'NONE', #176 ) ;
#465 = APPROVAL ( #967, 'æœª' ) ;
#466 = PRODUCT_DEFINITION_SHAPE ( 'NONE', 'NONE',  #484 ) ;
#467 = DIRECTION ( 'NONE',  ( 0.000000000000000000, 0.000000000000000000, -1.000000000000000000 ) ) ;
#468 = FACE_OUTER_BOUND ( 'NONE', #763, .T. ) ;
#469 = UNCERTAINTY_MEASURE_WITH_UNIT (LENGTH_MEASURE( 1.000000000000000082E-05 ), #971, 'distance_accuracy_value', 'NONE');
#470 = DIRECTION ( 'NONE',  ( 0.000000000000000000, 1.000000000000000000, 0.000000000000000000 ) ) ;
#471 = ORIENTED_EDGE ( 'NONE', *, *, #451, .F. ) ;
#472 = LINE ( 'NONE', #401, #87 ) ;
#473 = EDGE_CURVE ( 'NONE', #778, #418, #472, .T. ) ;
#474 = ORIENTED_EDGE ( 'NONE', *, *, #907, .F. ) ;
#475 = EDGE_LOOP ( 'NONE', ( #835, #136 ) ) ;
#476 = CIRCLE ( 'NONE', #378, 1.600000000000000755 ) ;
#477 = LINE ( 'NONE', #636, #218 ) ;
#478 = ORIENTED_EDGE ( 'NONE', *, *, #208, .T. ) ;
#479 = ORIENTED_EDGE ( 'NONE', *, *, #245, .F. ) ;
#480 = DIRECTION ( 'NONE',  ( 1.239088197126290570E-16, 0.000000000000000000, 1.000000000000000000 ) ) ;
#481 = ORIENTED_EDGE ( 'NONE', *, *, #39, .T. ) ;
#482 = ORIENTED_EDGE ( 'NONE', *, *, #434, .T. ) ;
#483 = FACE_OUTER_BOUND ( 'NONE', #170, .T. ) ;
#484 = PRODUCT_DEFINITION ( 'æœ', '', #526, #15 ) ;
#485 = CARTESIAN_POINT ( 'NONE',  ( 10.00000000000000000, 3.000000000000000000, 30.00000000000000355 ) ) ;
#486 = EDGE_CURVE ( 'NONE', #779, #280, #717, .T. ) ;
#487 = DIRECTION ( 'NONE',  ( 0.000000000000000000, 0.000000000000000000, -1.000000000000000000 ) ) ;
#488 = EDGE_CURVE ( 'NONE', #178, #107, #547, .T. ) ;
#489 = ORIENTED_EDGE ( 'NONE', *, *, #434, .F. ) ;
#490 = DIRECTION ( 'NONE',  ( 0.000000000000000000, 1.000000000000000000, 0.000000000000000000 ) ) ;
#491 = CLOSED_SHELL ( 'NONE', ( #532, #920, #664, #23, #525, #898, #292, #155, #277, #883, #996, #398, #888, #697, #625, #356, #118, #240, #922, #308, #60, #668, #942, #110, #513, #512, #885 ) ) ;
#492 = DIRECTION ( 'NONE',  ( 0.000000000000000000, 1.000000000000000000, 0.000000000000000000 ) ) ;
#493 = FACE_OUTER_BOUND ( 'NONE', #617, .T. ) ;
#494 = VERTEX_POINT ( 'NONE', #160 ) ;
#495 = APPLICATION_PROTOCOL_DEFINITION ( 'international standard', 'config_control_design', 1994, #529 ) ;
#496 = CARTESIAN_POINT ( 'NONE',  ( 14.99999999999999289, 0.000000000000000000, -35.00000000000000000 ) ) ;
#497 = EDGE_CURVE ( 'NONE', #855, #182, #376, .T. ) ;
#498 = DIRECTION ( 'NONE',  ( 0.000000000000000000, 0.000000000000000000, -1.000000000000000000 ) ) ;
#499 = ORIENTED_EDGE ( 'NONE', *, *, #70, .T. ) ;
#500 = PERSON_AND_ORGANIZATION_ROLE ( 'creator' ) ;
#501 = LINE ( 'NONE', #496, #301 ) ;
#502 = DIRECTION ( 'NONE',  ( 0.000000000000000000, 1.000000000000000000, 0.000000000000000000 ) ) ;
#503 = ORIENTED_EDGE ( 'NONE', *, *, #28, .T. ) ;
#504 = AXIS2_PLACEMENT_3D ( 'NONE', #129, #124, #433 ) ;
#505 = DIRECTION ( 'NONE',  ( 0.000000000000000000, 1.000000000000000000, 0.000000000000000000 ) ) ;
#506 = CARTESIAN_POINT ( 'NONE',  ( 4.999999999999992006, -32.00000000000000000, -32.00000000000000000 ) ) ;
#507 = CIRCLE ( 'NONE', #627, 1.600000000000000755 ) ;
#508 = ORIENTED_EDGE ( 'NONE', *, *, #593, .F. ) ;
#509 = DIRECTION ( 'NONE',  ( 0.000000000000000000, 1.000000000000000000, 0.000000000000000000 ) ) ;
#510 = DIRECTION ( 'NONE',  ( 0.000000000000000000, 1.000000000000000000, 0.000000000000000000 ) ) ;
#511 = ORIENTED_EDGE ( 'NONE', *, *, #312, .T. ) ;
#512 = ADVANCED_FACE ( 'NONE', ( #2 ), #309, .T. ) ;
#513 = ADVANCED_FACE ( 'NONE', ( #88 ), #323, .T. ) ;
#514 = CARTESIAN_POINT ( 'NONE',  ( -12.00000000000000178, 3.000000000000000000, -23.40000000000000213 ) ) ;
#515 = LINE ( 'NONE', #825, #842 ) ;
#516 = VERTEX_POINT ( 'NONE', #772 ) ;
#517 = EDGE_CURVE ( 'NONE', #178, #327, #285, .T. ) ;
#518 = ORIENTED_EDGE ( 'NONE', *, *, #907, .T. ) ;
#519 = AXIS2_PLACEMENT_3D ( 'NONE', #150, #612, #438 ) ;
#520 = DIRECTION ( 'NONE',  ( 0.000000000000000000, 1.000000000000000000, 0.000000000000000000 ) ) ;
#521 = AXIS2_PLACEMENT_3D ( 'NONE', #550, #18, #172 ) ;
#522 = FACE_OUTER_BOUND ( 'NONE', #866, .T. ) ;
#523 = VERTEX_POINT ( 'NONE', #165 ) ;
#524 = VECTOR ( 'NONE', #437, 1000.000000000000000 ) ;
#525 = ADVANCED_FACE ( 'NONE', ( #468 ), #352, .F. ) ;
#526 = PRODUCT_DEFINITION_FORMATION_WITH_SPECIFIED_SOURCE ( 'ä»', '', #620, .NOT_KNOWN. ) ;
#527 = CARTESIAN_POINT ( 'NONE',  ( 14.99999999999999289, -32.00000000000000000, -32.00000000000000000 ) ) ;
#528 = CARTESIAN_POINT ( 'NONE',  ( 10.00000000000000000, 0.000000000000000000, 30.00000000000000355 ) ) ;
#529 = APPLICATION_CONTEXT ( 'configuration controlled 3d designs of mechanical parts and assemblies' ) ;
#530 = VERTEX_POINT ( 'NONE', #872 ) ;
#531 = EDGE_CURVE ( 'NONE', #119, #740, #501, .T. ) ;
#532 = ADVANCED_FACE ( 'NONE', ( #116 ), #646, .F. ) ;
#533 = DIRECTION ( 'NONE',  ( 0.000000000000000000, 0.000000000000000000, 1.000000000000000000 ) ) ;
#534 = CARTESIAN_POINT ( 'NONE',  ( 0.000000000000000000, 3.000000000000000000, 0.000000000000000000 ) ) ;
#535 = ORIENTED_EDGE ( 'NONE', *, *, #589, .T. ) ;
#536 = LINE ( 'NONE', #561, #145 ) ;
#537 = DIRECTION ( 'NONE',  ( -1.239088197126290570E-16, 0.000000000000000000, -1.000000000000000000 ) ) ;
#538 = AXIS2_PLACEMENT_3D ( 'NONE', #624, #638, #253 ) ;
#539 = AXIS2_PLACEMENT_3D ( 'NONE', #232, #780, #712 ) ;
#540 = ORIENTED_EDGE ( 'NONE', *, *, #312, .F. ) ;
#541 = AXIS2_PLACEMENT_3D ( 'NONE', #929, #313, #256 ) ;
#542 = FACE_OUTER_BOUND ( 'NONE', #788, .T. ) ;
#543 = VECTOR ( 'NONE', #436, 1000.000000000000000 ) ;
#544 = DIRECTION ( 'NONE',  ( -0.000000000000000000, -0.000000000000000000, -1.000000000000000000 ) ) ;
#545 = EDGE_LOOP ( 'NONE', ( #677, #575, #851, #269 ) ) ;
#546 = ORIENTED_EDGE ( 'NONE', *, *, #684, .T. ) ;
#547 = LINE ( 'NONE', #787, #345 ) ;
#548 = CARTESIAN_POINT ( 'NONE',  ( 9.999999999999944933, 3.000000000000000000, 15.40000000000000568 ) ) ;
#549 = ORIENTED_EDGE ( 'NONE', *, *, #20, .F. ) ;
#550 = CARTESIAN_POINT ( 'NONE',  ( -5.000000000000006217, -22.00000000000000000, -32.00000000000000000 ) ) ;
#551 = VECTOR ( 'NONE', #11, 1000.000000000000000 ) ;
#552 = DIRECTION ( 'NONE',  ( -0.000000000000000000, -1.000000000000000000, -0.000000000000000000 ) ) ;
#553 = AXIS2_PLACEMENT_3D ( 'NONE', #528, #67, #915 ) ;
#554 = ORIENTED_EDGE ( 'NONE', *, *, #935, .T. ) ;
#555 = EDGE_CURVE ( 'NONE', #746, #21, #123, .T. ) ;
#556 = AXIS2_PLACEMENT_3D ( 'NONE', #215, #299, #603 ) ;
#557 = FACE_OUTER_BOUND ( 'NONE', #750, .T. ) ;
#558 = EDGE_CURVE ( 'NONE', #523, #367, #409, .T. ) ;
#559 = ORIENTED_EDGE ( 'NONE', *, *, #382, .F. ) ;
#560 = ORIENTED_EDGE ( 'NONE', *, *, #459, .F. ) ;
#561 = CARTESIAN_POINT ( 'NONE',  ( 14.99999999999999289, 0.000000000000000000, -32.00000000000000000 ) ) ;
#562 = CARTESIAN_POINT ( 'NONE',  ( 11.99999999999999822, 0.000000000000000000, -25.00000000000000000 ) ) ;
#563 = CARTESIAN_POINT ( 'NONE',  ( -15.00000000000000711, 3.000000000000000000, -35.00000000000000000 ) ) ;
#564 = ORIENTED_EDGE ( 'NONE', *, *, #423, .F. ) ;
#565 = CARTESIAN_POINT ( 'NONE',  ( -5.000000000000006217, -32.00000000000000000, -35.00000000000000000 ) ) ;
#566 = DIRECTION ( 'NONE',  ( 0.000000000000000000, 0.000000000000000000, -1.000000000000000000 ) ) ;
#567 = DIRECTION ( 'NONE',  ( 1.239088197126290570E-16, 0.000000000000000000, 1.000000000000000000 ) ) ;
#568 = ORIENTED_EDGE ( 'NONE', *, *, #382, .T. ) ;
#569 = FACE_BOUND ( 'NONE', #783, .T. ) ;
#570 = CIRCLE ( 'NONE', #141, 1.600000000000002531 ) ;
#571 = CARTESIAN_POINT ( 'NONE',  ( 11.99999999999999822, 3.000000000000000000, -26.60000000000000142 ) ) ;
#572 = CIRCLE ( 'NONE', #431, 1.600000000000000755 ) ;
#573 = FACE_OUTER_BOUND ( 'NONE', #782, .T. ) ;
#574 = LOCAL_TIME ( 3, 7, 42.00000000000000000, #281 ) ;
#575 = ORIENTED_EDGE ( 'NONE', *, *, #531, .F. ) ;
#576 = EDGE_CURVE ( 'NONE', #439, #394, #250, .T. ) ;
#577 = CARTESIAN_POINT ( 'NONE',  ( 12.00000000000000178, 0.000000000000000000, 32.00000000000000000 ) ) ;
#578 = CARTESIAN_POINT ( 'NONE',  ( -12.00000000000000178, 3.000000000000000000, -25.00000000000000000 ) ) ;
#579 = ORIENTED_EDGE ( 'NONE', *, *, #517, .F. ) ;
#580 = DATE_TIME_ROLE ( 'creation_date' ) ;
#581 = EDGE_CURVE ( 'NONE', #704, #264, #639, .T. ) ;
#582 = DIRECTION ( 'NONE',  ( 0.000000000000000000, 1.000000000000000000, 0.000000000000000000 ) ) ;
#583 = FACE_OUTER_BOUND ( 'NONE', #152, .T. ) ;
#584 = VERTEX_POINT ( 'NONE', #954 ) ;
#585 = CALENDAR_DATE ( 2026, 20, 5 ) ;
#586 = AXIS2_PLACEMENT_3D ( 'NONE', #223, #207, #606 ) ;
#587 = AXIS2_PLACEMENT_3D ( 'NONE', #989, #926, #621 ) ;
#588 = DIRECTION ( 'NONE',  ( 0.000000000000000000, 1.000000000000000000, 0.000000000000000000 ) ) ;
#589 = EDGE_CURVE ( 'NONE', #182, #418, #194, .T. ) ;
#590 = CARTESIAN_POINT ( 'NONE',  ( 11.99999999999999822, 3.000000000000000000, -25.00000000000000000 ) ) ;
#591 = VECTOR ( 'NONE', #414, 1000.000000000000000 ) ;
#592 = ORIENTED_EDGE ( 'NONE', *, *, #875, .T. ) ;
#593 = EDGE_CURVE ( 'NONE', #298, #381, #457, .T. ) ;
#594 = COORDINATED_UNIVERSAL_TIME_OFFSET ( 8, 0, .AHEAD. ) ;
#595 = CARTESIAN_POINT ( 'NONE',  ( 9.999999999999944933, 3.000000000000000000, 12.20000000000000107 ) ) ;
#596 = FACE_BOUND ( 'NONE', #339, .T. ) ;
#597 = ORIENTED_EDGE ( 'NONE', *, *, #558, .T. ) ;
#598 = DIRECTION ( 'NONE',  ( -0.000000000000000000, -1.000000000000000000, -0.000000000000000000 ) ) ;
#599 = CARTESIAN_POINT ( 'NONE',  ( 14.99999999999999289, -32.00000000000000000, -32.00000000000000000 ) ) ;
#600 = VERTEX_POINT ( 'NONE', #419 ) ;
#601 = EDGE_CURVE ( 'NONE', #264, #704, #721, .T. ) ;
#602 = AXIS2_PLACEMENT_3D ( 'NONE', #578, #502, #181 ) ;
#603 = DIRECTION ( 'NONE',  ( 0.000000000000000000, 0.000000000000000000, -1.000000000000000000 ) ) ;
#604 = EDGE_CURVE ( 'NONE', #855, #394, #404, .T. ) ;
#605 = AXIS2_PLACEMENT_3D ( 'NONE', #319, #934, #243 ) ;
#606 = DIRECTION ( 'NONE',  ( 0.000000000000000000, 0.000000000000000000, -1.000000000000000000 ) ) ;
#607 = EDGE_LOOP ( 'NONE', ( #478, #694, #658, #317 ) ) ;
#608 = PERSON_AND_ORGANIZATION ( #135, #446 ) ;
#609 = CIRCLE ( 'NONE', #304, 1.600000000000000755 ) ;
#610 = ORIENTED_EDGE ( 'NONE', *, *, #604, .F. ) ;
#611 = DIRECTION ( 'NONE',  ( 0.000000000000000000, 0.000000000000000000, 1.000000000000000000 ) ) ;
#612 = DIRECTION ( 'NONE',  ( -0.000000000000000000, -1.000000000000000000, -0.000000000000000000 ) ) ;
#613 = ORIENTED_EDGE ( 'NONE', *, *, #257, .T. ) ;
#614 = ADVANCED_BREP_SHAPE_REPRESENTATION ( '\X2\7535673a9a7152a8\X0\_\X2\96fe5316\X0\_\X2\652f67b6\X0\', ( #743, #351 ), #254 ) ;
#615 = CARTESIAN_POINT ( 'NONE',  ( 9.999999999999944933, 3.000000000000000000, 13.80000000000000249 ) ) ;
#616 = DIRECTION ( 'NONE',  ( -1.000000000000000000, 0.000000000000000000, 0.000000000000000000 ) ) ;
#617 = EDGE_LOOP ( 'NONE', ( #610, #893, #970, #689, #834, #986 ) ) ;
#618 = CALENDAR_DATE ( 2026, 20, 5 ) ;
#619 = CARTESIAN_POINT ( 'NONE',  ( -11.99999999999972111, 3.000000000000000000, 0.3999999999999964695 ) ) ;
#620 = PRODUCT ( '\X2\7535673a9a7152a8\X0\_\X2\96fe5316\X0\_\X2\652f67b6\X0\', '\X2\7535673a9a7152a8\X0\_\X2\96fe5316\X0\_\X2\652f67b6\X0\', '', ( #430 ) ) ;
#621 = DIRECTION ( 'NONE',  ( -1.000000000000000000, 0.000000000000000000, 0.000000000000000000 ) ) ;
#622 = CIRCLE ( 'NONE', #316, 1.600000000000000755 ) ;
#623 = EDGE_CURVE ( 'NONE', #640, #923, #476, .T. ) ;
#624 = CARTESIAN_POINT ( 'NONE',  ( -3.469446951953614189E-15, -22.00000000000000000, -32.00000000000000000 ) ) ;
#625 = ADVANCED_FACE ( 'NONE', ( #121 ), #190, .F. ) ;
#626 = ORIENTED_EDGE ( 'NONE', *, *, #889, .F. ) ;
#627 = AXIS2_PLACEMENT_3D ( 'NONE', #675, #832, #533 ) ;
#628 = DIRECTION ( 'NONE',  ( -1.239088197126290570E-16, 0.000000000000000000, -1.000000000000000000 ) ) ;
#629 = AXIS2_PLACEMENT_3D ( 'NONE', #867, #179, #159 ) ;
#630 = DIRECTION ( 'NONE',  ( -1.000000000000000000, 0.000000000000000000, 0.000000000000000000 ) ) ;
#631 = EDGE_LOOP ( 'NONE', ( #489, #735, #196, #568, #151, #413 ) ) ;
#632 = VERTEX_POINT ( 'NONE', #416 ) ;
#633 = DIRECTION ( 'NONE',  ( 1.000000000000000000, 0.000000000000000000, -1.239088197126290570E-16 ) ) ;
#634 = ORIENTED_EDGE ( 'NONE', *, *, #576, .F. ) ;
#635 = ORIENTED_EDGE ( 'NONE', *, *, #497, .F. ) ;
#636 = CARTESIAN_POINT ( 'NONE',  ( -15.00000000000000711, 3.000000000000000000, -32.00000000000000000 ) ) ;
#637 = CIRCLE ( 'NONE', #284, 10.00000000000000000 ) ;
#638 = DIRECTION ( 'NONE',  ( 0.000000000000000000, 0.000000000000000000, 1.000000000000000000 ) ) ;
#639 = CIRCLE ( 'NONE', #200, 1.600000000000000755 ) ;
#640 = VERTEX_POINT ( 'NONE', #571 ) ;
#641 = DIRECTION ( 'NONE',  ( 0.000000000000000000, 0.000000000000000000, 1.000000000000000000 ) ) ;
#642 = ORIENTED_EDGE ( 'NONE', *, *, #856, .F. ) ;
#643 = EDGE_LOOP ( 'NONE', ( #260, #976, #192, #377 ) ) ;
#644 = PLANE ( 'NONE',  #769 ) ;
#645 = EDGE_CURVE ( 'NONE', #600, #371, #188, .T. ) ;
#646 = CYLINDRICAL_SURFACE ( 'NONE', #991, 4.099999999999999645 ) ;
#647 = CARTESIAN_POINT ( 'NONE',  ( 12.00000000000027889, 3.000000000000000000, 1.999999999999998224 ) ) ;
#648 = ORIENTED_EDGE ( 'NONE', *, *, #368, .T. ) ;
#649 = DIRECTION ( 'NONE',  ( 1.239088197126290570E-16, 0.000000000000000000, 1.000000000000000000 ) ) ;
#650 = DIRECTION ( 'NONE',  ( -1.000000000000000000, 0.000000000000000000, 0.000000000000000000 ) ) ;
#651 = CARTESIAN_POINT ( 'NONE',  ( 14.99999999999999289, 3.000000000000000000, -35.00000000000000000 ) ) ;
#652 = ORIENTED_EDGE ( 'NONE', *, *, #875, .F. ) ;
#653 = SECURITY_CLASSIFICATION_LEVEL ( 'unclassified' ) ;
#654 = AXIS2_PLACEMENT_3D ( 'NONE', #396, #633, #537 ) ;
#655 = DIRECTION ( 'NONE',  ( 0.000000000000000000, 1.000000000000000000, 0.000000000000000000 ) ) ;
#656 = AXIS2_PLACEMENT_3D ( 'NONE', #29, #490, #692 ) ;
#657 = LINE ( 'NONE', #64, #764 ) ;
#658 = ORIENTED_EDGE ( 'NONE', *, *, #558, .F. ) ;
#659 = CARTESIAN_POINT ( 'NONE',  ( 11.99999999999999822, 0.000000000000000000, -25.00000000000000000 ) ) ;
#660 = DIRECTION ( 'NONE',  ( -0.000000000000000000, -1.000000000000000000, -0.000000000000000000 ) ) ;
#661 = ORIENTED_EDGE ( 'NONE', *, *, #593, .T. ) ;
#662 = PLANE ( 'NONE',  #722 ) ;
#663 = LINE ( 'NONE', #296, #252 ) ;
#664 = ADVANCED_FACE ( 'NONE', ( #258 ), #180, .F. ) ;
#665 = DIRECTION ( 'NONE',  ( 0.000000000000000000, 0.000000000000000000, -1.000000000000000000 ) ) ;
#666 = EDGE_LOOP ( 'NONE', ( #755, #881, #429, #453 ) ) ;
#667 = PERSON_AND_ORGANIZATION ( #135, #446 ) ;
#668 = ADVANCED_FACE ( 'NONE', ( #723 ), #184, .F. ) ;
#669 = VECTOR ( 'NONE', #567, 1000.000000000000000 ) ;
#670 = CARTESIAN_POINT ( 'NONE',  ( 10.00000000000000000, 3.000000000000000000, 30.00000000000000355 ) ) ;
#671 = LINE ( 'NONE', #767, #943 ) ;
#672 = AXIS2_PLACEMENT_3D ( 'NONE', #794, #307, #871 ) ;
#673 = VERTEX_POINT ( 'NONE', #958 ) ;
#674 = DIRECTION ( 'NONE',  ( 1.000000000000000000, 0.000000000000000000, -0.000000000000000000 ) ) ;
#675 = CARTESIAN_POINT ( 'NONE',  ( -12.00000000000000178, 0.000000000000000000, -25.00000000000000000 ) ) ;
#676 = FACE_BOUND ( 'NONE', #773, .T. ) ;
#677 = ORIENTED_EDGE ( 'NONE', *, *, #130, .F. ) ;
#678 = SHAPE_DEFINITION_REPRESENTATION ( #466, #614 ) ;
#679 = EDGE_CURVE ( 'NONE', #946, #600, #267, .T. ) ;
#680 = CARTESIAN_POINT ( 'NONE',  ( 9.999999999999944933, 3.000000000000000000, 13.80000000000000249 ) ) ;
#681 = EDGE_CURVE ( 'NONE', #494, #516, #291, .T. ) ;
#682 = CARTESIAN_POINT ( 'NONE',  ( -12.00000000000000178, 3.000000000000000000, -23.40000000000000213 ) ) ;
#683 = ORIENTED_EDGE ( 'NONE', *, *, #863, .T. ) ;
#684 = EDGE_CURVE ( 'NONE', #923, #640, #609, .T. ) ;
#685 = VECTOR ( 'NONE', #37, 1000.000000000000000 ) ;
#686 = CARTESIAN_POINT ( 'NONE',  ( 12.00000000000027889, 3.000000000000000000, 0.3999999999999964695 ) ) ;
#687 = AXIS2_PLACEMENT_3D ( 'NONE', #950, #47, #41 ) ;
#688 = FACE_OUTER_BOUND ( 'NONE', #34, .T. ) ;
#689 = ORIENTED_EDGE ( 'NONE', *, *, #937, .F. ) ;
#690 = AXIS2_PLACEMENT_3D ( 'NONE', #36, #341, #650 ) ;
#691 = EDGE_LOOP ( 'NONE', ( #652, #990, #635, #359 ) ) ;
#692 = DIRECTION ( 'NONE',  ( 0.000000000000000000, 0.000000000000000000, 1.000000000000000000 ) ) ;
#693 = CARTESIAN_POINT ( 'NONE',  ( 14.99999999999999289, -32.00000000000000000, -32.00000000000000000 ) ) ;
#694 = ORIENTED_EDGE ( 'NONE', *, *, #365, .T. ) ;
#695 = PLANE ( 'NONE',  #46 ) ;
#696 = CARTESIAN_POINT ( 'NONE',  ( -15.00000000000000711, 0.000000000000000000, -35.00000000000000000 ) ) ;
#697 = ADVANCED_FACE ( 'NONE', ( #66 ), #54, .F. ) ;
#698 = LINE ( 'NONE', #6, #122 ) ;
#699 = ORIENTED_EDGE ( 'NONE', *, *, #310, .F. ) ;
#700 = DIRECTION ( 'NONE',  ( -1.239088197126290570E-16, 0.000000000000000000, -1.000000000000000000 ) ) ;
#701 = CARTESIAN_POINT ( 'NONE',  ( -12.00000000000000178, 0.000000000000000000, -26.60000000000000142 ) ) ;
#702 = AXIS2_PLACEMENT_3D ( 'NONE', #534, #510, #904 ) ;
#703 = LINE ( 'NONE', #89, #217 ) ;
#704 = VERTEX_POINT ( 'NONE', #69 ) ;
#705 = CIRCLE ( 'NONE', #672, 1.600000000000002531 ) ;
#706 = DIRECTION ( 'NONE',  ( 1.000000000000000000, -0.000000000000000000, -0.000000000000000000 ) ) ;
#707 = EDGE_CURVE ( 'NONE', #584, #946, #12, .T. ) ;
#708 = DIRECTION ( 'NONE',  ( -0.000000000000000000, -1.000000000000000000, -0.000000000000000000 ) ) ;
#709 = EDGE_CURVE ( 'NONE', #381, #26, #903, .T. ) ;
#710 = ORIENTED_EDGE ( 'NONE', *, *, #742, .T. ) ;
#711 = EDGE_CURVE ( 'NONE', #21, #439, #373, .T. ) ;
#712 = DIRECTION ( 'NONE',  ( 1.000000000000000000, 0.000000000000000000, -1.239088197126290570E-16 ) ) ;
#713 = ORIENTED_EDGE ( 'NONE', *, *, #203, .F. ) ;
#714 = ORIENTED_EDGE ( 'NONE', *, *, #451, .T. ) ;
#715 = CARTESIAN_POINT ( 'NONE',  ( -11.99999999999972111, 0.000000000000000000, 1.999999999999998224 ) ) ;
#716 = VERTEX_POINT ( 'NONE', #432 ) ;
#717 = CIRCLE ( 'NONE', #605, 1.600000000000000755 ) ;
#718 = ORIENTED_EDGE ( 'NONE', *, *, #147, .T. ) ;
#719 = LINE ( 'NONE', #35, #591 ) ;
#720 = EDGE_CURVE ( 'NONE', #876, #523, #896, .T. ) ;
#721 = CIRCLE ( 'NONE', #395, 1.600000000000000755 ) ;
#722 = AXIS2_PLACEMENT_3D ( 'NONE', #894, #882, #674 ) ;
#723 = FACE_OUTER_BOUND ( 'NONE', #643, .T. ) ;
#724 = CARTESIAN_POINT ( 'NONE',  ( -14.99999999999999822, 0.000000000000000000, 32.00000000000000000 ) ) ;
#725 = EDGE_LOOP ( 'NONE', ( #713, #186, #952, #219 ) ) ;
#726 = CARTESIAN_POINT ( 'NONE',  ( -14.99999999999999822, 3.000000000000000000, 35.00000000000000000 ) ) ;
#727 = EDGE_CURVE ( 'NONE', #632, #716, #360, .T. ) ;
#728 = CARTESIAN_POINT ( 'NONE',  ( 11.99999999999999822, 3.000000000000000000, -25.00000000000000000 ) ) ;
#729 = DIRECTION ( 'NONE',  ( 0.000000000000000000, -0.000000000000000000, -1.000000000000000000 ) ) ;
#730 = EDGE_CURVE ( 'NONE', #371, #600, #848, .T. ) ;
#731 = VERTEX_POINT ( 'NONE', #139 ) ;
#732 = DIRECTION ( 'NONE',  ( -0.000000000000000000, -1.000000000000000000, -0.000000000000000000 ) ) ;
#733 = APPROVAL ( #924, 'æœª' ) ;
#734 = DIRECTION ( 'NONE',  ( 0.000000000000000000, 1.000000000000000000, 0.000000000000000000 ) ) ;
#735 = ORIENTED_EDGE ( 'NONE', *, *, #459, .T. ) ;
#736 = CIRCLE ( 'NONE', #521, 10.00000000000000000 ) ;
#737 = CARTESIAN_POINT ( 'NONE',  ( -12.00000000000000178, 3.000000000000000000, -25.00000000000000000 ) ) ;
#738 = VECTOR ( 'NONE', #992, 1000.000000000000000 ) ;
#739 = PLANE ( 'NONE',  #504 ) ;
#740 = VERTEX_POINT ( 'NONE', #820 ) ;
#741 = APPROVAL_DATE_TIME ( #40, #775 ) ;
#742 = EDGE_CURVE ( 'NONE', #280, #779, #878, .T. ) ;
#743 = MANIFOLD_SOLID_BREP ( 'Ô²½Ç2', #491 ) ;
#744 = CARTESIAN_POINT ( 'NONE',  ( 10.00000000000000000, 3.000000000000000000, 28.40000000000000213 ) ) ;
#745 = CARTESIAN_POINT ( 'NONE',  ( -11.99999999999972111, 3.000000000000000000, 1.999999999999998224 ) ) ;
#746 = VERTEX_POINT ( 'NONE', #978 ) ;
#747 = FACE_OUTER_BOUND ( 'NONE', #994, .T. ) ;
#748 = DIRECTION ( 'NONE',  ( 0.000000000000000000, 0.000000000000000000, 1.000000000000000000 ) ) ;
#749 = LINE ( 'NONE', #228, #235 ) ;
#750 = EDGE_LOOP ( 'NONE', ( #861, #511, #482, #887, #535, #294, #322 ) ) ;
#751 = CARTESIAN_POINT ( 'NONE',  ( -15.00000000000000711, 0.000000000000000000, -32.00000000000000000 ) ) ;
#752 = DIRECTION ( 'NONE',  ( 0.000000000000000000, 1.000000000000000000, 0.000000000000000000 ) ) ;
#753 = FACE_BOUND ( 'NONE', #793, .T. ) ;
#754 = VECTOR ( 'NONE', #700, 1000.000000000000000 ) ;
#755 = ORIENTED_EDGE ( 'NONE', *, *, #709, .F. ) ;
#756 = SECURITY_CLASSIFICATION ( '', '', #653 ) ;
#757 = ORIENTED_EDGE ( 'NONE', *, *, #730, .T. ) ;
#758 = DIRECTION ( 'NONE',  ( 0.000000000000000000, 1.000000000000000000, 0.000000000000000000 ) ) ;
#759 = CARTESIAN_POINT ( 'NONE',  ( 12.00000000000027889, 0.000000000000000000, 3.600000000000000533 ) ) ;
#760 = ORIENTED_EDGE ( 'NONE', *, *, #838, .F. ) ;
#761 = DIRECTION ( 'NONE',  ( 0.000000000000000000, 1.000000000000000000, 0.000000000000000000 ) ) ;
#762 = DIRECTION ( 'NONE',  ( 0.000000000000000000, 0.000000000000000000, 1.000000000000000000 ) ) ;
#763 = EDGE_LOOP ( 'NONE', ( #789, #13, #348, #901 ) ) ;
#764 = VECTOR ( 'NONE', #993, 1000.000000000000000 ) ;
#765 = CARTESIAN_POINT ( 'NONE',  ( -3.469446951953614189E-15, -22.00000000000000000, -35.00000000000000000 ) ) ;
#766 = VECTOR ( 'NONE', #168, 1000.000000000000000 ) ;
#767 = CARTESIAN_POINT ( 'NONE',  ( 10.00000000000000000, 3.000000000000000000, 28.40000000000000213 ) ) ;
#768 = VERTEX_POINT ( 'NONE', #226 ) ;
#769 = AXIS2_PLACEMENT_3D ( 'NONE', #726, #318, #383 ) ;
#770 = APPROVAL_PERSON_ORGANIZATION ( #288, #775, #115 ) ;
#771 = DIRECTION ( 'NONE',  ( -1.000000000000000000, 0.000000000000000000, 0.000000000000000000 ) ) ;
#772 = CARTESIAN_POINT ( 'NONE',  ( 9.999999999999944933, 0.000000000000000000, 12.20000000000000107 ) ) ;
#773 = EDGE_LOOP ( 'NONE', ( #403, #3 ) ) ;
#774 = DATE_TIME_ROLE ( 'classification_date' ) ;
#775 = APPROVAL ( #197, 'æœª' ) ;
#776 = DIRECTION ( 'NONE',  ( -0.000000000000000000, -1.000000000000000000, -0.000000000000000000 ) ) ;
#777 = CARTESIAN_POINT ( 'NONE',  ( -14.99999999999999822, 3.000000000000000000, 32.00000000000000000 ) ) ;
#778 = VERTEX_POINT ( 'NONE', #447 ) ;
#779 = VERTEX_POINT ( 'NONE', #744 ) ;
#780 = DIRECTION ( 'NONE',  ( 1.239088197126290570E-16, 0.000000000000000000, 1.000000000000000000 ) ) ;
#781 = VECTOR ( 'NONE', #616, 1000.000000000000000 ) ;
#782 = EDGE_LOOP ( 'NONE', ( #249, #444, #435, #910 ) ) ;
#783 = EDGE_LOOP ( 'NONE', ( #242, #826 ) ) ;
#784 = AXIS2_PLACEMENT_3D ( 'NONE', #737, #582, #801 ) ;
#785 = AXIS2_PLACEMENT_3D ( 'NONE', #751, #270, #962 ) ;
#786 = EDGE_CURVE ( 'NONE', #449, #26, #572, .T. ) ;
#787 = CARTESIAN_POINT ( 'NONE',  ( 14.99999999999999289, -32.00000000000000000, -35.00000000000000000 ) ) ;
#788 = EDGE_LOOP ( 'NONE', ( #202, #302, #549, #699 ) ) ;
#789 = ORIENTED_EDGE ( 'NONE', *, *, #623, .T. ) ;
#790 = DIRECTION ( 'NONE',  ( -1.000000000000000000, 0.000000000000000000, 0.000000000000000000 ) ) ;
#791 = CARTESIAN_POINT ( 'NONE',  ( 10.00000000000000000, 0.000000000000000000, 30.00000000000000355 ) ) ;
#792 = PRODUCT_RELATED_PRODUCT_CATEGORY ( 'detail', '', ( #620 ) ) ;
#793 = EDGE_LOOP ( 'NONE', ( #406, #936 ) ) ;
#794 = CARTESIAN_POINT ( 'NONE',  ( 9.999999999999944933, 3.000000000000000000, 13.80000000000000249 ) ) ;
#795 = DIRECTION ( 'NONE',  ( 0.000000000000000000, 0.000000000000000000, -1.000000000000000000 ) ) ;
#796 = AXIS2_PLACEMENT_3D ( 'NONE', #647, #891, #498 ) ;
#797 = DIRECTION ( 'NONE',  ( -1.000000000000000000, 0.000000000000000000, 0.000000000000000000 ) ) ;
#798 = ORIENTED_EDGE ( 'NONE', *, *, #420, .T. ) ;
#799 = DIRECTION ( 'NONE',  ( -0.000000000000000000, -1.000000000000000000, -0.000000000000000000 ) ) ;
#800 = EDGE_CURVE ( 'NONE', #870, #494, #127, .T. ) ;
#801 = DIRECTION ( 'NONE',  ( 0.000000000000000000, 0.000000000000000000, 1.000000000000000000 ) ) ;
#802 = LINE ( 'NONE', #338, #375 ) ;
#803 = VERTEX_POINT ( 'NONE', #303 ) ;
#804 = PERSON_AND_ORGANIZATION ( #135, #446 ) ;
#805 = DIRECTION ( 'NONE',  ( 0.000000000000000000, 0.000000000000000000, 1.000000000000000000 ) ) ;
#806 = CARTESIAN_POINT ( 'NONE',  ( -5.000000000000004441, -32.00000000000000000, -35.00000000000000000 ) ) ;
#807 = ORIENTED_EDGE ( 'NONE', *, *, #681, .T. ) ;
#808 = PERSON_AND_ORGANIZATION_ROLE ( 'design_owner' ) ;
#809 = DIRECTION ( 'NONE',  ( 1.000000000000000000, 0.000000000000000000, 0.000000000000000000 ) ) ;
#810 = EDGE_CURVE ( 'NONE', #367, #523, #332, .T. ) ;
#811 = CARTESIAN_POINT ( 'NONE',  ( 4.099999999999996092, -22.00000000000000000, -35.00000000000000000 ) ) ;
#812 = EDGE_LOOP ( 'NONE', ( #597, #78 ) ) ;
#813 = EDGE_CURVE ( 'NONE', #26, #449, #507, .T. ) ;
#814 = LINE ( 'NONE', #204, #543 ) ;
#815 = DIRECTION ( 'NONE',  ( -1.000000000000000000, 0.000000000000000000, 0.000000000000000000 ) ) ;
#816 = CIRCLE ( 'NONE', #656, 3.000000000000002665 ) ;
#817 = AXIS2_PLACEMENT_3D ( 'NONE', #144, #509, #611 ) ;
#818 = DIRECTION ( 'NONE',  ( 0.000000000000000000, 0.000000000000000000, 1.000000000000000000 ) ) ;
#819 = ORIENTED_EDGE ( 'NONE', *, *, #488, .F. ) ;
#820 = CARTESIAN_POINT ( 'NONE',  ( 14.99999999999999289, 0.000000000000000000, -35.00000000000000000 ) ) ;
#821 = CARTESIAN_POINT ( 'NONE',  ( 10.00000000000000000, 3.000000000000000000, 31.60000000000000142 ) ) ;
#822 = ORIENTED_EDGE ( 'NONE', *, *, #20, .T. ) ;
#823 = CC_DESIGN_PERSON_AND_ORGANIZATION_ASSIGNMENT ( #276, #500, ( #484 ) ) ;
#824 = DIRECTION ( 'NONE',  ( 0.000000000000000000, 0.000000000000000000, 1.000000000000000000 ) ) ;
#825 = CARTESIAN_POINT ( 'NONE',  ( 12.00000000000027889, 3.000000000000000000, 3.600000000000000089 ) ) ;
#826 = ORIENTED_EDGE ( 'NONE', *, *, #935, .F. ) ;
#827 = EDGE_CURVE ( 'NONE', #439, #716, #51, .T. ) ;
#828 = DIRECTION ( 'NONE',  ( -0.000000000000000000, -1.000000000000000000, -0.000000000000000000 ) ) ;
#829 = DIRECTION ( 'NONE',  ( -0.000000000000000000, -1.000000000000000000, -0.000000000000000000 ) ) ;
#830 = ORIENTED_EDGE ( 'NONE', *, *, #389, .T. ) ;
#831 = VERTEX_POINT ( 'NONE', #149 ) ;
#832 = DIRECTION ( 'NONE',  ( 0.000000000000000000, 1.000000000000000000, 0.000000000000000000 ) ) ;
#833 = DIRECTION ( 'NONE',  ( -0.000000000000000000, -1.000000000000000000, -0.000000000000000000 ) ) ;
#834 = ORIENTED_EDGE ( 'NONE', *, *, #827, .F. ) ;
#835 = ORIENTED_EDGE ( 'NONE', *, *, #208, .F. ) ;
#836 = APPLICATION_CONTEXT ( 'configuration controlled 3d designs of mechanical parts and assemblies' ) ;
#837 = DIRECTION ( 'NONE',  ( 0.000000000000000000, 0.000000000000000000, -1.000000000000000000 ) ) ;
#838 = EDGE_CURVE ( 'NONE', #923, #704, #663, .T. ) ;
#839 = CARTESIAN_POINT ( 'NONE',  ( 9.999999999999944933, 0.000000000000000000, 13.80000000000000249 ) ) ;
#840 = EDGE_LOOP ( 'NONE', ( #156, #710, #99, #933 ) ) ;
#841 = CC_DESIGN_PERSON_AND_ORGANIZATION_ASSIGNMENT ( #804, #808, ( #620 ) ) ;
#842 = VECTOR ( 'NONE', #829, 1000.000000000000000 ) ;
#843 = FACE_OUTER_BOUND ( 'NONE', #691, .T. ) ;
#844 = AXIS2_PLACEMENT_3D ( 'NONE', #273, #278, #805 ) ;
#845 = EDGE_CURVE ( 'NONE', #422, #876, #350, .T. ) ;
#846 = CARTESIAN_POINT ( 'NONE',  ( -15.00000000000000711, -32.00000000000000000, -32.00000000000000000 ) ) ;
#847 = ORIENTED_EDGE ( 'NONE', *, *, #486, .F. ) ;
#848 = CIRCLE ( 'NONE', #817, 1.600000000000001643 ) ;
#849 = FACE_OUTER_BOUND ( 'NONE', #213, .T. ) ;
#850 = DIRECTION ( 'NONE',  ( 1.000000000000000000, 0.000000000000000000, 0.000000000000000000 ) ) ;
#851 = ORIENTED_EDGE ( 'NONE', *, *, #982, .F. ) ;
#852 = ORIENTED_EDGE ( 'NONE', *, *, #800, .F. ) ;
#853 = DIRECTION ( 'NONE',  ( 0.000000000000000000, 0.000000000000000000, 1.000000000000000000 ) ) ;
#854 = DIRECTION ( 'NONE',  ( 0.000000000000000000, 0.000000000000000000, 1.000000000000000000 ) ) ;
#855 = VERTEX_POINT ( 'NONE', #340 ) ;
#856 = EDGE_CURVE ( 'NONE', #464, #328, #719, .T. ) ;
#857 = AXIS2_PLACEMENT_3D ( 'NONE', #201, #106, #411 ) ;
#858 = CARTESIAN_POINT ( 'NONE',  ( 12.00000000000000178, 0.000000000000000000, 35.00000000000000000 ) ) ;
#859 = CIRCLE ( 'NONE', #587, 10.00000000000000000 ) ;
#860 = VERTEX_POINT ( 'NONE', #461 ) ;
#861 = ORIENTED_EDGE ( 'NONE', *, *, #96, .T. ) ;
#862 = VECTOR ( 'NONE', #908, 1000.000000000000000 ) ;
#863 = EDGE_CURVE ( 'NONE', #673, #178, #75, .T. ) ;
#864 = DIRECTION ( 'NONE',  ( 0.000000000000000000, 0.000000000000000000, 1.000000000000000000 ) ) ;
#865 = CARTESIAN_POINT ( 'NONE',  ( -12.00000000000000178, 0.000000000000000000, -23.40000000000000213 ) ) ;
#866 = EDGE_LOOP ( 'NONE', ( #760, #546, #503, #402 ) ) ;
#867 = CARTESIAN_POINT ( 'NONE',  ( -11.99999999999999822, 3.000000000000000000, 32.00000000000000000 ) ) ;
#868 = DIRECTION ( 'NONE',  ( 0.000000000000000000, 0.000000000000000000, 1.000000000000000000 ) ) ;
#869 = FACE_BOUND ( 'NONE', #812, .T. ) ;
#870 = VERTEX_POINT ( 'NONE', #957 ) ;
#871 = DIRECTION ( 'NONE',  ( 0.000000000000000000, 0.000000000000000000, 1.000000000000000000 ) ) ;
#872 = CARTESIAN_POINT ( 'NONE',  ( -15.00000000000000711, 0.000000000000000000, -32.00000000000000000 ) ) ;
#873 = CIRCLE ( 'NONE', #857, 2.999999999999999112 ) ;
#874 = CYLINDRICAL_SURFACE ( 'NONE', #796, 1.600000000000001865 ) ;
#875 = EDGE_CURVE ( 'NONE', #418, #768, #816, .T. ) ;
#876 = VERTEX_POINT ( 'NONE', #79 ) ;
#877 = DIRECTION ( 'NONE',  ( 1.000000000000000000, 0.000000000000000000, 0.000000000000000000 ) ) ;
#878 = CIRCLE ( 'NONE', #272, 1.600000000000000755 ) ;
#879 = DIRECTION ( 'NONE',  ( -0.000000000000000000, -1.000000000000000000, -0.000000000000000000 ) ) ;
#880 = CARTESIAN_POINT ( 'NONE',  ( -15.00000000000000711, 0.000000000000000000, -35.00000000000000000 ) ) ;
#881 = ORIENTED_EDGE ( 'NONE', *, *, #100, .T. ) ;
#882 = DIRECTION ( 'NONE',  ( 0.000000000000000000, 0.000000000000000000, 1.000000000000000000 ) ) ;
#883 = ADVANCED_FACE ( 'NONE', ( #455 ), #695, .F. ) ;
#884 = DIRECTION ( 'NONE',  ( 0.000000000000000000, 0.000000000000000000, 1.000000000000000000 ) ) ;
#885 = ADVANCED_FACE ( 'NONE', ( #336 ), #4, .T. ) ;
#886 = DIRECTION ( 'NONE',  ( 0.000000000000000000, 1.000000000000000000, 0.000000000000000000 ) ) ;
#887 = ORIENTED_EDGE ( 'NONE', *, *, #454, .T. ) ;
#888 = ADVANCED_FACE ( 'NONE', ( #231 ), #644, .F. ) ;
#889 = EDGE_CURVE ( 'NONE', #298, #449, #183, .T. ) ;
#890 = CARTESIAN_POINT ( 'NONE',  ( -14.99999999999999822, 3.000000000000000000, 32.00000000000000000 ) ) ;
#891 = DIRECTION ( 'NONE',  ( -0.000000000000000000, -1.000000000000000000, -0.000000000000000000 ) ) ;
#892 = AXIS2_PLACEMENT_3D ( 'NONE', #417, #734, #43 ) ;
#893 = ORIENTED_EDGE ( 'NONE', *, *, #497, .T. ) ;
#894 = CARTESIAN_POINT ( 'NONE',  ( -15.00000000000000711, 3.000000000000000000, -35.00000000000000000 ) ) ;
#895 = VECTOR ( 'NONE', #262, 1000.000000000000000 ) ;
#896 = LINE ( 'NONE', #686, #524 ) ;
#897 = AXIS2_PLACEMENT_3D ( 'NONE', #715, #331, #104 ) ;
#898 = ADVANCED_FACE ( 'NONE', ( #542 ), #8, .F. ) ;
#899 = CC_DESIGN_APPROVAL ( #733, ( #756 ) ) ;
#900 = FACE_BOUND ( 'NONE', #475, .T. ) ;
#901 = ORIENTED_EDGE ( 'NONE', *, *, #28, .F. ) ;
#902 = APPLICATION_PROTOCOL_DEFINITION ( 'international standard', 'config_control_design', 1994, #836 ) ;
#903 = LINE ( 'NONE', #514, #916 ) ;
#904 = DIRECTION ( 'NONE',  ( 0.000000000000000000, -0.000000000000000000, 1.000000000000000000 ) ) ;
#905 = ORIENTED_EDGE ( 'NONE', *, *, #742, .F. ) ;
#906 = COORDINATED_UNIVERSAL_TIME_OFFSET ( 8, 0, .AHEAD. ) ;
#907 = EDGE_CURVE ( 'NONE', #494, #870, #705, .T. ) ;
#908 = DIRECTION ( 'NONE',  ( -0.000000000000000000, -1.000000000000000000, -0.000000000000000000 ) ) ;
#909 = DIRECTION ( 'NONE',  ( -0.000000000000000000, 0.000000000000000000, -1.000000000000000000 ) ) ;
#910 = ORIENTED_EDGE ( 'NONE', *, *, #810, .F. ) ;
#911 = DATE_AND_TIME ( #618, #412 ) ;
#912 = AXIS2_PLACEMENT_3D ( 'NONE', #965, #886, #818 ) ;
#913 = AXIS2_PLACEMENT_3D ( 'NONE', #93, #97, #853 ) ;
#914 = CARTESIAN_POINT ( 'NONE',  ( -12.00000000000000178, 0.000000000000000000, -25.00000000000000000 ) ) ;
#915 = DIRECTION ( 'NONE',  ( 0.000000000000000000, 0.000000000000000000, 1.000000000000000000 ) ) ;
#916 = VECTOR ( 'NONE', #828, 1000.000000000000000 ) ;
#917 = ORIENTED_EDGE ( 'NONE', *, *, #39, .F. ) ;
#918 = ORIENTED_EDGE ( 'NONE', *, *, #10, .T. ) ;
#919 = CARTESIAN_POINT ( 'NONE',  ( 12.00000000000027889, 0.000000000000000000, 1.999999999999998224 ) ) ;
#920 = ADVANCED_FACE ( 'NONE', ( #849 ), #163, .F. ) ;
#921 = CYLINDRICAL_SURFACE ( 'NONE', #586, 1.600000000000001865 ) ;
#922 = ADVANCED_FACE ( 'NONE', ( #483 ), #108, .F. ) ;
#923 = VERTEX_POINT ( 'NONE', #153 ) ;
#924 = APPROVAL_STATUS ( 'not_yet_approved' ) ;
#925 = DIRECTION ( 'NONE',  ( -1.000000000000000000, 0.000000000000000000, 1.239088197126290570E-16 ) ) ;
#926 = DIRECTION ( 'NONE',  ( 0.000000000000000000, 0.000000000000000000, 1.000000000000000000 ) ) ;
#927 = EDGE_LOOP ( 'NONE', ( #479, #343, #162, #951 ) ) ;
#928 = VECTOR ( 'NONE', #660, 1000.000000000000000 ) ;
#929 = CARTESIAN_POINT ( 'NONE',  ( 10.00000000000000000, 3.000000000000000000, 30.00000000000000355 ) ) ;
#930 = DIRECTION ( 'NONE',  ( 0.000000000000000000, 0.000000000000000000, -1.000000000000000000 ) ) ;
#931 = ORIENTED_EDGE ( 'NONE', *, *, #679, .F. ) ;
#932 = CIRCLE ( 'NONE', #445, 4.099999999999999645 ) ;
#933 = ORIENTED_EDGE ( 'NONE', *, *, #368, .F. ) ;
#934 = DIRECTION ( 'NONE',  ( 0.000000000000000000, 1.000000000000000000, 0.000000000000000000 ) ) ;
#935 = EDGE_CURVE ( 'NONE', #142, #328, #932, .T. ) ;
#936 = ORIENTED_EDGE ( 'NONE', *, *, #684, .F. ) ;
#937 = EDGE_CURVE ( 'NONE', #716, #530, #536, .T. ) ;
#938 = ORIENTED_EDGE ( 'NONE', *, *, #863, .F. ) ;
#939 = LINE ( 'NONE', #846, #158 ) ;
#940 = DIRECTION ( 'NONE',  ( 1.000000000000000000, 0.000000000000000000, 0.000000000000000000 ) ) ;
#941 = ORIENTED_EDGE ( 'NONE', *, *, #555, .T. ) ;
#942 = ADVANCED_FACE ( 'NONE', ( #843 ), #82, .T. ) ;
#943 = VECTOR ( 'NONE', #452, 1000.000000000000000 ) ;
#944 = CARTESIAN_POINT ( 'NONE',  ( 12.00000000000027889, 3.000000000000000000, 3.600000000000000533 ) ) ;
#945 = AXIS2_PLACEMENT_3D ( 'NONE', #728, #879, #795 ) ;
#946 = VERTEX_POINT ( 'NONE', #619 ) ;
#947 = ORIENTED_EDGE ( 'NONE', *, *, #800, .T. ) ;
#948 = DIRECTION ( 'NONE',  ( 0.000000000000000000, 0.000000000000000000, 1.000000000000000000 ) ) ;
#949 = VECTOR ( 'NONE', #984, 1000.000000000000000 ) ;
#950 = CARTESIAN_POINT ( 'NONE',  ( 12.00000000000027889, 0.000000000000000000, 1.999999999999998224 ) ) ;
#951 = ORIENTED_EDGE ( 'NONE', *, *, #423, .T. ) ;
#952 = ORIENTED_EDGE ( 'NONE', *, *, #679, .T. ) ;
#953 = CARTESIAN_POINT ( 'NONE',  ( -12.00000000000000178, 3.000000000000000000, -26.60000000000000142 ) ) ;
#954 = CARTESIAN_POINT ( 'NONE',  ( -11.99999999999972111, 3.000000000000000000, 3.600000000000000533 ) ) ;
#955 = FACE_BOUND ( 'NONE', #987, .T. ) ;
#956 = EDGE_LOOP ( 'NONE', ( #714, #92, #554, #642 ) ) ;
#957 = CARTESIAN_POINT ( 'NONE',  ( 9.999999999999944933, 3.000000000000000000, 15.40000000000000568 ) ) ;
#958 = CARTESIAN_POINT ( 'NONE',  ( -5.000000000000004441, -32.00000000000000000, -32.00000000000000000 ) ) ;
#959 = VECTOR ( 'NONE', #268, 1000.000000000000000 ) ;
#960 = DIRECTION ( 'NONE',  ( 0.000000000000000000, -1.000000000000000000, 0.000000000000000000 ) ) ;
#961 = ORIENTED_EDGE ( 'NONE', *, *, #786, .F. ) ;
#962 = DIRECTION ( 'NONE',  ( 0.000000000000000000, 0.000000000000000000, -1.000000000000000000 ) ) ;
#963 = VECTOR ( 'NONE', #211, 1000.000000000000000 ) ;
#964 = DIRECTION ( 'NONE',  ( -0.000000000000000000, -1.000000000000000000, -0.000000000000000000 ) ) ;
#965 = CARTESIAN_POINT ( 'NONE',  ( 9.999999999999944933, 0.000000000000000000, 13.80000000000000249 ) ) ;
#966 = VERTEX_POINT ( 'NONE', #407 ) ;
#967 = APPROVAL_STATUS ( 'not_yet_approved' ) ;
#968 = DIRECTION ( 'NONE',  ( -0.000000000000000000, -0.000000000000000000, -1.000000000000000000 ) ) ;
#969 = CARTESIAN_POINT ( 'NONE',  ( 4.999999999999992006, -32.00000000000000000, -35.00000000000000000 ) ) ;
#970 = ORIENTED_EDGE ( 'NONE', *, *, #454, .F. ) ;
#971 =( LENGTH_UNIT ( ) NAMED_UNIT ( * ) SI_UNIT ( .MILLI., .METRE. ) );
#972 = EDGE_CURVE ( 'NONE', #768, #855, #814, .T. ) ;
#973 = CARTESIAN_POINT ( 'NONE',  ( 11.99999999999999822, 3.000000000000000000, -25.00000000000000000 ) ) ;
#974 = DIRECTION ( 'NONE',  ( 1.239088197126290570E-16, -0.000000000000000000, 1.000000000000000000 ) ) ;
#975 = CIRCLE ( 'NONE', #553, 1.600000000000000755 ) ;
#976 = ORIENTED_EDGE ( 'NONE', *, *, #55, .T. ) ;
#977 = CALENDAR_DATE ( 2026, 20, 5 ) ;
#978 = CARTESIAN_POINT ( 'NONE',  ( 12.00000000000000178, 3.000000000000000000, 35.00000000000000000 ) ) ;
#979 = AXIS2_PLACEMENT_3D ( 'NONE', #919, #59, #364 ) ;
#980 = DIRECTION ( 'NONE',  ( 0.000000000000000000, 0.000000000000000000, -1.000000000000000000 ) ) ;
#981 = EDGE_LOOP ( 'NONE', ( #917, #175, #559, #306 ) ) ;
#982 = EDGE_CURVE ( 'NONE', #778, #119, #111, .T. ) ;
#983 = CARTESIAN_POINT ( 'NONE',  ( 0.000000000000000000, 0.000000000000000000, 0.000000000000000000 ) ) ;
#984 = DIRECTION ( 'NONE',  ( -1.239088197126290570E-16, -0.000000000000000000, -1.000000000000000000 ) ) ;
#985 = PLANE ( 'NONE',  #702 ) ;
#986 = ORIENTED_EDGE ( 'NONE', *, *, #576, .T. ) ;
#987 = EDGE_LOOP ( 'NONE', ( #613, #362 ) ) ;
#988 = DIRECTION ( 'NONE',  ( 0.000000000000000000, 0.000000000000000000, 1.000000000000000000 ) ) ;
#989 = CARTESIAN_POINT ( 'NONE',  ( 4.999999999999992006, -22.00000000000000000, -32.00000000000000000 ) ) ;
#990 = ORIENTED_EDGE ( 'NONE', *, *, #589, .F. ) ;
#991 = AXIS2_PLACEMENT_3D ( 'NONE', #24, #968, #815 ) ;
#992 = DIRECTION ( 'NONE',  ( -0.000000000000000000, 1.000000000000000000, -0.000000000000000000 ) ) ;
#993 = DIRECTION ( 'NONE',  ( -0.000000000000000000, -1.000000000000000000, -0.000000000000000000 ) ) ;
#994 = EDGE_LOOP ( 'NONE', ( #819, #333, #224, #239, #58, #481 ) ) ;
#995 = APPROVAL_ROLE ( '' ) ;
#996 = ADVANCED_FACE ( 'NONE', ( #569, #747 ), #662, .F. ) ;
ENDSEC;
END-ISO-10303-21;
